%TF.GenerationSoftware,KiCad,Pcbnew,10.0.3*%
%TF.CreationDate,2026-07-27T00:41:11+03:00*%
%TF.ProjectId,v1.0,76312e30-2e6b-4696-9361-645f70636258,rev?*%
%TF.SameCoordinates,Original*%
%TF.FileFunction,Copper,L3,Inr*%
%TF.FilePolarity,Positive*%
%FSLAX46Y46*%
G04 Gerber Fmt 4.6, Leading zero omitted, Abs format (unit mm)*
G04 Created by KiCad (PCBNEW 10.0.3) date 2026-07-27 00:41:11*
%MOMM*%
%LPD*%
G01*
G04 APERTURE LIST*
G04 Aperture macros list*
%AMRoundRect*
0 Rectangle with rounded corners*
0 $1 Rounding radius*
0 $2 $3 $4 $5 $6 $7 $8 $9 X,Y pos of 4 corners*
0 Add a 4 corners polygon primitive as box body*
4,1,4,$2,$3,$4,$5,$6,$7,$8,$9,$2,$3,0*
0 Add four circle primitives for the rounded corners*
1,1,$1+$1,$2,$3*
1,1,$1+$1,$4,$5*
1,1,$1+$1,$6,$7*
1,1,$1+$1,$8,$9*
0 Add four rect primitives between the rounded corners*
20,1,$1+$1,$2,$3,$4,$5,0*
20,1,$1+$1,$4,$5,$6,$7,0*
20,1,$1+$1,$6,$7,$8,$9,0*
20,1,$1+$1,$8,$9,$2,$3,0*%
G04 Aperture macros list end*
%TA.AperFunction,ComponentPad*%
%ADD10RoundRect,0.250000X0.550000X0.550000X-0.550000X0.550000X-0.550000X-0.550000X0.550000X-0.550000X0*%
%TD*%
%TA.AperFunction,ComponentPad*%
%ADD11C,1.600000*%
%TD*%
%TA.AperFunction,ViaPad*%
%ADD12C,0.600000*%
%TD*%
G04 APERTURE END LIST*
D10*
%TO.N,+BATT*%
%TO.C,M1*%
X234800000Y-53500000D03*
D11*
%TO.N,Net-(D2-A)*%
X231200000Y-53500000D03*
%TD*%
D12*
%TO.N,GND*%
X201500000Y-60500000D03*
X216000000Y-51500000D03*
X222750000Y-54500000D03*
X225500000Y-60000000D03*
X208505793Y-55000000D03*
X234000000Y-59500000D03*
X208000000Y-58000000D03*
%TO.N,Net-(U2-XL1{slash}P0.00)*%
X210750000Y-52000000D03*
X218506511Y-53057164D03*
X217760744Y-50500000D03*
%TO.N,Net-(J6-Pin_1)*%
X203752172Y-57694100D03*
X226717803Y-56973419D03*
%TO.N,+BATT*%
X213000000Y-56500000D03*
X217985259Y-56514741D03*
X214500000Y-49500000D03*
%TO.N,V_DD*%
X218855150Y-56224423D03*
X225034734Y-50665701D03*
X217500000Y-48500000D03*
X206000000Y-57500000D03*
X228500000Y-59500000D03*
X229500000Y-51000000D03*
X228000000Y-58000000D03*
X215500000Y-55000000D03*
%TO.N,V_BUS*%
X221096962Y-58342258D03*
X210454950Y-57954950D03*
%TO.N,Net-(U2-DCC)*%
X220000000Y-51000000D03*
X219000000Y-49000000D03*
%TO.N,Net-(U2-DEC5)*%
X209500000Y-59500000D03*
X222500000Y-59500000D03*
X215803909Y-56280030D03*
X226734622Y-54721599D03*
%TO.N,Net-(U2-DEC1)*%
X219079594Y-51006375D03*
X225500000Y-49000000D03*
%TO.N,Net-(U2-DEC2)*%
X222000000Y-50500000D03*
X224167149Y-50801012D03*
%TO.N,Net-(U2-ANT)*%
X226500000Y-52000000D03*
X227000000Y-49000000D03*
%TO.N,Net-(U2-DEC6)*%
X229500000Y-52500000D03*
X226556610Y-52769728D03*
%TO.N,Net-(U2-DECUSB)*%
X224500000Y-59480000D03*
X222259766Y-58380607D03*
%TO.N,ANT*%
X226582500Y-51192681D03*
X195500000Y-48037500D03*
%TO.N,Net-(J5-Pin_1)*%
X201531472Y-57765736D03*
X226634228Y-56125732D03*
%TO.N,Net-(U2-DCCH)*%
X218500000Y-59237500D03*
X219000000Y-57500000D03*
%TO.N,INT*%
X236625903Y-53522430D03*
X226092228Y-50329132D03*
%TO.N,XSHUT*%
X218500000Y-54500000D03*
X236000000Y-55500000D03*
%TD*%
%TA.AperFunction,Conductor*%
%TO.N,V_DD*%
G36*
X242362539Y-47100185D02*
G01*
X242408294Y-47152989D01*
X242419500Y-47204500D01*
X242419500Y-61795500D01*
X242399815Y-61862539D01*
X242347011Y-61908294D01*
X242295500Y-61919500D01*
X196124000Y-61919500D01*
X196056961Y-61899815D01*
X196011206Y-61847011D01*
X196000000Y-61795500D01*
X196000000Y-60421153D01*
X200699500Y-60421153D01*
X200699500Y-60578846D01*
X200730261Y-60733489D01*
X200730264Y-60733501D01*
X200790602Y-60879172D01*
X200790609Y-60879185D01*
X200878210Y-61010288D01*
X200878213Y-61010292D01*
X200989707Y-61121786D01*
X200989711Y-61121789D01*
X201120814Y-61209390D01*
X201120827Y-61209397D01*
X201266498Y-61269735D01*
X201266503Y-61269737D01*
X201421153Y-61300499D01*
X201421156Y-61300500D01*
X201421158Y-61300500D01*
X201578844Y-61300500D01*
X201578845Y-61300499D01*
X201733497Y-61269737D01*
X201879179Y-61209394D01*
X202010289Y-61121789D01*
X202121789Y-61010289D01*
X202209394Y-60879179D01*
X202269737Y-60733497D01*
X202300500Y-60578842D01*
X202300500Y-60421158D01*
X202300500Y-60421155D01*
X202300499Y-60421153D01*
X202270380Y-60269735D01*
X202269737Y-60266503D01*
X202209794Y-60121786D01*
X202209397Y-60120827D01*
X202209390Y-60120814D01*
X202121789Y-59989711D01*
X202121786Y-59989707D01*
X202010292Y-59878213D01*
X202010288Y-59878210D01*
X201879185Y-59790609D01*
X201879172Y-59790602D01*
X201733501Y-59730264D01*
X201733489Y-59730261D01*
X201578845Y-59699500D01*
X201578842Y-59699500D01*
X201421158Y-59699500D01*
X201421155Y-59699500D01*
X201266510Y-59730261D01*
X201266498Y-59730264D01*
X201120827Y-59790602D01*
X201120814Y-59790609D01*
X200989711Y-59878210D01*
X200989707Y-59878213D01*
X200878213Y-59989707D01*
X200878210Y-59989711D01*
X200790609Y-60120814D01*
X200790602Y-60120827D01*
X200730264Y-60266498D01*
X200730261Y-60266510D01*
X200699500Y-60421153D01*
X196000000Y-60421153D01*
X196000000Y-59421153D01*
X208699500Y-59421153D01*
X208699500Y-59578846D01*
X208730261Y-59733489D01*
X208730264Y-59733501D01*
X208790602Y-59879172D01*
X208790609Y-59879185D01*
X208878210Y-60010288D01*
X208878213Y-60010292D01*
X208989707Y-60121786D01*
X208989711Y-60121789D01*
X209120814Y-60209390D01*
X209120827Y-60209397D01*
X209266498Y-60269735D01*
X209266503Y-60269737D01*
X209421153Y-60300499D01*
X209421156Y-60300500D01*
X209421158Y-60300500D01*
X209578844Y-60300500D01*
X209578845Y-60300499D01*
X209733497Y-60269737D01*
X209879179Y-60209394D01*
X210010289Y-60121789D01*
X210121789Y-60010289D01*
X210209394Y-59879179D01*
X210269737Y-59733497D01*
X210300500Y-59578842D01*
X210300500Y-59421158D01*
X210300500Y-59421156D01*
X210300500Y-59421155D01*
X210300499Y-59421153D01*
X210279651Y-59316344D01*
X210269737Y-59266503D01*
X210255237Y-59231497D01*
X210209397Y-59120827D01*
X210209390Y-59120814D01*
X210121789Y-58989711D01*
X210121786Y-58989707D01*
X210039696Y-58907617D01*
X210006211Y-58846294D01*
X210011195Y-58776602D01*
X210053067Y-58720669D01*
X210118531Y-58696252D01*
X210174828Y-58705374D01*
X210221453Y-58724687D01*
X210346573Y-58749575D01*
X210376103Y-58755449D01*
X210376106Y-58755450D01*
X210376108Y-58755450D01*
X210533794Y-58755450D01*
X210533795Y-58755449D01*
X210688447Y-58724687D01*
X210834129Y-58664344D01*
X210965239Y-58576739D01*
X211076739Y-58465239D01*
X211164344Y-58334129D01*
X211224687Y-58188447D01*
X211255450Y-58033792D01*
X211255450Y-57876108D01*
X211255450Y-57876105D01*
X211255449Y-57876103D01*
X211246669Y-57831965D01*
X211224687Y-57721453D01*
X211203880Y-57671219D01*
X211164347Y-57575777D01*
X211164340Y-57575764D01*
X211076739Y-57444661D01*
X211076736Y-57444657D01*
X210965242Y-57333163D01*
X210965238Y-57333160D01*
X210834135Y-57245559D01*
X210834122Y-57245552D01*
X210688451Y-57185214D01*
X210688439Y-57185211D01*
X210533795Y-57154450D01*
X210533792Y-57154450D01*
X210376108Y-57154450D01*
X210376105Y-57154450D01*
X210221460Y-57185211D01*
X210221448Y-57185214D01*
X210075777Y-57245552D01*
X210075764Y-57245559D01*
X209944661Y-57333160D01*
X209944657Y-57333163D01*
X209833163Y-57444657D01*
X209833160Y-57444661D01*
X209745559Y-57575764D01*
X209745552Y-57575777D01*
X209685214Y-57721448D01*
X209685211Y-57721460D01*
X209654450Y-57876103D01*
X209654450Y-58033796D01*
X209685211Y-58188439D01*
X209685214Y-58188451D01*
X209745552Y-58334122D01*
X209745559Y-58334135D01*
X209833160Y-58465238D01*
X209833163Y-58465242D01*
X209915253Y-58547332D01*
X209948738Y-58608655D01*
X209943754Y-58678347D01*
X209901882Y-58734280D01*
X209836418Y-58758697D01*
X209780121Y-58749575D01*
X209733497Y-58730263D01*
X209733492Y-58730262D01*
X209733489Y-58730261D01*
X209578845Y-58699500D01*
X209578842Y-58699500D01*
X209421158Y-58699500D01*
X209421155Y-58699500D01*
X209266510Y-58730261D01*
X209266498Y-58730264D01*
X209120827Y-58790602D01*
X209120814Y-58790609D01*
X208989711Y-58878210D01*
X208989707Y-58878213D01*
X208878213Y-58989707D01*
X208878210Y-58989711D01*
X208790609Y-59120814D01*
X208790602Y-59120827D01*
X208730264Y-59266498D01*
X208730261Y-59266510D01*
X208699500Y-59421153D01*
X196000000Y-59421153D01*
X196000000Y-57686889D01*
X200730972Y-57686889D01*
X200730972Y-57844582D01*
X200761733Y-57999225D01*
X200761736Y-57999237D01*
X200822074Y-58144908D01*
X200822081Y-58144921D01*
X200909682Y-58276024D01*
X200909685Y-58276028D01*
X201021179Y-58387522D01*
X201021183Y-58387525D01*
X201152286Y-58475126D01*
X201152299Y-58475133D01*
X201297970Y-58535471D01*
X201297975Y-58535473D01*
X201452625Y-58566235D01*
X201452628Y-58566236D01*
X201452630Y-58566236D01*
X201610316Y-58566236D01*
X201610317Y-58566235D01*
X201764969Y-58535473D01*
X201910651Y-58475130D01*
X202041761Y-58387525D01*
X202153261Y-58276025D01*
X202240866Y-58144915D01*
X202301209Y-57999233D01*
X202331972Y-57844578D01*
X202331972Y-57686894D01*
X202331972Y-57686891D01*
X202321323Y-57633358D01*
X202321323Y-57633357D01*
X202317722Y-57615253D01*
X202951672Y-57615253D01*
X202951672Y-57772946D01*
X202982433Y-57927589D01*
X202982436Y-57927601D01*
X203042774Y-58073272D01*
X203042781Y-58073285D01*
X203130382Y-58204388D01*
X203130385Y-58204392D01*
X203241879Y-58315886D01*
X203241883Y-58315889D01*
X203372986Y-58403490D01*
X203372999Y-58403497D01*
X203453884Y-58437000D01*
X203518675Y-58463837D01*
X203673325Y-58494599D01*
X203673328Y-58494600D01*
X203673330Y-58494600D01*
X203831016Y-58494600D01*
X203831017Y-58494599D01*
X203985669Y-58463837D01*
X204131351Y-58403494D01*
X204262461Y-58315889D01*
X204373961Y-58204389D01*
X204461566Y-58073279D01*
X204521909Y-57927597D01*
X204523191Y-57921153D01*
X207199500Y-57921153D01*
X207199500Y-58078846D01*
X207230261Y-58233489D01*
X207230264Y-58233501D01*
X207290602Y-58379172D01*
X207290609Y-58379185D01*
X207378210Y-58510288D01*
X207378213Y-58510292D01*
X207489707Y-58621786D01*
X207489711Y-58621789D01*
X207620814Y-58709390D01*
X207620827Y-58709397D01*
X207739850Y-58758697D01*
X207766503Y-58769737D01*
X207921153Y-58800499D01*
X207921156Y-58800500D01*
X207921158Y-58800500D01*
X208078844Y-58800500D01*
X208078845Y-58800499D01*
X208233497Y-58769737D01*
X208379179Y-58709394D01*
X208510289Y-58621789D01*
X208621789Y-58510289D01*
X208709394Y-58379179D01*
X208769737Y-58233497D01*
X208800500Y-58078842D01*
X208800500Y-57921158D01*
X208800500Y-57921155D01*
X208800499Y-57921153D01*
X208785268Y-57844582D01*
X208769737Y-57766503D01*
X208766553Y-57758817D01*
X208709397Y-57620827D01*
X208709390Y-57620814D01*
X208621789Y-57489711D01*
X208621786Y-57489707D01*
X208510292Y-57378213D01*
X208510288Y-57378210D01*
X208379185Y-57290609D01*
X208379172Y-57290602D01*
X208233501Y-57230264D01*
X208233489Y-57230261D01*
X208078845Y-57199500D01*
X208078842Y-57199500D01*
X207921158Y-57199500D01*
X207921155Y-57199500D01*
X207766510Y-57230261D01*
X207766498Y-57230264D01*
X207620827Y-57290602D01*
X207620814Y-57290609D01*
X207489711Y-57378210D01*
X207489707Y-57378213D01*
X207378213Y-57489707D01*
X207378210Y-57489711D01*
X207290609Y-57620814D01*
X207290602Y-57620827D01*
X207230264Y-57766498D01*
X207230261Y-57766510D01*
X207199500Y-57921153D01*
X204523191Y-57921153D01*
X204531540Y-57879179D01*
X204552672Y-57772944D01*
X204552672Y-57615255D01*
X204552671Y-57615253D01*
X204526505Y-57483708D01*
X204521909Y-57460603D01*
X204512844Y-57438718D01*
X204461569Y-57314927D01*
X204461562Y-57314914D01*
X204373961Y-57183811D01*
X204373958Y-57183807D01*
X204262464Y-57072313D01*
X204262460Y-57072310D01*
X204131357Y-56984709D01*
X204131344Y-56984702D01*
X203985673Y-56924364D01*
X203985661Y-56924361D01*
X203831017Y-56893600D01*
X203831014Y-56893600D01*
X203673330Y-56893600D01*
X203673327Y-56893600D01*
X203518682Y-56924361D01*
X203518670Y-56924364D01*
X203372999Y-56984702D01*
X203372986Y-56984709D01*
X203241883Y-57072310D01*
X203241879Y-57072313D01*
X203130385Y-57183807D01*
X203130382Y-57183811D01*
X203042781Y-57314914D01*
X203042774Y-57314927D01*
X202982436Y-57460598D01*
X202982433Y-57460610D01*
X202951672Y-57615253D01*
X202317722Y-57615253D01*
X202301210Y-57532246D01*
X202301209Y-57532239D01*
X202301207Y-57532234D01*
X202240869Y-57386563D01*
X202240862Y-57386550D01*
X202153261Y-57255447D01*
X202153258Y-57255443D01*
X202041764Y-57143949D01*
X202041760Y-57143946D01*
X201910657Y-57056345D01*
X201910644Y-57056338D01*
X201764973Y-56996000D01*
X201764961Y-56995997D01*
X201610317Y-56965236D01*
X201610314Y-56965236D01*
X201452630Y-56965236D01*
X201452627Y-56965236D01*
X201297982Y-56995997D01*
X201297970Y-56996000D01*
X201152299Y-57056338D01*
X201152286Y-57056345D01*
X201021183Y-57143946D01*
X201021179Y-57143949D01*
X200909685Y-57255443D01*
X200909682Y-57255447D01*
X200822081Y-57386550D01*
X200822074Y-57386563D01*
X200761736Y-57532234D01*
X200761733Y-57532246D01*
X200730972Y-57686889D01*
X196000000Y-57686889D01*
X196000000Y-56421153D01*
X212199500Y-56421153D01*
X212199500Y-56578846D01*
X212230261Y-56733489D01*
X212230264Y-56733501D01*
X212290602Y-56879172D01*
X212290609Y-56879185D01*
X212378210Y-57010288D01*
X212378213Y-57010292D01*
X212489707Y-57121786D01*
X212489711Y-57121789D01*
X212620814Y-57209390D01*
X212620827Y-57209397D01*
X212758683Y-57266498D01*
X212766503Y-57269737D01*
X212921153Y-57300499D01*
X212921156Y-57300500D01*
X212921158Y-57300500D01*
X213078844Y-57300500D01*
X213078845Y-57300499D01*
X213233497Y-57269737D01*
X213379179Y-57209394D01*
X213510289Y-57121789D01*
X213621789Y-57010289D01*
X213709394Y-56879179D01*
X213769737Y-56733497D01*
X213800500Y-56578842D01*
X213800500Y-56421158D01*
X213800500Y-56421155D01*
X213800499Y-56421153D01*
X213776499Y-56300499D01*
X213769737Y-56266503D01*
X213759815Y-56242548D01*
X213742681Y-56201183D01*
X215003409Y-56201183D01*
X215003409Y-56358876D01*
X215034170Y-56513519D01*
X215034173Y-56513531D01*
X215094511Y-56659202D01*
X215094518Y-56659215D01*
X215182119Y-56790318D01*
X215182122Y-56790322D01*
X215293616Y-56901816D01*
X215293620Y-56901819D01*
X215424723Y-56989420D01*
X215424736Y-56989427D01*
X215510691Y-57025030D01*
X215570412Y-57049767D01*
X215683743Y-57072310D01*
X215725062Y-57080529D01*
X215725065Y-57080530D01*
X215725067Y-57080530D01*
X215882753Y-57080530D01*
X215882754Y-57080529D01*
X216037406Y-57049767D01*
X216167212Y-56996000D01*
X216183081Y-56989427D01*
X216183081Y-56989426D01*
X216183088Y-56989424D01*
X216314198Y-56901819D01*
X216425698Y-56790319D01*
X216513303Y-56659209D01*
X216573646Y-56513527D01*
X216582051Y-56471274D01*
X216589089Y-56435894D01*
X217184759Y-56435894D01*
X217184759Y-56593587D01*
X217215520Y-56748230D01*
X217215523Y-56748242D01*
X217275861Y-56893913D01*
X217275868Y-56893926D01*
X217363469Y-57025029D01*
X217363472Y-57025033D01*
X217474966Y-57136527D01*
X217474970Y-57136530D01*
X217606073Y-57224131D01*
X217606086Y-57224138D01*
X217751757Y-57284476D01*
X217751762Y-57284478D01*
X217904773Y-57314914D01*
X217906412Y-57315240D01*
X217906415Y-57315241D01*
X218070193Y-57315241D01*
X218070193Y-57316615D01*
X218131986Y-57328331D01*
X218182699Y-57376393D01*
X218199500Y-57438718D01*
X218199500Y-57578846D01*
X218230261Y-57733489D01*
X218230264Y-57733501D01*
X218290602Y-57879172D01*
X218290609Y-57879185D01*
X218378210Y-58010288D01*
X218378213Y-58010292D01*
X218489707Y-58121786D01*
X218489711Y-58121789D01*
X218621574Y-58209898D01*
X218666379Y-58263510D01*
X218675086Y-58332835D01*
X218644931Y-58395863D01*
X218585488Y-58432582D01*
X218552683Y-58437000D01*
X218421155Y-58437000D01*
X218266510Y-58467761D01*
X218266498Y-58467764D01*
X218120827Y-58528102D01*
X218120814Y-58528109D01*
X217989711Y-58615710D01*
X217989707Y-58615713D01*
X217878213Y-58727207D01*
X217878210Y-58727211D01*
X217790609Y-58858314D01*
X217790602Y-58858327D01*
X217730264Y-59003998D01*
X217730261Y-59004010D01*
X217699500Y-59158653D01*
X217699500Y-59316346D01*
X217730261Y-59470989D01*
X217730264Y-59471001D01*
X217790602Y-59616672D01*
X217790609Y-59616685D01*
X217878210Y-59747788D01*
X217878213Y-59747792D01*
X217989707Y-59859286D01*
X217989711Y-59859289D01*
X218120814Y-59946890D01*
X218120827Y-59946897D01*
X218266498Y-60007235D01*
X218266503Y-60007237D01*
X218421153Y-60037999D01*
X218421156Y-60038000D01*
X218421158Y-60038000D01*
X218578844Y-60038000D01*
X218578845Y-60037999D01*
X218733497Y-60007237D01*
X218879179Y-59946894D01*
X219010289Y-59859289D01*
X219121789Y-59747789D01*
X219209394Y-59616679D01*
X219269737Y-59470997D01*
X219300500Y-59316342D01*
X219300500Y-59158658D01*
X219300500Y-59158655D01*
X219300499Y-59158653D01*
X219291218Y-59111993D01*
X219269737Y-59004003D01*
X219263817Y-58989711D01*
X219209397Y-58858327D01*
X219209390Y-58858314D01*
X219121789Y-58727211D01*
X219121786Y-58727207D01*
X219010292Y-58615713D01*
X219010288Y-58615710D01*
X218878426Y-58527602D01*
X218833621Y-58473990D01*
X218824914Y-58404665D01*
X218855069Y-58341637D01*
X218914512Y-58304918D01*
X218947317Y-58300500D01*
X219078844Y-58300500D01*
X219078845Y-58300499D01*
X219233497Y-58269737D01*
X219248769Y-58263411D01*
X220296462Y-58263411D01*
X220296462Y-58421104D01*
X220327223Y-58575747D01*
X220327226Y-58575759D01*
X220387564Y-58721430D01*
X220387571Y-58721443D01*
X220475172Y-58852546D01*
X220475175Y-58852550D01*
X220586669Y-58964044D01*
X220586673Y-58964047D01*
X220717776Y-59051648D01*
X220717789Y-59051655D01*
X220863460Y-59111993D01*
X220863465Y-59111995D01*
X221017296Y-59142594D01*
X221018115Y-59142757D01*
X221018118Y-59142758D01*
X221018120Y-59142758D01*
X221175806Y-59142758D01*
X221175807Y-59142757D01*
X221330459Y-59111995D01*
X221476141Y-59051652D01*
X221584907Y-58978976D01*
X221614840Y-58969603D01*
X221644170Y-58958453D01*
X221647923Y-58959244D01*
X221651583Y-58958099D01*
X221681836Y-58966398D01*
X221712536Y-58972874D01*
X221716681Y-58975957D01*
X221718963Y-58976583D01*
X221740923Y-58993846D01*
X221741241Y-58994160D01*
X221749477Y-59002396D01*
X221749800Y-59002612D01*
X221754152Y-59006909D01*
X221768426Y-59032663D01*
X221785013Y-59056997D01*
X221785172Y-59062875D01*
X221788023Y-59068019D01*
X221786108Y-59097401D01*
X221786906Y-59126841D01*
X221783539Y-59136811D01*
X221783479Y-59137741D01*
X221783012Y-59138372D01*
X221781587Y-59142594D01*
X221730264Y-59266498D01*
X221730261Y-59266510D01*
X221699500Y-59421153D01*
X221699500Y-59578846D01*
X221730261Y-59733489D01*
X221730264Y-59733501D01*
X221790602Y-59879172D01*
X221790609Y-59879185D01*
X221878210Y-60010288D01*
X221878213Y-60010292D01*
X221989707Y-60121786D01*
X221989711Y-60121789D01*
X222120814Y-60209390D01*
X222120827Y-60209397D01*
X222266498Y-60269735D01*
X222266503Y-60269737D01*
X222421153Y-60300499D01*
X222421156Y-60300500D01*
X222421158Y-60300500D01*
X222578844Y-60300500D01*
X222578845Y-60300499D01*
X222733497Y-60269737D01*
X222879179Y-60209394D01*
X223010289Y-60121789D01*
X223121789Y-60010289D01*
X223209394Y-59879179D01*
X223269737Y-59733497D01*
X223300500Y-59578842D01*
X223300500Y-59421158D01*
X223300499Y-59421155D01*
X223300121Y-59419251D01*
X223300121Y-59419248D01*
X223296522Y-59401153D01*
X223699500Y-59401153D01*
X223699500Y-59558846D01*
X223730261Y-59713489D01*
X223730264Y-59713501D01*
X223790602Y-59859172D01*
X223790609Y-59859185D01*
X223878210Y-59990288D01*
X223878213Y-59990292D01*
X223989707Y-60101786D01*
X223989711Y-60101789D01*
X224120814Y-60189390D01*
X224120827Y-60189397D01*
X224263521Y-60248502D01*
X224266503Y-60249737D01*
X224394393Y-60275176D01*
X224421153Y-60280499D01*
X224421156Y-60280500D01*
X224421158Y-60280500D01*
X224578844Y-60280500D01*
X224636914Y-60268949D01*
X224706506Y-60275176D01*
X224761683Y-60318039D01*
X224775667Y-60343114D01*
X224790602Y-60379172D01*
X224790609Y-60379185D01*
X224878210Y-60510288D01*
X224878213Y-60510292D01*
X224989707Y-60621786D01*
X224989711Y-60621789D01*
X225120814Y-60709390D01*
X225120827Y-60709397D01*
X225266498Y-60769735D01*
X225266503Y-60769737D01*
X225421153Y-60800499D01*
X225421156Y-60800500D01*
X225421158Y-60800500D01*
X225578844Y-60800500D01*
X225578845Y-60800499D01*
X225733497Y-60769737D01*
X225879179Y-60709394D01*
X226010289Y-60621789D01*
X226121789Y-60510289D01*
X226209394Y-60379179D01*
X226269737Y-60233497D01*
X226300500Y-60078842D01*
X226300500Y-59921158D01*
X226300500Y-59921155D01*
X226300499Y-59921153D01*
X226288173Y-59859185D01*
X226269737Y-59766503D01*
X226261987Y-59747792D01*
X226209397Y-59620827D01*
X226209390Y-59620814D01*
X226121790Y-59489712D01*
X226121784Y-59489705D01*
X226053232Y-59421153D01*
X233199500Y-59421153D01*
X233199500Y-59578846D01*
X233230261Y-59733489D01*
X233230264Y-59733501D01*
X233290602Y-59879172D01*
X233290609Y-59879185D01*
X233378210Y-60010288D01*
X233378213Y-60010292D01*
X233489707Y-60121786D01*
X233489711Y-60121789D01*
X233620814Y-60209390D01*
X233620827Y-60209397D01*
X233766498Y-60269735D01*
X233766503Y-60269737D01*
X233921153Y-60300499D01*
X233921156Y-60300500D01*
X233921158Y-60300500D01*
X234078844Y-60300500D01*
X234078845Y-60300499D01*
X234233497Y-60269737D01*
X234379179Y-60209394D01*
X234510289Y-60121789D01*
X234621789Y-60010289D01*
X234709394Y-59879179D01*
X234769737Y-59733497D01*
X234800500Y-59578842D01*
X234800500Y-59421158D01*
X234800500Y-59421156D01*
X234800500Y-59421155D01*
X234800499Y-59421153D01*
X234779651Y-59316344D01*
X234769737Y-59266503D01*
X234755237Y-59231497D01*
X234709397Y-59120827D01*
X234709390Y-59120814D01*
X234621789Y-58989711D01*
X234621786Y-58989707D01*
X234510292Y-58878213D01*
X234510288Y-58878210D01*
X234379185Y-58790609D01*
X234379172Y-58790602D01*
X234233501Y-58730264D01*
X234233489Y-58730261D01*
X234078845Y-58699500D01*
X234078842Y-58699500D01*
X233921158Y-58699500D01*
X233921155Y-58699500D01*
X233766510Y-58730261D01*
X233766498Y-58730264D01*
X233620827Y-58790602D01*
X233620814Y-58790609D01*
X233489711Y-58878210D01*
X233489707Y-58878213D01*
X233378213Y-58989707D01*
X233378210Y-58989711D01*
X233290609Y-59120814D01*
X233290602Y-59120827D01*
X233230264Y-59266498D01*
X233230261Y-59266510D01*
X233199500Y-59421153D01*
X226053232Y-59421153D01*
X226010292Y-59378213D01*
X226010288Y-59378210D01*
X225879185Y-59290609D01*
X225879172Y-59290602D01*
X225733501Y-59230264D01*
X225733489Y-59230261D01*
X225578845Y-59199500D01*
X225578842Y-59199500D01*
X225421158Y-59199500D01*
X225421157Y-59199500D01*
X225363082Y-59211051D01*
X225293491Y-59204822D01*
X225238314Y-59161958D01*
X225224332Y-59136885D01*
X225220172Y-59126841D01*
X225209394Y-59100821D01*
X225209392Y-59100819D01*
X225209392Y-59100817D01*
X225121789Y-58969711D01*
X225121786Y-58969707D01*
X225010292Y-58858213D01*
X225010288Y-58858210D01*
X224879185Y-58770609D01*
X224879172Y-58770602D01*
X224733501Y-58710264D01*
X224733489Y-58710261D01*
X224578845Y-58679500D01*
X224578842Y-58679500D01*
X224421158Y-58679500D01*
X224421155Y-58679500D01*
X224266510Y-58710261D01*
X224266498Y-58710264D01*
X224120827Y-58770602D01*
X224120814Y-58770609D01*
X223989711Y-58858210D01*
X223989707Y-58858213D01*
X223878213Y-58969707D01*
X223878210Y-58969711D01*
X223790609Y-59100814D01*
X223790602Y-59100827D01*
X223730264Y-59246498D01*
X223730261Y-59246510D01*
X223699500Y-59401153D01*
X223296522Y-59401153D01*
X223269738Y-59266508D01*
X223269737Y-59266507D01*
X223269737Y-59266503D01*
X223255237Y-59231497D01*
X223209397Y-59120827D01*
X223209390Y-59120814D01*
X223121789Y-58989711D01*
X223121786Y-58989707D01*
X223005982Y-58873903D01*
X223007786Y-58872098D01*
X222974728Y-58823532D01*
X222972881Y-58753687D01*
X222978179Y-58738011D01*
X223029503Y-58614104D01*
X223060266Y-58459449D01*
X223060266Y-58301765D01*
X223060266Y-58301762D01*
X223060265Y-58301760D01*
X223060014Y-58300499D01*
X223029503Y-58147110D01*
X223019014Y-58121786D01*
X222969163Y-58001434D01*
X222969156Y-58001421D01*
X222881555Y-57870318D01*
X222881552Y-57870314D01*
X222770058Y-57758820D01*
X222770054Y-57758817D01*
X222638951Y-57671216D01*
X222638938Y-57671209D01*
X222493267Y-57610871D01*
X222493255Y-57610868D01*
X222338611Y-57580107D01*
X222338608Y-57580107D01*
X222180924Y-57580107D01*
X222180921Y-57580107D01*
X222026276Y-57610868D01*
X222026264Y-57610871D01*
X221880593Y-57671209D01*
X221880575Y-57671219D01*
X221771820Y-57743887D01*
X221705143Y-57764765D01*
X221637763Y-57746280D01*
X221615249Y-57728466D01*
X221607254Y-57720471D01*
X221607250Y-57720468D01*
X221476147Y-57632867D01*
X221476134Y-57632860D01*
X221330463Y-57572522D01*
X221330451Y-57572519D01*
X221175807Y-57541758D01*
X221175804Y-57541758D01*
X221018120Y-57541758D01*
X221018117Y-57541758D01*
X220863472Y-57572519D01*
X220863460Y-57572522D01*
X220717789Y-57632860D01*
X220717776Y-57632867D01*
X220586673Y-57720468D01*
X220586669Y-57720471D01*
X220475175Y-57831965D01*
X220475172Y-57831969D01*
X220387571Y-57963072D01*
X220387564Y-57963085D01*
X220327226Y-58108756D01*
X220327223Y-58108768D01*
X220296462Y-58263411D01*
X219248769Y-58263411D01*
X219379179Y-58209394D01*
X219386671Y-58204388D01*
X219461750Y-58154222D01*
X219510289Y-58121789D01*
X219621786Y-58010292D01*
X219621789Y-58010289D01*
X219709394Y-57879179D01*
X219769737Y-57733497D01*
X219800500Y-57578842D01*
X219800500Y-57421158D01*
X219800500Y-57421155D01*
X219800499Y-57421153D01*
X219769737Y-57266503D01*
X219769735Y-57266498D01*
X219709397Y-57120827D01*
X219709390Y-57120814D01*
X219621789Y-56989711D01*
X219621786Y-56989707D01*
X219510292Y-56878213D01*
X219510288Y-56878210D01*
X219379185Y-56790609D01*
X219379172Y-56790602D01*
X219233501Y-56730264D01*
X219233489Y-56730261D01*
X219078845Y-56699500D01*
X219078842Y-56699500D01*
X218921158Y-56699500D01*
X218915066Y-56699500D01*
X218915066Y-56698129D01*
X218853253Y-56686399D01*
X218802549Y-56638327D01*
X218785759Y-56576022D01*
X218785759Y-56435896D01*
X218785758Y-56435894D01*
X218770508Y-56359229D01*
X218754996Y-56281244D01*
X218738968Y-56242548D01*
X218694656Y-56135568D01*
X218694646Y-56135550D01*
X218677367Y-56109690D01*
X218677366Y-56109689D01*
X218635401Y-56046885D01*
X225833728Y-56046885D01*
X225833728Y-56204578D01*
X225864489Y-56359221D01*
X225864492Y-56359233D01*
X225924830Y-56504904D01*
X225924837Y-56504917D01*
X225962444Y-56561199D01*
X225983322Y-56627876D01*
X225973904Y-56677542D01*
X225948064Y-56739924D01*
X225917303Y-56894572D01*
X225917303Y-57052265D01*
X225948064Y-57206908D01*
X225948067Y-57206920D01*
X226008405Y-57352591D01*
X226008412Y-57352604D01*
X226096013Y-57483707D01*
X226096016Y-57483711D01*
X226207510Y-57595205D01*
X226207514Y-57595208D01*
X226338617Y-57682809D01*
X226338630Y-57682816D01*
X226484301Y-57743154D01*
X226484306Y-57743156D01*
X226638956Y-57773918D01*
X226638959Y-57773919D01*
X226638961Y-57773919D01*
X226796647Y-57773919D01*
X226796648Y-57773918D01*
X226951300Y-57743156D01*
X227096982Y-57682813D01*
X227228092Y-57595208D01*
X227339592Y-57483708D01*
X227427197Y-57352598D01*
X227487540Y-57206916D01*
X227518303Y-57052261D01*
X227518303Y-56894577D01*
X227518303Y-56894574D01*
X227518302Y-56894572D01*
X227497622Y-56790609D01*
X227487540Y-56739922D01*
X227461702Y-56677542D01*
X227427200Y-56594246D01*
X227427198Y-56594242D01*
X227427197Y-56594240D01*
X227389586Y-56537951D01*
X227368708Y-56471274D01*
X227378127Y-56421607D01*
X227378313Y-56421158D01*
X227403965Y-56359229D01*
X227434728Y-56204574D01*
X227434728Y-56046890D01*
X227434728Y-56046887D01*
X227434727Y-56046885D01*
X227427448Y-56010292D01*
X227403965Y-55892235D01*
X227398156Y-55878210D01*
X227343625Y-55746559D01*
X227343618Y-55746546D01*
X227256017Y-55615443D01*
X227256014Y-55615439D01*
X227195324Y-55554749D01*
X227161839Y-55493426D01*
X227166823Y-55423734D01*
X227208695Y-55367801D01*
X227214115Y-55363965D01*
X227244911Y-55343388D01*
X227356411Y-55231888D01*
X227444016Y-55100778D01*
X227504359Y-54955096D01*
X227535122Y-54800441D01*
X227535122Y-54642757D01*
X227535122Y-54642754D01*
X227535121Y-54642752D01*
X227529061Y-54612287D01*
X227504359Y-54488102D01*
X227446004Y-54347219D01*
X227444019Y-54342426D01*
X227444012Y-54342413D01*
X227356411Y-54211310D01*
X227356408Y-54211306D01*
X227244914Y-54099812D01*
X227244910Y-54099809D01*
X227113807Y-54012208D01*
X227113794Y-54012201D01*
X226968123Y-53951863D01*
X226968111Y-53951860D01*
X226813467Y-53921099D01*
X226813464Y-53921099D01*
X226655780Y-53921099D01*
X226655777Y-53921099D01*
X226501132Y-53951860D01*
X226501120Y-53951863D01*
X226355449Y-54012201D01*
X226355436Y-54012208D01*
X226224333Y-54099809D01*
X226224329Y-54099812D01*
X226112835Y-54211306D01*
X226112832Y-54211310D01*
X226025231Y-54342413D01*
X226025224Y-54342426D01*
X225964886Y-54488097D01*
X225964883Y-54488109D01*
X225934122Y-54642752D01*
X225934122Y-54800445D01*
X225964883Y-54955088D01*
X225964886Y-54955100D01*
X226025224Y-55100771D01*
X226025231Y-55100784D01*
X226112832Y-55231887D01*
X226112835Y-55231891D01*
X226173525Y-55292581D01*
X226207010Y-55353904D01*
X226202026Y-55423596D01*
X226160154Y-55479529D01*
X226154738Y-55483362D01*
X226123940Y-55503941D01*
X226123935Y-55503945D01*
X226012441Y-55615439D01*
X226012438Y-55615443D01*
X225924837Y-55746546D01*
X225924830Y-55746559D01*
X225864492Y-55892230D01*
X225864489Y-55892242D01*
X225833728Y-56046885D01*
X218635401Y-56046885D01*
X218607048Y-56004452D01*
X218607045Y-56004448D01*
X218495551Y-55892954D01*
X218495547Y-55892951D01*
X218364444Y-55805350D01*
X218364431Y-55805343D01*
X218218760Y-55745005D01*
X218218748Y-55745002D01*
X218064104Y-55714241D01*
X218064101Y-55714241D01*
X217906417Y-55714241D01*
X217906414Y-55714241D01*
X217751769Y-55745002D01*
X217751757Y-55745005D01*
X217606086Y-55805343D01*
X217606073Y-55805350D01*
X217474970Y-55892951D01*
X217474966Y-55892954D01*
X217363472Y-56004448D01*
X217363469Y-56004452D01*
X217275868Y-56135555D01*
X217275861Y-56135568D01*
X217215523Y-56281239D01*
X217215520Y-56281251D01*
X217184759Y-56435894D01*
X216589089Y-56435894D01*
X216595112Y-56405615D01*
X216595112Y-56405614D01*
X216604338Y-56359229D01*
X216604409Y-56358872D01*
X216604409Y-56201188D01*
X216604409Y-56201185D01*
X216604408Y-56201183D01*
X216588423Y-56120821D01*
X216573646Y-56046533D01*
X216558635Y-56010292D01*
X216513306Y-55900857D01*
X216513299Y-55900844D01*
X216425698Y-55769741D01*
X216425695Y-55769737D01*
X216314201Y-55658243D01*
X216314197Y-55658240D01*
X216183094Y-55570639D01*
X216183081Y-55570632D01*
X216037410Y-55510294D01*
X216037398Y-55510291D01*
X215882754Y-55479530D01*
X215882751Y-55479530D01*
X215725067Y-55479530D01*
X215725064Y-55479530D01*
X215570419Y-55510291D01*
X215570407Y-55510294D01*
X215424736Y-55570632D01*
X215424723Y-55570639D01*
X215293620Y-55658240D01*
X215293616Y-55658243D01*
X215182122Y-55769737D01*
X215182119Y-55769741D01*
X215094518Y-55900844D01*
X215094511Y-55900857D01*
X215034173Y-56046528D01*
X215034170Y-56046540D01*
X215003409Y-56201183D01*
X213742681Y-56201183D01*
X213709397Y-56120827D01*
X213709390Y-56120814D01*
X213621789Y-55989711D01*
X213621786Y-55989707D01*
X213510292Y-55878213D01*
X213510288Y-55878210D01*
X213379185Y-55790609D01*
X213379172Y-55790602D01*
X213233501Y-55730264D01*
X213233489Y-55730261D01*
X213078845Y-55699500D01*
X213078842Y-55699500D01*
X212921158Y-55699500D01*
X212921155Y-55699500D01*
X212766510Y-55730261D01*
X212766498Y-55730264D01*
X212620827Y-55790602D01*
X212620814Y-55790609D01*
X212489711Y-55878210D01*
X212489707Y-55878213D01*
X212378213Y-55989707D01*
X212378210Y-55989711D01*
X212290609Y-56120814D01*
X212290602Y-56120827D01*
X212230264Y-56266498D01*
X212230261Y-56266510D01*
X212199500Y-56421153D01*
X196000000Y-56421153D01*
X196000000Y-54921153D01*
X207705293Y-54921153D01*
X207705293Y-55078846D01*
X207736054Y-55233489D01*
X207736057Y-55233501D01*
X207796395Y-55379172D01*
X207796402Y-55379185D01*
X207884003Y-55510288D01*
X207884006Y-55510292D01*
X207995500Y-55621786D01*
X207995504Y-55621789D01*
X208126607Y-55709390D01*
X208126620Y-55709397D01*
X208272291Y-55769735D01*
X208272296Y-55769737D01*
X208426946Y-55800499D01*
X208426949Y-55800500D01*
X208426951Y-55800500D01*
X208584637Y-55800500D01*
X208584638Y-55800499D01*
X208739290Y-55769737D01*
X208884972Y-55709394D01*
X209016082Y-55621789D01*
X209127582Y-55510289D01*
X209215187Y-55379179D01*
X209275530Y-55233497D01*
X209306293Y-55078842D01*
X209306293Y-54921158D01*
X209306293Y-54921155D01*
X209306292Y-54921153D01*
X209296711Y-54872987D01*
X209275530Y-54766503D01*
X209261855Y-54733489D01*
X209215190Y-54620827D01*
X209215183Y-54620814D01*
X209127583Y-54489712D01*
X209127577Y-54489705D01*
X209059025Y-54421153D01*
X217699500Y-54421153D01*
X217699500Y-54578846D01*
X217730261Y-54733489D01*
X217730264Y-54733501D01*
X217790602Y-54879172D01*
X217790609Y-54879185D01*
X217878210Y-55010288D01*
X217878213Y-55010292D01*
X217989707Y-55121786D01*
X217989711Y-55121789D01*
X218120814Y-55209390D01*
X218120827Y-55209397D01*
X218258683Y-55266498D01*
X218266503Y-55269737D01*
X218381347Y-55292581D01*
X218421153Y-55300499D01*
X218421156Y-55300500D01*
X218421158Y-55300500D01*
X218578844Y-55300500D01*
X218578845Y-55300499D01*
X218733497Y-55269737D01*
X218879179Y-55209394D01*
X219010289Y-55121789D01*
X219121789Y-55010289D01*
X219209394Y-54879179D01*
X219269737Y-54733497D01*
X219300500Y-54578842D01*
X219300500Y-54421158D01*
X219300500Y-54421155D01*
X219300499Y-54421153D01*
X221949500Y-54421153D01*
X221949500Y-54578846D01*
X221980261Y-54733489D01*
X221980264Y-54733501D01*
X222040602Y-54879172D01*
X222040609Y-54879185D01*
X222128210Y-55010288D01*
X222128213Y-55010292D01*
X222239707Y-55121786D01*
X222239711Y-55121789D01*
X222370814Y-55209390D01*
X222370827Y-55209397D01*
X222508683Y-55266498D01*
X222516503Y-55269737D01*
X222631347Y-55292581D01*
X222671153Y-55300499D01*
X222671156Y-55300500D01*
X222671158Y-55300500D01*
X222828844Y-55300500D01*
X222828845Y-55300499D01*
X222983497Y-55269737D01*
X223129179Y-55209394D01*
X223260289Y-55121789D01*
X223371789Y-55010289D01*
X223459394Y-54879179D01*
X223519737Y-54733497D01*
X223550500Y-54578842D01*
X223550500Y-54421158D01*
X223550500Y-54421155D01*
X223550499Y-54421153D01*
X223540191Y-54369331D01*
X223519737Y-54266503D01*
X223505371Y-54231819D01*
X223459397Y-54120827D01*
X223459390Y-54120814D01*
X223371789Y-53989711D01*
X223371786Y-53989707D01*
X223260292Y-53878213D01*
X223260288Y-53878210D01*
X223129185Y-53790609D01*
X223129172Y-53790602D01*
X222983501Y-53730264D01*
X222983489Y-53730261D01*
X222828845Y-53699500D01*
X222828842Y-53699500D01*
X222671158Y-53699500D01*
X222671155Y-53699500D01*
X222516510Y-53730261D01*
X222516498Y-53730264D01*
X222370827Y-53790602D01*
X222370814Y-53790609D01*
X222239711Y-53878210D01*
X222239707Y-53878213D01*
X222128213Y-53989707D01*
X222128210Y-53989711D01*
X222040609Y-54120814D01*
X222040602Y-54120827D01*
X221980264Y-54266498D01*
X221980261Y-54266510D01*
X221949500Y-54421153D01*
X219300499Y-54421153D01*
X219290191Y-54369331D01*
X219269737Y-54266503D01*
X219255371Y-54231819D01*
X219209397Y-54120827D01*
X219209390Y-54120814D01*
X219121789Y-53989711D01*
X219121786Y-53989707D01*
X219010297Y-53878218D01*
X219010291Y-53878213D01*
X219010289Y-53878211D01*
X219010286Y-53878209D01*
X219008625Y-53876846D01*
X219007983Y-53875904D01*
X219005982Y-53873903D01*
X219006361Y-53873523D01*
X218969288Y-53819102D01*
X218967415Y-53749257D01*
X219003599Y-53689487D01*
X219012098Y-53682824D01*
X219012092Y-53682817D01*
X219016796Y-53678955D01*
X219016800Y-53678953D01*
X219128300Y-53567453D01*
X219215905Y-53436343D01*
X219276248Y-53290661D01*
X219307011Y-53136006D01*
X219307011Y-52978322D01*
X219307011Y-52978319D01*
X219307010Y-52978317D01*
X219302000Y-52953129D01*
X219276248Y-52823667D01*
X219253909Y-52769735D01*
X219215908Y-52677991D01*
X219215901Y-52677978D01*
X219128300Y-52546875D01*
X219128297Y-52546871D01*
X219016803Y-52435377D01*
X219016799Y-52435374D01*
X218885696Y-52347773D01*
X218885683Y-52347766D01*
X218740012Y-52287428D01*
X218740000Y-52287425D01*
X218585356Y-52256664D01*
X218585353Y-52256664D01*
X218427669Y-52256664D01*
X218427666Y-52256664D01*
X218273021Y-52287425D01*
X218273009Y-52287428D01*
X218127338Y-52347766D01*
X218127325Y-52347773D01*
X217996222Y-52435374D01*
X217996218Y-52435377D01*
X217884724Y-52546871D01*
X217884721Y-52546875D01*
X217797120Y-52677978D01*
X217797113Y-52677991D01*
X217736775Y-52823662D01*
X217736772Y-52823674D01*
X217706011Y-52978317D01*
X217706011Y-53136010D01*
X217736772Y-53290653D01*
X217736775Y-53290665D01*
X217797113Y-53436336D01*
X217797120Y-53436349D01*
X217884721Y-53567452D01*
X217884724Y-53567456D01*
X217996216Y-53678948D01*
X217997883Y-53680316D01*
X217998522Y-53681254D01*
X218000529Y-53683261D01*
X218000148Y-53683641D01*
X218037221Y-53738059D01*
X218039096Y-53807904D01*
X218002912Y-53867674D01*
X217994412Y-53874339D01*
X217994419Y-53874347D01*
X217989707Y-53878213D01*
X217878213Y-53989707D01*
X217878210Y-53989711D01*
X217790609Y-54120814D01*
X217790602Y-54120827D01*
X217730264Y-54266498D01*
X217730261Y-54266510D01*
X217699500Y-54421153D01*
X209059025Y-54421153D01*
X209016085Y-54378213D01*
X209016081Y-54378210D01*
X208884978Y-54290609D01*
X208884965Y-54290602D01*
X208739294Y-54230264D01*
X208739282Y-54230261D01*
X208584638Y-54199500D01*
X208584635Y-54199500D01*
X208426951Y-54199500D01*
X208426948Y-54199500D01*
X208272303Y-54230261D01*
X208272291Y-54230264D01*
X208126620Y-54290602D01*
X208126607Y-54290609D01*
X207995504Y-54378210D01*
X207995500Y-54378213D01*
X207884006Y-54489707D01*
X207884003Y-54489711D01*
X207796402Y-54620814D01*
X207796395Y-54620827D01*
X207736057Y-54766498D01*
X207736054Y-54766510D01*
X207705293Y-54921153D01*
X196000000Y-54921153D01*
X196000000Y-51921153D01*
X209949500Y-51921153D01*
X209949500Y-52078846D01*
X209980261Y-52233489D01*
X209980264Y-52233501D01*
X210040602Y-52379172D01*
X210040609Y-52379185D01*
X210128210Y-52510288D01*
X210128213Y-52510292D01*
X210239707Y-52621786D01*
X210239711Y-52621789D01*
X210370814Y-52709390D01*
X210370827Y-52709397D01*
X210475357Y-52752694D01*
X210516503Y-52769737D01*
X210654583Y-52797203D01*
X210671153Y-52800499D01*
X210671156Y-52800500D01*
X210671158Y-52800500D01*
X210828844Y-52800500D01*
X210828845Y-52800499D01*
X210983497Y-52769737D01*
X211129179Y-52709394D01*
X211260289Y-52621789D01*
X211371789Y-52510289D01*
X211459394Y-52379179D01*
X211468462Y-52357288D01*
X211491984Y-52300499D01*
X211519737Y-52233497D01*
X211550500Y-52078842D01*
X211550500Y-51921158D01*
X211550500Y-51921155D01*
X211550499Y-51921153D01*
X211541957Y-51878210D01*
X211519737Y-51766503D01*
X211506062Y-51733489D01*
X211459397Y-51620827D01*
X211459390Y-51620814D01*
X211371790Y-51489712D01*
X211371784Y-51489705D01*
X211303232Y-51421153D01*
X215199500Y-51421153D01*
X215199500Y-51578846D01*
X215230261Y-51733489D01*
X215230264Y-51733501D01*
X215290602Y-51879172D01*
X215290609Y-51879185D01*
X215378210Y-52010288D01*
X215378213Y-52010292D01*
X215489707Y-52121786D01*
X215489711Y-52121789D01*
X215620814Y-52209390D01*
X215620827Y-52209397D01*
X215755513Y-52265185D01*
X215766503Y-52269737D01*
X215892402Y-52294780D01*
X215921153Y-52300499D01*
X215921156Y-52300500D01*
X215921158Y-52300500D01*
X216078844Y-52300500D01*
X216078845Y-52300499D01*
X216233497Y-52269737D01*
X216379179Y-52209394D01*
X216510289Y-52121789D01*
X216621789Y-52010289D01*
X216709394Y-51879179D01*
X216769737Y-51733497D01*
X216800500Y-51578842D01*
X216800500Y-51421158D01*
X216800500Y-51421155D01*
X216800499Y-51421153D01*
X216791957Y-51378210D01*
X216769737Y-51266503D01*
X216756062Y-51233489D01*
X216709397Y-51120827D01*
X216709390Y-51120814D01*
X216621789Y-50989711D01*
X216621786Y-50989707D01*
X216510292Y-50878213D01*
X216510288Y-50878210D01*
X216379185Y-50790609D01*
X216379172Y-50790602D01*
X216233501Y-50730264D01*
X216233489Y-50730261D01*
X216078845Y-50699500D01*
X216078842Y-50699500D01*
X215921158Y-50699500D01*
X215921155Y-50699500D01*
X215766510Y-50730261D01*
X215766498Y-50730264D01*
X215620827Y-50790602D01*
X215620814Y-50790609D01*
X215489711Y-50878210D01*
X215489707Y-50878213D01*
X215378213Y-50989707D01*
X215378210Y-50989711D01*
X215290609Y-51120814D01*
X215290602Y-51120827D01*
X215230264Y-51266498D01*
X215230261Y-51266510D01*
X215199500Y-51421153D01*
X211303232Y-51421153D01*
X211260292Y-51378213D01*
X211260288Y-51378210D01*
X211129185Y-51290609D01*
X211129172Y-51290602D01*
X210983501Y-51230264D01*
X210983489Y-51230261D01*
X210828845Y-51199500D01*
X210828842Y-51199500D01*
X210671158Y-51199500D01*
X210671155Y-51199500D01*
X210516510Y-51230261D01*
X210516498Y-51230264D01*
X210370827Y-51290602D01*
X210370814Y-51290609D01*
X210239711Y-51378210D01*
X210239707Y-51378213D01*
X210128213Y-51489707D01*
X210128210Y-51489711D01*
X210040609Y-51620814D01*
X210040602Y-51620827D01*
X209980264Y-51766498D01*
X209980261Y-51766510D01*
X209949500Y-51921153D01*
X196000000Y-51921153D01*
X196000000Y-50421153D01*
X216960244Y-50421153D01*
X216960244Y-50578846D01*
X216991005Y-50733489D01*
X216991008Y-50733501D01*
X217051346Y-50879172D01*
X217051353Y-50879185D01*
X217138954Y-51010288D01*
X217138957Y-51010292D01*
X217250451Y-51121786D01*
X217250455Y-51121789D01*
X217381558Y-51209390D01*
X217381571Y-51209397D01*
X217505111Y-51260568D01*
X217527247Y-51269737D01*
X217681897Y-51300499D01*
X217681900Y-51300500D01*
X217681902Y-51300500D01*
X217839588Y-51300500D01*
X217839589Y-51300499D01*
X217994241Y-51269737D01*
X218139923Y-51209394D01*
X218139928Y-51209390D01*
X218145298Y-51206521D01*
X218146239Y-51208282D01*
X218204146Y-51190134D01*
X218271531Y-51208601D01*
X218318235Y-51260568D01*
X218320953Y-51266661D01*
X218370198Y-51385551D01*
X218370203Y-51385560D01*
X218457804Y-51516663D01*
X218457807Y-51516667D01*
X218569301Y-51628161D01*
X218569305Y-51628164D01*
X218700408Y-51715765D01*
X218700421Y-51715772D01*
X218846092Y-51776110D01*
X218846097Y-51776112D01*
X218968698Y-51800499D01*
X219000747Y-51806874D01*
X219000750Y-51806875D01*
X219000752Y-51806875D01*
X219158438Y-51806875D01*
X219158439Y-51806874D01*
X219313091Y-51776112D01*
X219458773Y-51715769D01*
X219475675Y-51704474D01*
X219542352Y-51683596D01*
X219609732Y-51702080D01*
X219613438Y-51704461D01*
X219620821Y-51709394D01*
X219620823Y-51709395D01*
X219620825Y-51709396D01*
X219758712Y-51766510D01*
X219766503Y-51769737D01*
X219921153Y-51800499D01*
X219921156Y-51800500D01*
X219921158Y-51800500D01*
X220078844Y-51800500D01*
X220078845Y-51800499D01*
X220233497Y-51769737D01*
X220363781Y-51715772D01*
X220379172Y-51709397D01*
X220379172Y-51709396D01*
X220379179Y-51709394D01*
X220510289Y-51621789D01*
X220621789Y-51510289D01*
X220709394Y-51379179D01*
X220769737Y-51233497D01*
X220800500Y-51078842D01*
X220800500Y-50921158D01*
X220800500Y-50921155D01*
X220800499Y-50921153D01*
X220779087Y-50813508D01*
X220769737Y-50766503D01*
X220756062Y-50733489D01*
X220709397Y-50620827D01*
X220709390Y-50620814D01*
X220621790Y-50489712D01*
X220621784Y-50489705D01*
X220553232Y-50421153D01*
X221199500Y-50421153D01*
X221199500Y-50578846D01*
X221230261Y-50733489D01*
X221230264Y-50733501D01*
X221290602Y-50879172D01*
X221290609Y-50879185D01*
X221378210Y-51010288D01*
X221378213Y-51010292D01*
X221489707Y-51121786D01*
X221489711Y-51121789D01*
X221620814Y-51209390D01*
X221620827Y-51209397D01*
X221744367Y-51260568D01*
X221766503Y-51269737D01*
X221921153Y-51300499D01*
X221921156Y-51300500D01*
X221921158Y-51300500D01*
X222078844Y-51300500D01*
X222078845Y-51300499D01*
X222233497Y-51269737D01*
X222379179Y-51209394D01*
X222510289Y-51121789D01*
X222621789Y-51010289D01*
X222709394Y-50879179D01*
X222769737Y-50733497D01*
X222771991Y-50722165D01*
X223366649Y-50722165D01*
X223366649Y-50879858D01*
X223397410Y-51034501D01*
X223397413Y-51034513D01*
X223457751Y-51180184D01*
X223457758Y-51180197D01*
X223545359Y-51311300D01*
X223545362Y-51311304D01*
X223656856Y-51422798D01*
X223656860Y-51422801D01*
X223787963Y-51510402D01*
X223787976Y-51510409D01*
X223845170Y-51534099D01*
X223933652Y-51570749D01*
X224088302Y-51601511D01*
X224088305Y-51601512D01*
X224088307Y-51601512D01*
X224245993Y-51601512D01*
X224245994Y-51601511D01*
X224400646Y-51570749D01*
X224513315Y-51524079D01*
X224546321Y-51510409D01*
X224546321Y-51510408D01*
X224546328Y-51510406D01*
X224677438Y-51422801D01*
X224788938Y-51311301D01*
X224876543Y-51180191D01*
X224936886Y-51034509D01*
X224967649Y-50879854D01*
X224967649Y-50722170D01*
X224967649Y-50722167D01*
X224967648Y-50722165D01*
X224937558Y-50570894D01*
X224936886Y-50567515D01*
X224904659Y-50489711D01*
X224876546Y-50421839D01*
X224876539Y-50421826D01*
X224788938Y-50290723D01*
X224788935Y-50290719D01*
X224677441Y-50179225D01*
X224677437Y-50179222D01*
X224546334Y-50091621D01*
X224546321Y-50091614D01*
X224400650Y-50031276D01*
X224400638Y-50031273D01*
X224245994Y-50000512D01*
X224245991Y-50000512D01*
X224088307Y-50000512D01*
X224088304Y-50000512D01*
X223933659Y-50031273D01*
X223933647Y-50031276D01*
X223787976Y-50091614D01*
X223787963Y-50091621D01*
X223656860Y-50179222D01*
X223656856Y-50179225D01*
X223545362Y-50290719D01*
X223545359Y-50290723D01*
X223457758Y-50421826D01*
X223457751Y-50421839D01*
X223397413Y-50567510D01*
X223397410Y-50567522D01*
X223366649Y-50722165D01*
X222771991Y-50722165D01*
X222775215Y-50705954D01*
X222778014Y-50691887D01*
X222778014Y-50691886D01*
X222800500Y-50578844D01*
X222800500Y-50421155D01*
X222800499Y-50421153D01*
X222797878Y-50407978D01*
X222769737Y-50266503D01*
X222769735Y-50266498D01*
X222709397Y-50120827D01*
X222709390Y-50120814D01*
X222621789Y-49989711D01*
X222621786Y-49989707D01*
X222510292Y-49878213D01*
X222510288Y-49878210D01*
X222379185Y-49790609D01*
X222379172Y-49790602D01*
X222233501Y-49730264D01*
X222233489Y-49730261D01*
X222078845Y-49699500D01*
X222078842Y-49699500D01*
X221921158Y-49699500D01*
X221921155Y-49699500D01*
X221766510Y-49730261D01*
X221766498Y-49730264D01*
X221620827Y-49790602D01*
X221620814Y-49790609D01*
X221489711Y-49878210D01*
X221489707Y-49878213D01*
X221378213Y-49989707D01*
X221378210Y-49989711D01*
X221290609Y-50120814D01*
X221290602Y-50120827D01*
X221230264Y-50266498D01*
X221230261Y-50266510D01*
X221199500Y-50421153D01*
X220553232Y-50421153D01*
X220510292Y-50378213D01*
X220510288Y-50378210D01*
X220379185Y-50290609D01*
X220379172Y-50290602D01*
X220233501Y-50230264D01*
X220233489Y-50230261D01*
X220078845Y-50199500D01*
X220078842Y-50199500D01*
X219921158Y-50199500D01*
X219921155Y-50199500D01*
X219766510Y-50230261D01*
X219766498Y-50230264D01*
X219620828Y-50290602D01*
X219620817Y-50290608D01*
X219611286Y-50296977D01*
X219606014Y-50300500D01*
X219603917Y-50301901D01*
X219537239Y-50322778D01*
X219469859Y-50304293D01*
X219466137Y-50301901D01*
X219458777Y-50296983D01*
X219458766Y-50296977D01*
X219313095Y-50236639D01*
X219313083Y-50236636D01*
X219158439Y-50205875D01*
X219158436Y-50205875D01*
X219000752Y-50205875D01*
X219000749Y-50205875D01*
X218846104Y-50236636D01*
X218846092Y-50236639D01*
X218700421Y-50296977D01*
X218695040Y-50299854D01*
X218694103Y-50298101D01*
X218636137Y-50316241D01*
X218568760Y-50297744D01*
X218522079Y-50245757D01*
X218519384Y-50239712D01*
X218470141Y-50120827D01*
X218470134Y-50120814D01*
X218382533Y-49989711D01*
X218382530Y-49989707D01*
X218271036Y-49878213D01*
X218271032Y-49878210D01*
X218139929Y-49790609D01*
X218139916Y-49790602D01*
X217994245Y-49730264D01*
X217994233Y-49730261D01*
X217839589Y-49699500D01*
X217839586Y-49699500D01*
X217681902Y-49699500D01*
X217681899Y-49699500D01*
X217527254Y-49730261D01*
X217527242Y-49730264D01*
X217381571Y-49790602D01*
X217381558Y-49790609D01*
X217250455Y-49878210D01*
X217250451Y-49878213D01*
X217138957Y-49989707D01*
X217138954Y-49989711D01*
X217051353Y-50120814D01*
X217051346Y-50120827D01*
X216991008Y-50266498D01*
X216991005Y-50266510D01*
X216960244Y-50421153D01*
X196000000Y-50421153D01*
X196000000Y-49421153D01*
X213699500Y-49421153D01*
X213699500Y-49578846D01*
X213730261Y-49733489D01*
X213730264Y-49733501D01*
X213790602Y-49879172D01*
X213790609Y-49879185D01*
X213878210Y-50010288D01*
X213878213Y-50010292D01*
X213989707Y-50121786D01*
X213989711Y-50121789D01*
X214120814Y-50209390D01*
X214120827Y-50209397D01*
X214219541Y-50250285D01*
X214266503Y-50269737D01*
X214417910Y-50299854D01*
X214421153Y-50300499D01*
X214421156Y-50300500D01*
X214421158Y-50300500D01*
X214578844Y-50300500D01*
X214578845Y-50300499D01*
X214590903Y-50298101D01*
X214614287Y-50293450D01*
X214614292Y-50293449D01*
X214699800Y-50276439D01*
X214733497Y-50269737D01*
X214879179Y-50209394D01*
X215010289Y-50121789D01*
X215121789Y-50010289D01*
X215209394Y-49879179D01*
X215269737Y-49733497D01*
X215300500Y-49578842D01*
X215300500Y-49421158D01*
X215300500Y-49421155D01*
X215300499Y-49421153D01*
X215292148Y-49379172D01*
X215269737Y-49266503D01*
X215256062Y-49233489D01*
X215209397Y-49120827D01*
X215209390Y-49120814D01*
X215121790Y-48989712D01*
X215121784Y-48989705D01*
X215053232Y-48921153D01*
X218199500Y-48921153D01*
X218199500Y-49078846D01*
X218230261Y-49233489D01*
X218230264Y-49233501D01*
X218290602Y-49379172D01*
X218290609Y-49379185D01*
X218378210Y-49510288D01*
X218378213Y-49510292D01*
X218489707Y-49621786D01*
X218489711Y-49621789D01*
X218620814Y-49709390D01*
X218620827Y-49709397D01*
X218766498Y-49769735D01*
X218766503Y-49769737D01*
X218921153Y-49800499D01*
X218921156Y-49800500D01*
X218921158Y-49800500D01*
X219078844Y-49800500D01*
X219078845Y-49800499D01*
X219233497Y-49769737D01*
X219379179Y-49709394D01*
X219510289Y-49621789D01*
X219621789Y-49510289D01*
X219709394Y-49379179D01*
X219769737Y-49233497D01*
X219800500Y-49078842D01*
X219800500Y-48921158D01*
X219800500Y-48921155D01*
X219800499Y-48921153D01*
X224699500Y-48921153D01*
X224699500Y-49078846D01*
X224730261Y-49233489D01*
X224730264Y-49233501D01*
X224790602Y-49379172D01*
X224790609Y-49379185D01*
X224878210Y-49510288D01*
X224878213Y-49510292D01*
X224989707Y-49621786D01*
X224989711Y-49621789D01*
X225120814Y-49709390D01*
X225120827Y-49709397D01*
X225266498Y-49769735D01*
X225266503Y-49769737D01*
X225294752Y-49775356D01*
X225356662Y-49807739D01*
X225391237Y-49868454D01*
X225387498Y-49938224D01*
X225385123Y-49944424D01*
X225322491Y-50095635D01*
X225322489Y-50095642D01*
X225291728Y-50250285D01*
X225291728Y-50407978D01*
X225322489Y-50562621D01*
X225322492Y-50562633D01*
X225382830Y-50708304D01*
X225382837Y-50708317D01*
X225470438Y-50839420D01*
X225470441Y-50839424D01*
X225581935Y-50950918D01*
X225581939Y-50950921D01*
X225713050Y-51038527D01*
X225716449Y-51040344D01*
X225717896Y-51041765D01*
X225718114Y-51041911D01*
X225718086Y-51041952D01*
X225766295Y-51089304D01*
X225782000Y-51149704D01*
X225782000Y-51271527D01*
X225812761Y-51426170D01*
X225812764Y-51426182D01*
X225828690Y-51464630D01*
X225836159Y-51534099D01*
X225817232Y-51580972D01*
X225790608Y-51620817D01*
X225790602Y-51620828D01*
X225730264Y-51766498D01*
X225730261Y-51766510D01*
X225699500Y-51921153D01*
X225699500Y-52078846D01*
X225730261Y-52233489D01*
X225730264Y-52233501D01*
X225790602Y-52379171D01*
X225790603Y-52379172D01*
X225790606Y-52379179D01*
X225790609Y-52379183D01*
X225791639Y-52380725D01*
X225791930Y-52381655D01*
X225793479Y-52384553D01*
X225792929Y-52384846D01*
X225812514Y-52447403D01*
X225803096Y-52497063D01*
X225786873Y-52536230D01*
X225786871Y-52536233D01*
X225756110Y-52690881D01*
X225756110Y-52848574D01*
X225786871Y-53003217D01*
X225786874Y-53003229D01*
X225847212Y-53148900D01*
X225847219Y-53148913D01*
X225934820Y-53280016D01*
X225934823Y-53280020D01*
X226046317Y-53391514D01*
X226046321Y-53391517D01*
X226177424Y-53479118D01*
X226177437Y-53479125D01*
X226323108Y-53539463D01*
X226323113Y-53539465D01*
X226477763Y-53570227D01*
X226477766Y-53570228D01*
X226477768Y-53570228D01*
X226635454Y-53570228D01*
X226635455Y-53570227D01*
X226790107Y-53539465D01*
X226935789Y-53479122D01*
X227066899Y-53391517D01*
X227178399Y-53280017D01*
X227266004Y-53148907D01*
X227326347Y-53003225D01*
X227357110Y-52848570D01*
X227357110Y-52690886D01*
X227357110Y-52690883D01*
X227357109Y-52690881D01*
X227345131Y-52630663D01*
X227326347Y-52536231D01*
X227278680Y-52421153D01*
X228699500Y-52421153D01*
X228699500Y-52578846D01*
X228730261Y-52733489D01*
X228730264Y-52733501D01*
X228790602Y-52879172D01*
X228790609Y-52879185D01*
X228878210Y-53010288D01*
X228878213Y-53010292D01*
X228989707Y-53121786D01*
X228989711Y-53121789D01*
X229120814Y-53209390D01*
X229120827Y-53209397D01*
X229266498Y-53269735D01*
X229266503Y-53269737D01*
X229396117Y-53295519D01*
X229421153Y-53300499D01*
X229421156Y-53300500D01*
X229421158Y-53300500D01*
X229578844Y-53300500D01*
X229578845Y-53300499D01*
X229733497Y-53269737D01*
X229733509Y-53269731D01*
X229739324Y-53267969D01*
X229740110Y-53270561D01*
X229797919Y-53264297D01*
X229860425Y-53295519D01*
X229896128Y-53355577D01*
X229899340Y-53392776D01*
X229899500Y-53392776D01*
X229899500Y-53394634D01*
X229899624Y-53396071D01*
X229899500Y-53397646D01*
X229899500Y-53602351D01*
X229931522Y-53804534D01*
X229994781Y-53999223D01*
X230087715Y-54181613D01*
X230208028Y-54347213D01*
X230352786Y-54491971D01*
X230472359Y-54578844D01*
X230518390Y-54612287D01*
X230634607Y-54671503D01*
X230700776Y-54705218D01*
X230700778Y-54705218D01*
X230700781Y-54705220D01*
X230787784Y-54733489D01*
X230895465Y-54768477D01*
X230996557Y-54784488D01*
X231097648Y-54800500D01*
X231097649Y-54800500D01*
X231302351Y-54800500D01*
X231302352Y-54800500D01*
X231504534Y-54768477D01*
X231699219Y-54705220D01*
X231881610Y-54612287D01*
X232010482Y-54518657D01*
X232047213Y-54491971D01*
X232047215Y-54491968D01*
X232047219Y-54491966D01*
X232191966Y-54347219D01*
X232191968Y-54347215D01*
X232191971Y-54347213D01*
X232250613Y-54266498D01*
X232312287Y-54181610D01*
X232405220Y-53999219D01*
X232468477Y-53804534D01*
X232500500Y-53602352D01*
X232500500Y-53397648D01*
X232479379Y-53264297D01*
X232468477Y-53195465D01*
X232408911Y-53012141D01*
X232405220Y-53000781D01*
X232405218Y-53000778D01*
X232405218Y-53000776D01*
X232380940Y-52953129D01*
X232354196Y-52900641D01*
X232353861Y-52899983D01*
X233499500Y-52899983D01*
X233499500Y-54100001D01*
X233499501Y-54100018D01*
X233510000Y-54202796D01*
X233510001Y-54202799D01*
X233565185Y-54369331D01*
X233565187Y-54369336D01*
X233597148Y-54421153D01*
X233657288Y-54518656D01*
X233781344Y-54642712D01*
X233930666Y-54734814D01*
X234097203Y-54789999D01*
X234199991Y-54800500D01*
X235272650Y-54800499D01*
X235339689Y-54820183D01*
X235385444Y-54872987D01*
X235395388Y-54942146D01*
X235375752Y-54993390D01*
X235290609Y-55120814D01*
X235290602Y-55120827D01*
X235230264Y-55266498D01*
X235230261Y-55266510D01*
X235199500Y-55421153D01*
X235199500Y-55578846D01*
X235230261Y-55733489D01*
X235230264Y-55733501D01*
X235290602Y-55879172D01*
X235290609Y-55879185D01*
X235378210Y-56010288D01*
X235378213Y-56010292D01*
X235489707Y-56121786D01*
X235489711Y-56121789D01*
X235620814Y-56209390D01*
X235620827Y-56209397D01*
X235700862Y-56242548D01*
X235766503Y-56269737D01*
X235921153Y-56300499D01*
X235921156Y-56300500D01*
X235921158Y-56300500D01*
X236078844Y-56300500D01*
X236078845Y-56300499D01*
X236233497Y-56269737D01*
X236379179Y-56209394D01*
X236510289Y-56121789D01*
X236621789Y-56010289D01*
X236709394Y-55879179D01*
X236769737Y-55733497D01*
X236800500Y-55578842D01*
X236800500Y-55421158D01*
X236800500Y-55421155D01*
X236800499Y-55421153D01*
X236792148Y-55379172D01*
X236769737Y-55266503D01*
X236756062Y-55233489D01*
X236709397Y-55120827D01*
X236709390Y-55120814D01*
X236621789Y-54989711D01*
X236621786Y-54989707D01*
X236510292Y-54878213D01*
X236510288Y-54878210D01*
X236379185Y-54790609D01*
X236379172Y-54790602D01*
X236233501Y-54730264D01*
X236233489Y-54730261D01*
X236078845Y-54699500D01*
X236078842Y-54699500D01*
X236053341Y-54699500D01*
X235986302Y-54679815D01*
X235940547Y-54627011D01*
X235930603Y-54557853D01*
X235947802Y-54510404D01*
X236029337Y-54378213D01*
X236034814Y-54369334D01*
X236059319Y-54295380D01*
X236099090Y-54237938D01*
X236163605Y-54211114D01*
X236232381Y-54223428D01*
X236245916Y-54231285D01*
X236246716Y-54231819D01*
X236246718Y-54231820D01*
X236246724Y-54231824D01*
X236246726Y-54231825D01*
X236246730Y-54231827D01*
X236392401Y-54292165D01*
X236392406Y-54292167D01*
X236547056Y-54322929D01*
X236547059Y-54322930D01*
X236547061Y-54322930D01*
X236704747Y-54322930D01*
X236704748Y-54322929D01*
X236859400Y-54292167D01*
X236972069Y-54245497D01*
X237005075Y-54231827D01*
X237005075Y-54231826D01*
X237005082Y-54231824D01*
X237136192Y-54144219D01*
X237247692Y-54032719D01*
X237335297Y-53901609D01*
X237395640Y-53755927D01*
X237426403Y-53601272D01*
X237426403Y-53443588D01*
X237426403Y-53443585D01*
X237426402Y-53443583D01*
X237417265Y-53397648D01*
X237395640Y-53288933D01*
X237391947Y-53280017D01*
X237335300Y-53143257D01*
X237335293Y-53143244D01*
X237247692Y-53012141D01*
X237247689Y-53012137D01*
X237136195Y-52900643D01*
X237136191Y-52900640D01*
X237005088Y-52813039D01*
X237005075Y-52813032D01*
X236859404Y-52752694D01*
X236859392Y-52752691D01*
X236704748Y-52721930D01*
X236704745Y-52721930D01*
X236547061Y-52721930D01*
X236547058Y-52721930D01*
X236392413Y-52752691D01*
X236392401Y-52752694D01*
X236241095Y-52815367D01*
X236240509Y-52813954D01*
X236179464Y-52826655D01*
X236114224Y-52801644D01*
X236072862Y-52745333D01*
X236071726Y-52742060D01*
X236068890Y-52733501D01*
X236034814Y-52630666D01*
X235942712Y-52481344D01*
X235818656Y-52357288D01*
X235705393Y-52287427D01*
X235669336Y-52265187D01*
X235669331Y-52265185D01*
X235643616Y-52256664D01*
X235502797Y-52210001D01*
X235502795Y-52210000D01*
X235400010Y-52199500D01*
X234199998Y-52199500D01*
X234199981Y-52199501D01*
X234097203Y-52210000D01*
X234097200Y-52210001D01*
X233930668Y-52265185D01*
X233930663Y-52265187D01*
X233781342Y-52357289D01*
X233657289Y-52481342D01*
X233565187Y-52630663D01*
X233565186Y-52630666D01*
X233510001Y-52797203D01*
X233510001Y-52797204D01*
X233510000Y-52797204D01*
X233499500Y-52899983D01*
X232353861Y-52899983D01*
X232312287Y-52818390D01*
X232312285Y-52818387D01*
X232312284Y-52818385D01*
X232191971Y-52652786D01*
X232047213Y-52508028D01*
X231881613Y-52387715D01*
X231881612Y-52387714D01*
X231881610Y-52387713D01*
X231821898Y-52357288D01*
X231699223Y-52294781D01*
X231504534Y-52231522D01*
X231329995Y-52203878D01*
X231302352Y-52199500D01*
X231097648Y-52199500D01*
X231073329Y-52203351D01*
X230895465Y-52231522D01*
X230700776Y-52294781D01*
X230518387Y-52387714D01*
X230478911Y-52416395D01*
X230413105Y-52439874D01*
X230345051Y-52424048D01*
X230296357Y-52373942D01*
X230284410Y-52340267D01*
X230275362Y-52294780D01*
X230269737Y-52266503D01*
X230269192Y-52265187D01*
X230209397Y-52120827D01*
X230209390Y-52120814D01*
X230121789Y-51989711D01*
X230121786Y-51989707D01*
X230010292Y-51878213D01*
X230010288Y-51878210D01*
X229879185Y-51790609D01*
X229879172Y-51790602D01*
X229733501Y-51730264D01*
X229733489Y-51730261D01*
X229578845Y-51699500D01*
X229578842Y-51699500D01*
X229421158Y-51699500D01*
X229421155Y-51699500D01*
X229266510Y-51730261D01*
X229266498Y-51730264D01*
X229120827Y-51790602D01*
X229120814Y-51790609D01*
X228989711Y-51878210D01*
X228989707Y-51878213D01*
X228878213Y-51989707D01*
X228878210Y-51989711D01*
X228790609Y-52120814D01*
X228790602Y-52120827D01*
X228730264Y-52266498D01*
X228730261Y-52266510D01*
X228699500Y-52421153D01*
X227278680Y-52421153D01*
X227266004Y-52390549D01*
X227259106Y-52380225D01*
X227254807Y-52370575D01*
X227251504Y-52345989D01*
X227244095Y-52322319D01*
X227246571Y-52309261D01*
X227245506Y-52301327D01*
X227249828Y-52292090D01*
X227253513Y-52272664D01*
X227269737Y-52233497D01*
X227300500Y-52078842D01*
X227300500Y-51921158D01*
X227300500Y-51921155D01*
X227300499Y-51921153D01*
X227291957Y-51878210D01*
X227269737Y-51766503D01*
X227253808Y-51728048D01*
X227246340Y-51658583D01*
X227265269Y-51611706D01*
X227291894Y-51571860D01*
X227352237Y-51426178D01*
X227383000Y-51271523D01*
X227383000Y-51113839D01*
X227383000Y-51113836D01*
X227382999Y-51113834D01*
X227368701Y-51041952D01*
X227352237Y-50959184D01*
X227336484Y-50921153D01*
X227291897Y-50813508D01*
X227291890Y-50813495D01*
X227204289Y-50682392D01*
X227204286Y-50682388D01*
X227092792Y-50570894D01*
X227092784Y-50570888D01*
X226961681Y-50483288D01*
X226958269Y-50481464D01*
X226956818Y-50480038D01*
X226956615Y-50479903D01*
X226956640Y-50479864D01*
X226908427Y-50432499D01*
X226892728Y-50372109D01*
X226892728Y-50250287D01*
X226892727Y-50250285D01*
X226890012Y-50236636D01*
X226861965Y-50095635D01*
X226860301Y-50091618D01*
X226810735Y-49971952D01*
X226803266Y-49902483D01*
X226834542Y-49840004D01*
X226894631Y-49804352D01*
X226925296Y-49800500D01*
X227078844Y-49800500D01*
X227078845Y-49800499D01*
X227233497Y-49769737D01*
X227379179Y-49709394D01*
X227510289Y-49621789D01*
X227621789Y-49510289D01*
X227709394Y-49379179D01*
X227769737Y-49233497D01*
X227800500Y-49078842D01*
X227800500Y-48921158D01*
X227800500Y-48921155D01*
X227800499Y-48921153D01*
X227783959Y-48838000D01*
X227769737Y-48766503D01*
X227761615Y-48746894D01*
X227709397Y-48620827D01*
X227709390Y-48620814D01*
X227621789Y-48489711D01*
X227621786Y-48489707D01*
X227510292Y-48378213D01*
X227510288Y-48378210D01*
X227379185Y-48290609D01*
X227379172Y-48290602D01*
X227233501Y-48230264D01*
X227233489Y-48230261D01*
X227078845Y-48199500D01*
X227078842Y-48199500D01*
X226921158Y-48199500D01*
X226921155Y-48199500D01*
X226766510Y-48230261D01*
X226766498Y-48230264D01*
X226620827Y-48290602D01*
X226620814Y-48290609D01*
X226489711Y-48378210D01*
X226489707Y-48378213D01*
X226378213Y-48489707D01*
X226353102Y-48527289D01*
X226299489Y-48572093D01*
X226230164Y-48580800D01*
X226167137Y-48550645D01*
X226146898Y-48527289D01*
X226121786Y-48489707D01*
X226010292Y-48378213D01*
X226010288Y-48378210D01*
X225879185Y-48290609D01*
X225879172Y-48290602D01*
X225733501Y-48230264D01*
X225733489Y-48230261D01*
X225578845Y-48199500D01*
X225578842Y-48199500D01*
X225421158Y-48199500D01*
X225421155Y-48199500D01*
X225266510Y-48230261D01*
X225266498Y-48230264D01*
X225120827Y-48290602D01*
X225120814Y-48290609D01*
X224989711Y-48378210D01*
X224989707Y-48378213D01*
X224878213Y-48489707D01*
X224878210Y-48489711D01*
X224790609Y-48620814D01*
X224790602Y-48620827D01*
X224730264Y-48766498D01*
X224730261Y-48766510D01*
X224699500Y-48921153D01*
X219800499Y-48921153D01*
X219783959Y-48838000D01*
X219769737Y-48766503D01*
X219761615Y-48746894D01*
X219709397Y-48620827D01*
X219709390Y-48620814D01*
X219621789Y-48489711D01*
X219621786Y-48489707D01*
X219510292Y-48378213D01*
X219510288Y-48378210D01*
X219379185Y-48290609D01*
X219379172Y-48290602D01*
X219233501Y-48230264D01*
X219233489Y-48230261D01*
X219078845Y-48199500D01*
X219078842Y-48199500D01*
X218921158Y-48199500D01*
X218921155Y-48199500D01*
X218766510Y-48230261D01*
X218766498Y-48230264D01*
X218620827Y-48290602D01*
X218620814Y-48290609D01*
X218489711Y-48378210D01*
X218489707Y-48378213D01*
X218378213Y-48489707D01*
X218378210Y-48489711D01*
X218290609Y-48620814D01*
X218290602Y-48620827D01*
X218230264Y-48766498D01*
X218230261Y-48766510D01*
X218199500Y-48921153D01*
X215053232Y-48921153D01*
X215010292Y-48878213D01*
X215010288Y-48878210D01*
X214879185Y-48790609D01*
X214879172Y-48790602D01*
X214733501Y-48730264D01*
X214733489Y-48730261D01*
X214578845Y-48699500D01*
X214578842Y-48699500D01*
X214421158Y-48699500D01*
X214421155Y-48699500D01*
X214266510Y-48730261D01*
X214266498Y-48730264D01*
X214120827Y-48790602D01*
X214120814Y-48790609D01*
X213989711Y-48878210D01*
X213989707Y-48878213D01*
X213878213Y-48989707D01*
X213878210Y-48989711D01*
X213790609Y-49120814D01*
X213790602Y-49120827D01*
X213730264Y-49266498D01*
X213730261Y-49266510D01*
X213699500Y-49421153D01*
X196000000Y-49421153D01*
X196000000Y-48720940D01*
X196019685Y-48653901D01*
X196036314Y-48633263D01*
X196121789Y-48547789D01*
X196209394Y-48416679D01*
X196269737Y-48270997D01*
X196300500Y-48116342D01*
X196300500Y-47958658D01*
X196300500Y-47958655D01*
X196300499Y-47958653D01*
X196269738Y-47804010D01*
X196269737Y-47804003D01*
X196269735Y-47803998D01*
X196209397Y-47658327D01*
X196209390Y-47658314D01*
X196121789Y-47527211D01*
X196121786Y-47527207D01*
X196036319Y-47441740D01*
X196021615Y-47414812D01*
X196005023Y-47388994D01*
X196004131Y-47382793D01*
X196002834Y-47380417D01*
X196000000Y-47354059D01*
X196000000Y-47204500D01*
X196019685Y-47137461D01*
X196072489Y-47091706D01*
X196124000Y-47080500D01*
X242295500Y-47080500D01*
X242362539Y-47100185D01*
G37*
%TD.AperFunction*%
%TD*%
M02*
