M48
; DRILL file KiCad 10.0.3 date 2026-07-27T00:41:16
; FORMAT={-:-/ absolute / metric / decimal}
; #@! TF.CreationDate,2026-07-27T00:41:16+03:00
; #@! TF.GenerationSoftware,Kicad,Pcbnew,10.0.3
; #@! TF.FileFunction,MixedPlating,1,4
FMAT,2
METRIC
; #@! TA.AperFunction,Plated,PTH,ViaDrill
T1C0.300
; #@! TA.AperFunction,Plated,PTH,ComponentDrill
T2C0.600
%
G90
G05
T1
X195.5Y-48.037
X201.5Y-60.5
X201.531Y-57.766
X203.752Y-57.694
X206.0Y-57.5
X208.0Y-58.0
X208.506Y-55.0
X209.5Y-59.5
X210.455Y-57.955
X210.75Y-52.0
X213.0Y-56.5
X214.5Y-49.5
X215.5Y-55.0
X215.804Y-56.28
X216.0Y-51.5
X217.5Y-48.5
X217.761Y-50.5
X217.985Y-56.515
X218.5Y-54.5
X218.5Y-59.237
X218.507Y-53.057
X218.855Y-56.224
X219.0Y-49.0
X219.0Y-57.5
X219.08Y-51.006
X220.0Y-51.0
X221.097Y-58.342
X222.0Y-50.5
X222.26Y-58.381
X222.5Y-59.5
X222.75Y-54.5
X224.167Y-50.801
X224.5Y-59.48
X225.035Y-50.666
X225.5Y-49.0
X225.5Y-60.0
X226.092Y-50.329
X226.5Y-52.0
X226.557Y-52.77
X226.582Y-51.193
X226.634Y-56.126
X226.718Y-56.973
X226.735Y-54.722
X227.0Y-49.0
X228.0Y-58.0
X228.5Y-59.5
X229.5Y-51.0
X229.5Y-52.5
X234.0Y-59.5
X236.0Y-55.5
X236.626Y-53.522
T2
X231.2Y-53.5
X234.8Y-53.5
M30
