%TF.GenerationSoftware,KiCad,Pcbnew,10.0.3*%
%TF.CreationDate,2026-07-27T00:41:11+03:00*%
%TF.ProjectId,v1.0,76312e30-2e6b-4696-9361-645f70636258,rev?*%
%TF.SameCoordinates,Original*%
%TF.FileFunction,OtherDrawing,Comment*%
%FSLAX46Y46*%
G04 Gerber Fmt 4.6, Leading zero omitted, Abs format (unit mm)*
G04 Created by KiCad (PCBNEW 10.0.3) date 2026-07-27 00:41:11*
%MOMM*%
%LPD*%
G01*
G04 APERTURE LIST*
%ADD10C,0.100000*%
G04 APERTURE END LIST*
D10*
X204714285Y-45873890D02*
X204714285Y-46373890D01*
X204714285Y-46373890D02*
X204523809Y-46373890D01*
X204523809Y-46373890D02*
X204476190Y-46350080D01*
X204476190Y-46350080D02*
X204452380Y-46326271D01*
X204452380Y-46326271D02*
X204428571Y-46278652D01*
X204428571Y-46278652D02*
X204428571Y-46207223D01*
X204428571Y-46207223D02*
X204452380Y-46159604D01*
X204452380Y-46159604D02*
X204476190Y-46135795D01*
X204476190Y-46135795D02*
X204523809Y-46111985D01*
X204523809Y-46111985D02*
X204714285Y-46111985D01*
X203928571Y-45921509D02*
X203952380Y-45897700D01*
X203952380Y-45897700D02*
X204023809Y-45873890D01*
X204023809Y-45873890D02*
X204071428Y-45873890D01*
X204071428Y-45873890D02*
X204142856Y-45897700D01*
X204142856Y-45897700D02*
X204190475Y-45945319D01*
X204190475Y-45945319D02*
X204214285Y-45992938D01*
X204214285Y-45992938D02*
X204238094Y-46088176D01*
X204238094Y-46088176D02*
X204238094Y-46159604D01*
X204238094Y-46159604D02*
X204214285Y-46254842D01*
X204214285Y-46254842D02*
X204190475Y-46302461D01*
X204190475Y-46302461D02*
X204142856Y-46350080D01*
X204142856Y-46350080D02*
X204071428Y-46373890D01*
X204071428Y-46373890D02*
X204023809Y-46373890D01*
X204023809Y-46373890D02*
X203952380Y-46350080D01*
X203952380Y-46350080D02*
X203928571Y-46326271D01*
X203547618Y-46135795D02*
X203476190Y-46111985D01*
X203476190Y-46111985D02*
X203452380Y-46088176D01*
X203452380Y-46088176D02*
X203428571Y-46040557D01*
X203428571Y-46040557D02*
X203428571Y-45969128D01*
X203428571Y-45969128D02*
X203452380Y-45921509D01*
X203452380Y-45921509D02*
X203476190Y-45897700D01*
X203476190Y-45897700D02*
X203523809Y-45873890D01*
X203523809Y-45873890D02*
X203714285Y-45873890D01*
X203714285Y-45873890D02*
X203714285Y-46373890D01*
X203714285Y-46373890D02*
X203547618Y-46373890D01*
X203547618Y-46373890D02*
X203499999Y-46350080D01*
X203499999Y-46350080D02*
X203476190Y-46326271D01*
X203476190Y-46326271D02*
X203452380Y-46278652D01*
X203452380Y-46278652D02*
X203452380Y-46231033D01*
X203452380Y-46231033D02*
X203476190Y-46183414D01*
X203476190Y-46183414D02*
X203499999Y-46159604D01*
X203499999Y-46159604D02*
X203547618Y-46135795D01*
X203547618Y-46135795D02*
X203714285Y-46135795D01*
X202833333Y-46135795D02*
X202666666Y-46135795D01*
X202595238Y-45873890D02*
X202833333Y-45873890D01*
X202833333Y-45873890D02*
X202833333Y-46373890D01*
X202833333Y-46373890D02*
X202595238Y-46373890D01*
X202166666Y-45873890D02*
X202166666Y-46373890D01*
X202166666Y-45897700D02*
X202214285Y-45873890D01*
X202214285Y-45873890D02*
X202309523Y-45873890D01*
X202309523Y-45873890D02*
X202357142Y-45897700D01*
X202357142Y-45897700D02*
X202380952Y-45921509D01*
X202380952Y-45921509D02*
X202404761Y-45969128D01*
X202404761Y-45969128D02*
X202404761Y-46111985D01*
X202404761Y-46111985D02*
X202380952Y-46159604D01*
X202380952Y-46159604D02*
X202357142Y-46183414D01*
X202357142Y-46183414D02*
X202309523Y-46207223D01*
X202309523Y-46207223D02*
X202214285Y-46207223D01*
X202214285Y-46207223D02*
X202166666Y-46183414D01*
X201714285Y-46207223D02*
X201714285Y-45802461D01*
X201714285Y-45802461D02*
X201738095Y-45754842D01*
X201738095Y-45754842D02*
X201761904Y-45731033D01*
X201761904Y-45731033D02*
X201809523Y-45707223D01*
X201809523Y-45707223D02*
X201880952Y-45707223D01*
X201880952Y-45707223D02*
X201928571Y-45731033D01*
X201714285Y-45897700D02*
X201761904Y-45873890D01*
X201761904Y-45873890D02*
X201857142Y-45873890D01*
X201857142Y-45873890D02*
X201904761Y-45897700D01*
X201904761Y-45897700D02*
X201928571Y-45921509D01*
X201928571Y-45921509D02*
X201952380Y-45969128D01*
X201952380Y-45969128D02*
X201952380Y-46111985D01*
X201952380Y-46111985D02*
X201928571Y-46159604D01*
X201928571Y-46159604D02*
X201904761Y-46183414D01*
X201904761Y-46183414D02*
X201857142Y-46207223D01*
X201857142Y-46207223D02*
X201761904Y-46207223D01*
X201761904Y-46207223D02*
X201714285Y-46183414D01*
X201285714Y-45897700D02*
X201333333Y-45873890D01*
X201333333Y-45873890D02*
X201428571Y-45873890D01*
X201428571Y-45873890D02*
X201476190Y-45897700D01*
X201476190Y-45897700D02*
X201499999Y-45945319D01*
X201499999Y-45945319D02*
X201499999Y-46135795D01*
X201499999Y-46135795D02*
X201476190Y-46183414D01*
X201476190Y-46183414D02*
X201428571Y-46207223D01*
X201428571Y-46207223D02*
X201333333Y-46207223D01*
X201333333Y-46207223D02*
X201285714Y-46183414D01*
X201285714Y-46183414D02*
X201261904Y-46135795D01*
X201261904Y-46135795D02*
X201261904Y-46088176D01*
X201261904Y-46088176D02*
X201499999Y-46040557D01*
%TO.C,J3*%
X207750000Y-45547500D02*
X198250000Y-45547500D01*
%TD*%
M02*
