%TF.GenerationSoftware,KiCad,Pcbnew,10.0.3*%
%TF.CreationDate,2026-07-27T00:41:11+03:00*%
%TF.ProjectId,v1.0,76312e30-2e6b-4696-9361-645f70636258,rev?*%
%TF.SameCoordinates,Original*%
%TF.FileFunction,Other,User*%
%FSLAX46Y46*%
G04 Gerber Fmt 4.6, Leading zero omitted, Abs format (unit mm)*
G04 Created by KiCad (PCBNEW 10.0.3) date 2026-07-27 00:41:11*
%MOMM*%
%LPD*%
G01*
G04 APERTURE LIST*
%ADD10C,0.050000*%
G04 APERTURE END LIST*
%TO.C,C10*%
D10*
X216370744Y-51040000D02*
X218190744Y-51040000D01*
X218190744Y-51960000D01*
X216370744Y-51960000D01*
X216370744Y-51040000D01*
%TO.C,Y1*%
X210000000Y-50850000D02*
X210000000Y-53150000D01*
X210000000Y-50850000D02*
X214000000Y-50850000D01*
X210000000Y-53150000D02*
X214000000Y-53150000D01*
X214000000Y-50850000D02*
X214000000Y-53150000D01*
%TO.C,J6*%
X205106562Y-59000000D02*
G75*
G02*
X203106562Y-59000000I-1000000J0D01*
G01*
X203106562Y-59000000D02*
G75*
G02*
X205106562Y-59000000I1000000J0D01*
G01*
%TO.C,C2*%
X216338019Y-55167971D02*
X218158019Y-55167971D01*
X218158019Y-56087971D01*
X216338019Y-56087971D01*
X216338019Y-55167971D01*
%TO.C,D2*%
X230619619Y-51950000D02*
X230619619Y-50050000D01*
X233819619Y-50050000D02*
X230619619Y-50050000D01*
X233819619Y-51950000D02*
X230619619Y-51950000D01*
X233819619Y-51950000D02*
X233819619Y-50050000D01*
%TO.C,M1*%
X229900000Y-52200000D02*
X232500000Y-52200000D01*
X232500000Y-54800000D01*
X229900000Y-54800000D01*
X229900000Y-52200000D01*
X233500000Y-52200000D02*
X236100000Y-52200000D01*
X236100000Y-54800000D01*
X233500000Y-54800000D01*
X233500000Y-52200000D01*
%TO.C,C4*%
X226540000Y-59090000D02*
X227460000Y-59090000D01*
X227460000Y-60910000D01*
X226540000Y-60910000D01*
X226540000Y-59090000D01*
%TO.C,R2*%
X199784598Y-55733163D02*
X201644598Y-55733163D01*
X201644598Y-56673163D01*
X199784598Y-56673163D01*
X199784598Y-55733163D01*
%TO.C,L2*%
X220783712Y-48073790D02*
X221723712Y-48073790D01*
X221723712Y-49933790D01*
X220783712Y-49933790D01*
X220783712Y-48073790D01*
%TO.C,J3*%
X196450000Y-47100000D02*
X198000000Y-47100000D01*
X196450000Y-49650000D02*
X196450000Y-47100000D01*
X196450000Y-49650000D02*
X198000000Y-49650000D01*
X196450000Y-53200000D02*
X196450000Y-50800000D01*
X196450000Y-53200000D02*
X209550000Y-53200000D01*
X198000000Y-47100000D02*
X198000000Y-45000000D01*
X198000000Y-50800000D02*
X196450000Y-50800000D01*
X198000000Y-50800000D02*
X198000000Y-49650000D01*
X208000000Y-45000000D02*
X198000000Y-45000000D01*
X208000000Y-47100000D02*
X208000000Y-45000000D01*
X208000000Y-47100000D02*
X209550000Y-47100000D01*
X208000000Y-49650000D02*
X209550000Y-49650000D01*
X208000000Y-50800000D02*
X208000000Y-49650000D01*
X209550000Y-49650000D02*
X209550000Y-47100000D01*
X209550000Y-50800000D02*
X208000000Y-50800000D01*
X209550000Y-53200000D02*
X209550000Y-50800000D01*
%TO.C,L1*%
X219785942Y-48073790D02*
X220725942Y-48073790D01*
X220725942Y-49933790D01*
X219785942Y-49933790D01*
X219785942Y-48073790D01*
%TO.C,C9*%
X222040000Y-59070000D02*
X222960000Y-59070000D01*
X222960000Y-60890000D01*
X222040000Y-60890000D01*
X222040000Y-59070000D01*
%TO.C,C12*%
X223752009Y-48101939D02*
X224672009Y-48101939D01*
X224672009Y-49921939D01*
X223752009Y-49921939D01*
X223752009Y-48101939D01*
%TO.C,C11*%
X222759251Y-48093790D02*
X223679251Y-48093790D01*
X223679251Y-49913790D01*
X222759251Y-49913790D01*
X222759251Y-48093790D01*
%TO.C,C20*%
X221040000Y-59090000D02*
X221960000Y-59090000D01*
X221960000Y-60910000D01*
X221040000Y-60910000D01*
X221040000Y-59090000D01*
%TO.C,L4*%
X227328181Y-54513637D02*
X229188181Y-54513637D01*
X229188181Y-55453637D01*
X227328181Y-55453637D01*
X227328181Y-54513637D01*
%TO.C,C15*%
X234090000Y-51040000D02*
X235910000Y-51040000D01*
X235910000Y-51960000D01*
X234090000Y-51960000D01*
X234090000Y-51040000D01*
%TO.C,R7*%
X216323122Y-54178706D02*
X218183122Y-54178706D01*
X218183122Y-55118706D01*
X216323122Y-55118706D01*
X216323122Y-54178706D01*
%TO.C,C14*%
X216370744Y-50040000D02*
X218190744Y-50040000D01*
X218190744Y-50960000D01*
X216370744Y-50960000D01*
X216370744Y-50040000D01*
%TO.C,C8*%
X223040000Y-59090000D02*
X223960000Y-59090000D01*
X223960000Y-60910000D01*
X223040000Y-60910000D01*
X223040000Y-59090000D01*
%TO.C,D1*%
X209717400Y-57270000D02*
X212677400Y-57270000D01*
X212677400Y-58730000D01*
X209717400Y-58730000D01*
X209717400Y-57270000D01*
%TO.C,C1*%
X210090000Y-56040000D02*
X211910000Y-56040000D01*
X211910000Y-56960000D01*
X210090000Y-56960000D01*
X210090000Y-56040000D01*
%TO.C,R1*%
X204264598Y-55733163D02*
X206124598Y-55733163D01*
X206124598Y-56673163D01*
X204264598Y-56673163D01*
X204264598Y-55733163D01*
%TO.C,C5*%
X221781481Y-48093790D02*
X222701481Y-48093790D01*
X222701481Y-49913790D01*
X221781481Y-49913790D01*
X221781481Y-48093790D01*
%TO.C,C19*%
X227322273Y-50534693D02*
X229142273Y-50534693D01*
X229142273Y-51454693D01*
X227322273Y-51454693D01*
X227322273Y-50534693D01*
%TO.C,C13*%
X216370744Y-52040000D02*
X218190744Y-52040000D01*
X218190744Y-52960000D01*
X216370744Y-52960000D01*
X216370744Y-52040000D01*
%TO.C,C3*%
X211090000Y-49040000D02*
X212910000Y-49040000D01*
X212910000Y-49960000D01*
X211090000Y-49960000D01*
X211090000Y-49040000D01*
%TO.C,C7*%
X224040000Y-59070000D02*
X224960000Y-59070000D01*
X224960000Y-60890000D01*
X224040000Y-60890000D01*
X224040000Y-59070000D01*
%TO.C,C18*%
X227348181Y-52504401D02*
X229168181Y-52504401D01*
X229168181Y-53424401D01*
X227348181Y-53424401D01*
X227348181Y-52504401D01*
%TO.C,U2*%
X218250000Y-50019728D02*
X227250000Y-50019728D01*
X227250000Y-59019728D01*
X218250000Y-59019728D01*
X218250000Y-50019728D01*
%TO.C,Q1*%
X230570000Y-55327366D02*
X231600000Y-55327366D01*
X230570000Y-56437366D02*
X230570000Y-55327366D01*
X230570000Y-57217366D02*
X231600000Y-57217366D01*
X230570000Y-58327366D02*
X230570000Y-57217366D01*
X231600000Y-55127366D02*
X233400000Y-55127366D01*
X231600000Y-55327366D02*
X231600000Y-55127366D01*
X231600000Y-56437366D02*
X230570000Y-56437366D01*
X231600000Y-57217366D02*
X231600000Y-56437366D01*
X231600000Y-58327366D02*
X230570000Y-58327366D01*
X231600000Y-58527366D02*
X231600000Y-58327366D01*
X233400000Y-55127366D02*
X233400000Y-56277366D01*
X233400000Y-56277366D02*
X234430000Y-56277366D01*
X233400000Y-57377366D02*
X233400000Y-58527366D01*
X233400000Y-58527366D02*
X231600000Y-58527366D01*
X234430000Y-56277366D02*
X234430000Y-57377366D01*
X234430000Y-57377366D02*
X233400000Y-57377366D01*
%TO.C,C6*%
X220040000Y-59090000D02*
X220960000Y-59090000D01*
X220960000Y-60910000D01*
X220040000Y-60910000D01*
X220040000Y-59090000D01*
%TO.C,J4*%
X236600000Y-49969728D02*
X244500000Y-49969728D01*
X244500000Y-59069728D01*
X236600000Y-59069728D01*
X236600000Y-49969728D01*
%TO.C,U1*%
X209759900Y-53278706D02*
X210109900Y-53278706D01*
X209759900Y-55538706D02*
X209759900Y-53278706D01*
X210109900Y-53158706D02*
X213609900Y-53158706D01*
X210109900Y-53278706D02*
X210109900Y-53158706D01*
X210109900Y-55538706D02*
X209759900Y-55538706D01*
X210109900Y-55658706D02*
X210109900Y-55538706D01*
X213609900Y-53158706D02*
X213609900Y-53278706D01*
X213609900Y-53278706D02*
X213959900Y-53278706D01*
X213609900Y-55538706D02*
X213609900Y-55658706D01*
X213609900Y-55658706D02*
X210109900Y-55658706D01*
X213959900Y-53278706D02*
X213959900Y-55538706D01*
X213959900Y-55538706D02*
X213609900Y-55538706D01*
%TO.C,R5*%
X227328181Y-55513637D02*
X229188181Y-55513637D01*
X229188181Y-56453637D01*
X227328181Y-56453637D01*
X227328181Y-55513637D01*
%TO.C,C17*%
X227348181Y-53495358D02*
X229168181Y-53495358D01*
X229168181Y-54415358D01*
X227348181Y-54415358D01*
X227348181Y-53495358D01*
%TO.C,R9*%
X227328181Y-51515085D02*
X229188181Y-51515085D01*
X229188181Y-52455085D01*
X227328181Y-52455085D01*
X227328181Y-51515085D01*
%TO.C,J2*%
X200439895Y-59025000D02*
G75*
G02*
X198439895Y-59025000I-1000000J0D01*
G01*
X198439895Y-59025000D02*
G75*
G02*
X200439895Y-59025000I1000000J0D01*
G01*
%TO.C,R4*%
X213070000Y-57530000D02*
X214930000Y-57530000D01*
X214930000Y-58470000D01*
X213070000Y-58470000D01*
X213070000Y-57530000D01*
%TO.C,J5*%
X202773228Y-59025000D02*
G75*
G02*
X200773228Y-59025000I-1000000J0D01*
G01*
X200773228Y-59025000D02*
G75*
G02*
X202773228Y-59025000I1000000J0D01*
G01*
%TO.C,C16*%
X227322273Y-49540000D02*
X229142273Y-49540000D01*
X229142273Y-50460000D01*
X227322273Y-50460000D01*
X227322273Y-49540000D01*
%TO.C,L3*%
X219030000Y-59070000D02*
X219970000Y-59070000D01*
X219970000Y-60930000D01*
X219030000Y-60930000D01*
X219030000Y-59070000D01*
%TO.C,R3*%
X214070000Y-53188706D02*
X215930000Y-53188706D01*
X215930000Y-54128706D01*
X214070000Y-54128706D01*
X214070000Y-53188706D01*
%TO.C,R8*%
X216323122Y-53188706D02*
X218183122Y-53188706D01*
X218183122Y-54128706D01*
X216323122Y-54128706D01*
X216323122Y-53188706D01*
%TO.C,J7*%
X207439895Y-59000000D02*
G75*
G02*
X205439895Y-59000000I-1000000J0D01*
G01*
X205439895Y-59000000D02*
G75*
G02*
X207439895Y-59000000I1000000J0D01*
G01*
%TO.C,R6*%
X227328181Y-56513637D02*
X229188181Y-56513637D01*
X229188181Y-57453637D01*
X227328181Y-57453637D01*
X227328181Y-56513637D01*
%TD*%
M02*
