%TF.GenerationSoftware,KiCad,Pcbnew,10.0.3*%
%TF.CreationDate,2026-07-27T00:41:11+03:00*%
%TF.ProjectId,v1.0,76312e30-2e6b-4696-9361-645f70636258,rev?*%
%TF.SameCoordinates,Original*%
%TF.FileFunction,Soldermask,Top*%
%TF.FilePolarity,Negative*%
%FSLAX46Y46*%
G04 Gerber Fmt 4.6, Leading zero omitted, Abs format (unit mm)*
G04 Created by KiCad (PCBNEW 10.0.3) date 2026-07-27 00:41:11*
%MOMM*%
%LPD*%
G01*
G04 APERTURE LIST*
G04 Aperture macros list*
%AMRoundRect*
0 Rectangle with rounded corners*
0 $1 Rounding radius*
0 $2 $3 $4 $5 $6 $7 $8 $9 X,Y pos of 4 corners*
0 Add a 4 corners polygon primitive as box body*
4,1,4,$2,$3,$4,$5,$6,$7,$8,$9,$2,$3,0*
0 Add four circle primitives for the rounded corners*
1,1,$1+$1,$2,$3*
1,1,$1+$1,$4,$5*
1,1,$1+$1,$6,$7*
1,1,$1+$1,$8,$9*
0 Add four rect primitives between the rounded corners*
20,1,$1+$1,$2,$3,$4,$5,0*
20,1,$1+$1,$4,$5,$6,$7,0*
20,1,$1+$1,$6,$7,$8,$9,0*
20,1,$1+$1,$8,$9,$2,$3,0*%
G04 Aperture macros list end*
%ADD10RoundRect,0.140000X0.140000X0.170000X-0.140000X0.170000X-0.140000X-0.170000X0.140000X-0.170000X0*%
%ADD11R,1.000000X1.800000*%
%ADD12C,1.000000*%
%ADD13RoundRect,0.112500X0.187500X0.112500X-0.187500X0.112500X-0.187500X-0.112500X0.187500X-0.112500X0*%
%ADD14RoundRect,0.250000X0.550000X0.550000X-0.550000X0.550000X-0.550000X-0.550000X0.550000X-0.550000X0*%
%ADD15C,1.600000*%
%ADD16RoundRect,0.140000X0.170000X-0.140000X0.170000X0.140000X-0.170000X0.140000X-0.170000X-0.140000X0*%
%ADD17RoundRect,0.135000X0.135000X0.185000X-0.135000X0.185000X-0.135000X-0.185000X0.135000X-0.185000X0*%
%ADD18RoundRect,0.147500X-0.172500X0.147500X-0.172500X-0.147500X0.172500X-0.147500X0.172500X0.147500X0*%
%ADD19RoundRect,0.175000X0.175000X0.425000X-0.175000X0.425000X-0.175000X-0.425000X0.175000X-0.425000X0*%
%ADD20RoundRect,0.190000X-0.190000X-0.410000X0.190000X-0.410000X0.190000X0.410000X-0.190000X0.410000X0*%
%ADD21RoundRect,0.200000X-0.200000X-0.400000X0.200000X-0.400000X0.200000X0.400000X-0.200000X0.400000X0*%
%ADD22RoundRect,0.175000X-0.175000X-0.425000X0.175000X-0.425000X0.175000X0.425000X-0.175000X0.425000X0*%
%ADD23RoundRect,0.190000X0.190000X0.410000X-0.190000X0.410000X-0.190000X-0.410000X0.190000X-0.410000X0*%
%ADD24RoundRect,0.200000X0.200000X0.400000X-0.200000X0.400000X-0.200000X-0.400000X0.200000X-0.400000X0*%
%ADD25RoundRect,0.250000X0.650000X0.425000X-0.650000X0.425000X-0.650000X-0.425000X0.650000X-0.425000X0*%
%ADD26RoundRect,0.250000X0.650000X0.500000X-0.650000X0.500000X-0.650000X-0.500000X0.650000X-0.500000X0*%
%ADD27RoundRect,0.147500X0.172500X-0.147500X0.172500X0.147500X-0.172500X0.147500X-0.172500X-0.147500X0*%
%ADD28RoundRect,0.140000X-0.170000X0.140000X-0.170000X-0.140000X0.170000X-0.140000X0.170000X0.140000X0*%
%ADD29RoundRect,0.147500X0.147500X0.172500X-0.147500X0.172500X-0.147500X-0.172500X0.147500X-0.172500X0*%
%ADD30RoundRect,0.140000X-0.140000X-0.170000X0.140000X-0.170000X0.140000X0.170000X-0.140000X0.170000X0*%
%ADD31RoundRect,0.218750X0.218750X0.256250X-0.218750X0.256250X-0.218750X-0.256250X0.218750X-0.256250X0*%
%ADD32RoundRect,0.135000X-0.135000X-0.185000X0.135000X-0.185000X0.135000X0.185000X-0.135000X0.185000X0*%
%ADD33C,0.250000*%
%ADD34R,4.850000X4.850000*%
%ADD35RoundRect,0.150000X-0.587500X-0.150000X0.587500X-0.150000X0.587500X0.150000X-0.587500X0.150000X0*%
%ADD36R,1.300000X0.300000*%
%ADD37R,2.200000X1.800000*%
%ADD38RoundRect,0.062500X-0.337500X-0.062500X0.337500X-0.062500X0.337500X0.062500X-0.337500X0.062500X0*%
%ADD39R,1.700000X1.400000*%
G04 APERTURE END LIST*
D10*
%TO.C,C10*%
X217760744Y-51500000D03*
X216800744Y-51500000D03*
%TD*%
D11*
%TO.C,Y1*%
X213250000Y-52000000D03*
X210750000Y-52000000D03*
%TD*%
D12*
%TO.C,J6*%
X204106562Y-59000000D03*
%TD*%
D10*
%TO.C,C2*%
X217728019Y-55627971D03*
X216768019Y-55627971D03*
%TD*%
D13*
%TO.C,D2*%
X233269619Y-51000000D03*
X231169619Y-51000000D03*
%TD*%
D14*
%TO.C,M1*%
X234800000Y-53500000D03*
D15*
X231200000Y-53500000D03*
%TD*%
D16*
%TO.C,C4*%
X227000000Y-60480000D03*
X227000000Y-59520000D03*
%TD*%
D17*
%TO.C,R2*%
X201224598Y-56203163D03*
X200204598Y-56203163D03*
%TD*%
D18*
%TO.C,L2*%
X221253712Y-48518790D03*
X221253712Y-49488790D03*
%TD*%
D19*
%TO.C,J3*%
X203500000Y-52032500D03*
D20*
X201480000Y-52032500D03*
D21*
X200250000Y-52032500D03*
D22*
X202500000Y-52032500D03*
D23*
X204520000Y-52032500D03*
D24*
X205750000Y-52032500D03*
D25*
X208125000Y-51977500D03*
D26*
X208125000Y-48397500D03*
D25*
X197875000Y-51977500D03*
D26*
X197875000Y-48397500D03*
%TD*%
D27*
%TO.C,L1*%
X220255942Y-49488790D03*
X220255942Y-48518790D03*
%TD*%
D28*
%TO.C,C9*%
X222500000Y-59500000D03*
X222500000Y-60460000D03*
%TD*%
D16*
%TO.C,C12*%
X224212009Y-49491939D03*
X224212009Y-48531939D03*
%TD*%
%TO.C,C11*%
X223219251Y-49483790D03*
X223219251Y-48523790D03*
%TD*%
%TO.C,C20*%
X221500000Y-60480000D03*
X221500000Y-59520000D03*
%TD*%
D29*
%TO.C,L4*%
X228743181Y-54983637D03*
X227773181Y-54983637D03*
%TD*%
D30*
%TO.C,C15*%
X234520000Y-51500000D03*
X235480000Y-51500000D03*
%TD*%
D17*
%TO.C,R7*%
X217763122Y-54648706D03*
X216743122Y-54648706D03*
%TD*%
D30*
%TO.C,C14*%
X216800744Y-50500000D03*
X217760744Y-50500000D03*
%TD*%
D28*
%TO.C,C8*%
X223500000Y-59520000D03*
X223500000Y-60480000D03*
%TD*%
D31*
%TO.C,D1*%
X211984900Y-58000000D03*
X210409900Y-58000000D03*
%TD*%
D30*
%TO.C,C1*%
X210520000Y-56500000D03*
X211480000Y-56500000D03*
%TD*%
D32*
%TO.C,R1*%
X204684598Y-56203163D03*
X205704598Y-56203163D03*
%TD*%
D28*
%TO.C,C5*%
X222241481Y-48523790D03*
X222241481Y-49483790D03*
%TD*%
D30*
%TO.C,C19*%
X227752273Y-50994693D03*
X228712273Y-50994693D03*
%TD*%
%TO.C,C13*%
X216800744Y-52500000D03*
X217760744Y-52500000D03*
%TD*%
%TO.C,C3*%
X211520000Y-49500000D03*
X212480000Y-49500000D03*
%TD*%
D28*
%TO.C,C7*%
X224500000Y-59500000D03*
X224500000Y-60460000D03*
%TD*%
D30*
%TO.C,C18*%
X227778181Y-52964401D03*
X228738181Y-52964401D03*
%TD*%
D33*
%TO.C,U2*%
X221500000Y-51269728D03*
X222000000Y-51269728D03*
X222500000Y-51269728D03*
X223000000Y-51269728D03*
X223500000Y-51269728D03*
X224000000Y-51269728D03*
X224500000Y-51269728D03*
X225000000Y-51269728D03*
X225500000Y-51269728D03*
X226000000Y-56769728D03*
X220000000Y-57019728D03*
X220750000Y-57269728D03*
X221750000Y-57269728D03*
X222250000Y-57269728D03*
X222750000Y-57269728D03*
X223250000Y-57269728D03*
X223750000Y-57269728D03*
X224250000Y-57269728D03*
X224750000Y-57269728D03*
X226000000Y-57269728D03*
X220000000Y-57769728D03*
X220500000Y-57769728D03*
X221000000Y-57769728D03*
X221500000Y-57769728D03*
X222000000Y-57769728D03*
X222500000Y-57769728D03*
X223000000Y-57769728D03*
X223500000Y-57769728D03*
X224000000Y-57769728D03*
X224500000Y-57769728D03*
X225000000Y-57769728D03*
X225500000Y-57769728D03*
X219500000Y-51769728D03*
X220250000Y-51769728D03*
X220750000Y-51769728D03*
X221250000Y-51769728D03*
X221750000Y-51769728D03*
X222250000Y-51769728D03*
X222750000Y-51769728D03*
X223250000Y-51769728D03*
X223750000Y-51769728D03*
X224250000Y-51769728D03*
X226000000Y-51769728D03*
X219500000Y-52269728D03*
X220000000Y-52519728D03*
X225500000Y-52519728D03*
X226000000Y-52769728D03*
D34*
X222750000Y-54519728D03*
D33*
X220000000Y-53019728D03*
X225500000Y-53019728D03*
X219500000Y-53269728D03*
X220000000Y-53519728D03*
X225500000Y-53519728D03*
X219500000Y-53769728D03*
X226000000Y-53769728D03*
X220000000Y-54019728D03*
X219500000Y-54269728D03*
X226000000Y-54269728D03*
X220000000Y-54519728D03*
X219500000Y-54769728D03*
X226000000Y-54769728D03*
X220000000Y-55019728D03*
X225500000Y-55019728D03*
X219500000Y-55269728D03*
X226000000Y-55269728D03*
X220000000Y-55519728D03*
X225500000Y-55519728D03*
X219500000Y-55769728D03*
X226000000Y-55769728D03*
X225500000Y-56019728D03*
X219500000Y-56269728D03*
X226000000Y-56269728D03*
X220000000Y-56519728D03*
X225500000Y-56519728D03*
%TD*%
D35*
%TO.C,Q1*%
X231562500Y-55877366D03*
X231562500Y-57777366D03*
X233437500Y-56827366D03*
%TD*%
D28*
%TO.C,C6*%
X220500000Y-59520000D03*
X220500000Y-60480000D03*
%TD*%
D36*
%TO.C,J4*%
X237750000Y-55769728D03*
X237750000Y-55269728D03*
X237750000Y-54769728D03*
X237750000Y-54269728D03*
X237750000Y-53769728D03*
X237750000Y-53269728D03*
D37*
X241000000Y-57669728D03*
X241000000Y-51369728D03*
%TD*%
D38*
%TO.C,U1*%
X210409900Y-53658706D03*
X210409900Y-54158706D03*
X210409900Y-54658706D03*
X210409900Y-55158706D03*
X213309900Y-55158706D03*
X213309900Y-54658706D03*
X213309900Y-54158706D03*
X213309900Y-53658706D03*
D39*
X211859900Y-54408706D03*
%TD*%
D32*
%TO.C,R5*%
X227748181Y-55983637D03*
X228768181Y-55983637D03*
%TD*%
D30*
%TO.C,C17*%
X227778181Y-53955358D03*
X228738181Y-53955358D03*
%TD*%
D32*
%TO.C,R9*%
X227748181Y-51985085D03*
X228768181Y-51985085D03*
%TD*%
D12*
%TO.C,J2*%
X199439895Y-59025000D03*
%TD*%
D32*
%TO.C,R4*%
X213490000Y-58000000D03*
X214510000Y-58000000D03*
%TD*%
D12*
%TO.C,J5*%
X201773228Y-59025000D03*
%TD*%
D10*
%TO.C,C16*%
X228712273Y-50000000D03*
X227752273Y-50000000D03*
%TD*%
D18*
%TO.C,L3*%
X219500000Y-59515000D03*
X219500000Y-60485000D03*
%TD*%
D17*
%TO.C,R3*%
X215510000Y-53658706D03*
X214490000Y-53658706D03*
%TD*%
%TO.C,R8*%
X217763122Y-53658706D03*
X216743122Y-53658706D03*
%TD*%
D12*
%TO.C,J7*%
X206439895Y-59000000D03*
%TD*%
D17*
%TO.C,R6*%
X228768181Y-56983637D03*
X227748181Y-56983637D03*
%TD*%
M02*
