%TF.GenerationSoftware,KiCad,Pcbnew,10.0.3*%
%TF.CreationDate,2026-07-27T00:41:11+03:00*%
%TF.ProjectId,v1.0,76312e30-2e6b-4696-9361-645f70636258,rev?*%
%TF.SameCoordinates,Original*%
%TF.FileFunction,Legend,Top*%
%TF.FilePolarity,Positive*%
%FSLAX46Y46*%
G04 Gerber Fmt 4.6, Leading zero omitted, Abs format (unit mm)*
G04 Created by KiCad (PCBNEW 10.0.3) date 2026-07-27 00:41:11*
%MOMM*%
%LPD*%
G01*
G04 APERTURE LIST*
%ADD10C,0.150000*%
%ADD11C,0.120000*%
G04 APERTURE END LIST*
D10*
X216637886Y-53019580D02*
X216590267Y-53067200D01*
X216590267Y-53067200D02*
X216447410Y-53114819D01*
X216447410Y-53114819D02*
X216352172Y-53114819D01*
X216352172Y-53114819D02*
X216209315Y-53067200D01*
X216209315Y-53067200D02*
X216114077Y-52971961D01*
X216114077Y-52971961D02*
X216066458Y-52876723D01*
X216066458Y-52876723D02*
X216018839Y-52686247D01*
X216018839Y-52686247D02*
X216018839Y-52543390D01*
X216018839Y-52543390D02*
X216066458Y-52352914D01*
X216066458Y-52352914D02*
X216114077Y-52257676D01*
X216114077Y-52257676D02*
X216209315Y-52162438D01*
X216209315Y-52162438D02*
X216352172Y-52114819D01*
X216352172Y-52114819D02*
X216447410Y-52114819D01*
X216447410Y-52114819D02*
X216590267Y-52162438D01*
X216590267Y-52162438D02*
X216637886Y-52210057D01*
X217590267Y-53114819D02*
X217018839Y-53114819D01*
X217304553Y-53114819D02*
X217304553Y-52114819D01*
X217304553Y-52114819D02*
X217209315Y-52257676D01*
X217209315Y-52257676D02*
X217114077Y-52352914D01*
X217114077Y-52352914D02*
X217018839Y-52400533D01*
X218209315Y-52114819D02*
X218304553Y-52114819D01*
X218304553Y-52114819D02*
X218399791Y-52162438D01*
X218399791Y-52162438D02*
X218447410Y-52210057D01*
X218447410Y-52210057D02*
X218495029Y-52305295D01*
X218495029Y-52305295D02*
X218542648Y-52495771D01*
X218542648Y-52495771D02*
X218542648Y-52733866D01*
X218542648Y-52733866D02*
X218495029Y-52924342D01*
X218495029Y-52924342D02*
X218447410Y-53019580D01*
X218447410Y-53019580D02*
X218399791Y-53067200D01*
X218399791Y-53067200D02*
X218304553Y-53114819D01*
X218304553Y-53114819D02*
X218209315Y-53114819D01*
X218209315Y-53114819D02*
X218114077Y-53067200D01*
X218114077Y-53067200D02*
X218066458Y-53019580D01*
X218066458Y-53019580D02*
X218018839Y-52924342D01*
X218018839Y-52924342D02*
X217971220Y-52733866D01*
X217971220Y-52733866D02*
X217971220Y-52495771D01*
X217971220Y-52495771D02*
X218018839Y-52305295D01*
X218018839Y-52305295D02*
X218066458Y-52210057D01*
X218066458Y-52210057D02*
X218114077Y-52162438D01*
X218114077Y-52162438D02*
X218209315Y-52114819D01*
X211523809Y-49978628D02*
X211523809Y-50454819D01*
X211190476Y-49454819D02*
X211523809Y-49978628D01*
X211523809Y-49978628D02*
X211857142Y-49454819D01*
X212714285Y-50454819D02*
X212142857Y-50454819D01*
X212428571Y-50454819D02*
X212428571Y-49454819D01*
X212428571Y-49454819D02*
X212333333Y-49597676D01*
X212333333Y-49597676D02*
X212238095Y-49692914D01*
X212238095Y-49692914D02*
X212142857Y-49740533D01*
X203773228Y-59902819D02*
X203773228Y-60617104D01*
X203773228Y-60617104D02*
X203725609Y-60759961D01*
X203725609Y-60759961D02*
X203630371Y-60855200D01*
X203630371Y-60855200D02*
X203487514Y-60902819D01*
X203487514Y-60902819D02*
X203392276Y-60902819D01*
X204677990Y-59902819D02*
X204487514Y-59902819D01*
X204487514Y-59902819D02*
X204392276Y-59950438D01*
X204392276Y-59950438D02*
X204344657Y-59998057D01*
X204344657Y-59998057D02*
X204249419Y-60140914D01*
X204249419Y-60140914D02*
X204201800Y-60331390D01*
X204201800Y-60331390D02*
X204201800Y-60712342D01*
X204201800Y-60712342D02*
X204249419Y-60807580D01*
X204249419Y-60807580D02*
X204297038Y-60855200D01*
X204297038Y-60855200D02*
X204392276Y-60902819D01*
X204392276Y-60902819D02*
X204582752Y-60902819D01*
X204582752Y-60902819D02*
X204677990Y-60855200D01*
X204677990Y-60855200D02*
X204725609Y-60807580D01*
X204725609Y-60807580D02*
X204773228Y-60712342D01*
X204773228Y-60712342D02*
X204773228Y-60474247D01*
X204773228Y-60474247D02*
X204725609Y-60379009D01*
X204725609Y-60379009D02*
X204677990Y-60331390D01*
X204677990Y-60331390D02*
X204582752Y-60283771D01*
X204582752Y-60283771D02*
X204392276Y-60283771D01*
X204392276Y-60283771D02*
X204297038Y-60331390D01*
X204297038Y-60331390D02*
X204249419Y-60379009D01*
X204249419Y-60379009D02*
X204201800Y-60474247D01*
X217081352Y-57147551D02*
X217033733Y-57195171D01*
X217033733Y-57195171D02*
X216890876Y-57242790D01*
X216890876Y-57242790D02*
X216795638Y-57242790D01*
X216795638Y-57242790D02*
X216652781Y-57195171D01*
X216652781Y-57195171D02*
X216557543Y-57099932D01*
X216557543Y-57099932D02*
X216509924Y-57004694D01*
X216509924Y-57004694D02*
X216462305Y-56814218D01*
X216462305Y-56814218D02*
X216462305Y-56671361D01*
X216462305Y-56671361D02*
X216509924Y-56480885D01*
X216509924Y-56480885D02*
X216557543Y-56385647D01*
X216557543Y-56385647D02*
X216652781Y-56290409D01*
X216652781Y-56290409D02*
X216795638Y-56242790D01*
X216795638Y-56242790D02*
X216890876Y-56242790D01*
X216890876Y-56242790D02*
X217033733Y-56290409D01*
X217033733Y-56290409D02*
X217081352Y-56338028D01*
X217462305Y-56338028D02*
X217509924Y-56290409D01*
X217509924Y-56290409D02*
X217605162Y-56242790D01*
X217605162Y-56242790D02*
X217843257Y-56242790D01*
X217843257Y-56242790D02*
X217938495Y-56290409D01*
X217938495Y-56290409D02*
X217986114Y-56338028D01*
X217986114Y-56338028D02*
X218033733Y-56433266D01*
X218033733Y-56433266D02*
X218033733Y-56528504D01*
X218033733Y-56528504D02*
X217986114Y-56671361D01*
X217986114Y-56671361D02*
X217414686Y-57242790D01*
X217414686Y-57242790D02*
X218033733Y-57242790D01*
X231481524Y-53304819D02*
X231481524Y-52304819D01*
X231481524Y-52304819D02*
X231719619Y-52304819D01*
X231719619Y-52304819D02*
X231862476Y-52352438D01*
X231862476Y-52352438D02*
X231957714Y-52447676D01*
X231957714Y-52447676D02*
X232005333Y-52542914D01*
X232005333Y-52542914D02*
X232052952Y-52733390D01*
X232052952Y-52733390D02*
X232052952Y-52876247D01*
X232052952Y-52876247D02*
X232005333Y-53066723D01*
X232005333Y-53066723D02*
X231957714Y-53161961D01*
X231957714Y-53161961D02*
X231862476Y-53257200D01*
X231862476Y-53257200D02*
X231719619Y-53304819D01*
X231719619Y-53304819D02*
X231481524Y-53304819D01*
X232433905Y-52400057D02*
X232481524Y-52352438D01*
X232481524Y-52352438D02*
X232576762Y-52304819D01*
X232576762Y-52304819D02*
X232814857Y-52304819D01*
X232814857Y-52304819D02*
X232910095Y-52352438D01*
X232910095Y-52352438D02*
X232957714Y-52400057D01*
X232957714Y-52400057D02*
X233005333Y-52495295D01*
X233005333Y-52495295D02*
X233005333Y-52590533D01*
X233005333Y-52590533D02*
X232957714Y-52733390D01*
X232957714Y-52733390D02*
X232386286Y-53304819D01*
X232386286Y-53304819D02*
X233005333Y-53304819D01*
X232190476Y-55954819D02*
X232190476Y-54954819D01*
X232190476Y-54954819D02*
X232523809Y-55669104D01*
X232523809Y-55669104D02*
X232857142Y-54954819D01*
X232857142Y-54954819D02*
X232857142Y-55954819D01*
X233857142Y-55954819D02*
X233285714Y-55954819D01*
X233571428Y-55954819D02*
X233571428Y-54954819D01*
X233571428Y-54954819D02*
X233476190Y-55097676D01*
X233476190Y-55097676D02*
X233380952Y-55192914D01*
X233380952Y-55192914D02*
X233285714Y-55240533D01*
X226199580Y-60166666D02*
X226247200Y-60214285D01*
X226247200Y-60214285D02*
X226294819Y-60357142D01*
X226294819Y-60357142D02*
X226294819Y-60452380D01*
X226294819Y-60452380D02*
X226247200Y-60595237D01*
X226247200Y-60595237D02*
X226151961Y-60690475D01*
X226151961Y-60690475D02*
X226056723Y-60738094D01*
X226056723Y-60738094D02*
X225866247Y-60785713D01*
X225866247Y-60785713D02*
X225723390Y-60785713D01*
X225723390Y-60785713D02*
X225532914Y-60738094D01*
X225532914Y-60738094D02*
X225437676Y-60690475D01*
X225437676Y-60690475D02*
X225342438Y-60595237D01*
X225342438Y-60595237D02*
X225294819Y-60452380D01*
X225294819Y-60452380D02*
X225294819Y-60357142D01*
X225294819Y-60357142D02*
X225342438Y-60214285D01*
X225342438Y-60214285D02*
X225390057Y-60166666D01*
X225628152Y-59309523D02*
X226294819Y-59309523D01*
X225247200Y-59547618D02*
X225961485Y-59785713D01*
X225961485Y-59785713D02*
X225961485Y-59166666D01*
X200547931Y-57827982D02*
X200214598Y-57351791D01*
X199976503Y-57827982D02*
X199976503Y-56827982D01*
X199976503Y-56827982D02*
X200357455Y-56827982D01*
X200357455Y-56827982D02*
X200452693Y-56875601D01*
X200452693Y-56875601D02*
X200500312Y-56923220D01*
X200500312Y-56923220D02*
X200547931Y-57018458D01*
X200547931Y-57018458D02*
X200547931Y-57161315D01*
X200547931Y-57161315D02*
X200500312Y-57256553D01*
X200500312Y-57256553D02*
X200452693Y-57304172D01*
X200452693Y-57304172D02*
X200357455Y-57351791D01*
X200357455Y-57351791D02*
X199976503Y-57351791D01*
X200928884Y-56923220D02*
X200976503Y-56875601D01*
X200976503Y-56875601D02*
X201071741Y-56827982D01*
X201071741Y-56827982D02*
X201309836Y-56827982D01*
X201309836Y-56827982D02*
X201405074Y-56875601D01*
X201405074Y-56875601D02*
X201452693Y-56923220D01*
X201452693Y-56923220D02*
X201500312Y-57018458D01*
X201500312Y-57018458D02*
X201500312Y-57113696D01*
X201500312Y-57113696D02*
X201452693Y-57256553D01*
X201452693Y-57256553D02*
X200881265Y-57827982D01*
X200881265Y-57827982D02*
X201500312Y-57827982D01*
X222878531Y-49170456D02*
X222878531Y-49646646D01*
X222878531Y-49646646D02*
X221878531Y-49646646D01*
X221973769Y-48884741D02*
X221926150Y-48837122D01*
X221926150Y-48837122D02*
X221878531Y-48741884D01*
X221878531Y-48741884D02*
X221878531Y-48503789D01*
X221878531Y-48503789D02*
X221926150Y-48408551D01*
X221926150Y-48408551D02*
X221973769Y-48360932D01*
X221973769Y-48360932D02*
X222069007Y-48313313D01*
X222069007Y-48313313D02*
X222164245Y-48313313D01*
X222164245Y-48313313D02*
X222307102Y-48360932D01*
X222307102Y-48360932D02*
X222878531Y-48932360D01*
X222878531Y-48932360D02*
X222878531Y-48313313D01*
X203333333Y-54045180D02*
X203333333Y-53330895D01*
X203333333Y-53330895D02*
X203380952Y-53188038D01*
X203380952Y-53188038D02*
X203476190Y-53092800D01*
X203476190Y-53092800D02*
X203619047Y-53045180D01*
X203619047Y-53045180D02*
X203714285Y-53045180D01*
X202952380Y-54045180D02*
X202333333Y-54045180D01*
X202333333Y-54045180D02*
X202666666Y-53664228D01*
X202666666Y-53664228D02*
X202523809Y-53664228D01*
X202523809Y-53664228D02*
X202428571Y-53616609D01*
X202428571Y-53616609D02*
X202380952Y-53568990D01*
X202380952Y-53568990D02*
X202333333Y-53473752D01*
X202333333Y-53473752D02*
X202333333Y-53235657D01*
X202333333Y-53235657D02*
X202380952Y-53140419D01*
X202380952Y-53140419D02*
X202428571Y-53092800D01*
X202428571Y-53092800D02*
X202523809Y-53045180D01*
X202523809Y-53045180D02*
X202809523Y-53045180D01*
X202809523Y-53045180D02*
X202904761Y-53092800D01*
X202904761Y-53092800D02*
X202952380Y-53140419D01*
X219540761Y-49170456D02*
X219540761Y-49646646D01*
X219540761Y-49646646D02*
X218540761Y-49646646D01*
X219540761Y-48313313D02*
X219540761Y-48884741D01*
X219540761Y-48599027D02*
X218540761Y-48599027D01*
X218540761Y-48599027D02*
X218683618Y-48694265D01*
X218683618Y-48694265D02*
X218778856Y-48789503D01*
X218778856Y-48789503D02*
X218826475Y-48884741D01*
X224019580Y-60146666D02*
X224067200Y-60194285D01*
X224067200Y-60194285D02*
X224114819Y-60337142D01*
X224114819Y-60337142D02*
X224114819Y-60432380D01*
X224114819Y-60432380D02*
X224067200Y-60575237D01*
X224067200Y-60575237D02*
X223971961Y-60670475D01*
X223971961Y-60670475D02*
X223876723Y-60718094D01*
X223876723Y-60718094D02*
X223686247Y-60765713D01*
X223686247Y-60765713D02*
X223543390Y-60765713D01*
X223543390Y-60765713D02*
X223352914Y-60718094D01*
X223352914Y-60718094D02*
X223257676Y-60670475D01*
X223257676Y-60670475D02*
X223162438Y-60575237D01*
X223162438Y-60575237D02*
X223114819Y-60432380D01*
X223114819Y-60432380D02*
X223114819Y-60337142D01*
X223114819Y-60337142D02*
X223162438Y-60194285D01*
X223162438Y-60194285D02*
X223210057Y-60146666D01*
X224114819Y-59670475D02*
X224114819Y-59479999D01*
X224114819Y-59479999D02*
X224067200Y-59384761D01*
X224067200Y-59384761D02*
X224019580Y-59337142D01*
X224019580Y-59337142D02*
X223876723Y-59241904D01*
X223876723Y-59241904D02*
X223686247Y-59194285D01*
X223686247Y-59194285D02*
X223305295Y-59194285D01*
X223305295Y-59194285D02*
X223210057Y-59241904D01*
X223210057Y-59241904D02*
X223162438Y-59289523D01*
X223162438Y-59289523D02*
X223114819Y-59384761D01*
X223114819Y-59384761D02*
X223114819Y-59575237D01*
X223114819Y-59575237D02*
X223162438Y-59670475D01*
X223162438Y-59670475D02*
X223210057Y-59718094D01*
X223210057Y-59718094D02*
X223305295Y-59765713D01*
X223305295Y-59765713D02*
X223543390Y-59765713D01*
X223543390Y-59765713D02*
X223638628Y-59718094D01*
X223638628Y-59718094D02*
X223686247Y-59670475D01*
X223686247Y-59670475D02*
X223733866Y-59575237D01*
X223733866Y-59575237D02*
X223733866Y-59384761D01*
X223733866Y-59384761D02*
X223686247Y-59289523D01*
X223686247Y-59289523D02*
X223638628Y-59241904D01*
X223638628Y-59241904D02*
X223543390Y-59194285D01*
X223411589Y-49654796D02*
X223459209Y-49702415D01*
X223459209Y-49702415D02*
X223506828Y-49845272D01*
X223506828Y-49845272D02*
X223506828Y-49940510D01*
X223506828Y-49940510D02*
X223459209Y-50083367D01*
X223459209Y-50083367D02*
X223363970Y-50178605D01*
X223363970Y-50178605D02*
X223268732Y-50226224D01*
X223268732Y-50226224D02*
X223078256Y-50273843D01*
X223078256Y-50273843D02*
X222935399Y-50273843D01*
X222935399Y-50273843D02*
X222744923Y-50226224D01*
X222744923Y-50226224D02*
X222649685Y-50178605D01*
X222649685Y-50178605D02*
X222554447Y-50083367D01*
X222554447Y-50083367D02*
X222506828Y-49940510D01*
X222506828Y-49940510D02*
X222506828Y-49845272D01*
X222506828Y-49845272D02*
X222554447Y-49702415D01*
X222554447Y-49702415D02*
X222602066Y-49654796D01*
X223506828Y-48702415D02*
X223506828Y-49273843D01*
X223506828Y-48988129D02*
X222506828Y-48988129D01*
X222506828Y-48988129D02*
X222649685Y-49083367D01*
X222649685Y-49083367D02*
X222744923Y-49178605D01*
X222744923Y-49178605D02*
X222792542Y-49273843D01*
X222602066Y-48321462D02*
X222554447Y-48273843D01*
X222554447Y-48273843D02*
X222506828Y-48178605D01*
X222506828Y-48178605D02*
X222506828Y-47940510D01*
X222506828Y-47940510D02*
X222554447Y-47845272D01*
X222554447Y-47845272D02*
X222602066Y-47797653D01*
X222602066Y-47797653D02*
X222697304Y-47750034D01*
X222697304Y-47750034D02*
X222792542Y-47750034D01*
X222792542Y-47750034D02*
X222935399Y-47797653D01*
X222935399Y-47797653D02*
X223506828Y-48369081D01*
X223506828Y-48369081D02*
X223506828Y-47750034D01*
X222418831Y-49646647D02*
X222466451Y-49694266D01*
X222466451Y-49694266D02*
X222514070Y-49837123D01*
X222514070Y-49837123D02*
X222514070Y-49932361D01*
X222514070Y-49932361D02*
X222466451Y-50075218D01*
X222466451Y-50075218D02*
X222371212Y-50170456D01*
X222371212Y-50170456D02*
X222275974Y-50218075D01*
X222275974Y-50218075D02*
X222085498Y-50265694D01*
X222085498Y-50265694D02*
X221942641Y-50265694D01*
X221942641Y-50265694D02*
X221752165Y-50218075D01*
X221752165Y-50218075D02*
X221656927Y-50170456D01*
X221656927Y-50170456D02*
X221561689Y-50075218D01*
X221561689Y-50075218D02*
X221514070Y-49932361D01*
X221514070Y-49932361D02*
X221514070Y-49837123D01*
X221514070Y-49837123D02*
X221561689Y-49694266D01*
X221561689Y-49694266D02*
X221609308Y-49646647D01*
X222514070Y-48694266D02*
X222514070Y-49265694D01*
X222514070Y-48979980D02*
X221514070Y-48979980D01*
X221514070Y-48979980D02*
X221656927Y-49075218D01*
X221656927Y-49075218D02*
X221752165Y-49170456D01*
X221752165Y-49170456D02*
X221799784Y-49265694D01*
X222514070Y-47741885D02*
X222514070Y-48313313D01*
X222514070Y-48027599D02*
X221514070Y-48027599D01*
X221514070Y-48027599D02*
X221656927Y-48122837D01*
X221656927Y-48122837D02*
X221752165Y-48218075D01*
X221752165Y-48218075D02*
X221799784Y-48313313D01*
X220699580Y-60642857D02*
X220747200Y-60690476D01*
X220747200Y-60690476D02*
X220794819Y-60833333D01*
X220794819Y-60833333D02*
X220794819Y-60928571D01*
X220794819Y-60928571D02*
X220747200Y-61071428D01*
X220747200Y-61071428D02*
X220651961Y-61166666D01*
X220651961Y-61166666D02*
X220556723Y-61214285D01*
X220556723Y-61214285D02*
X220366247Y-61261904D01*
X220366247Y-61261904D02*
X220223390Y-61261904D01*
X220223390Y-61261904D02*
X220032914Y-61214285D01*
X220032914Y-61214285D02*
X219937676Y-61166666D01*
X219937676Y-61166666D02*
X219842438Y-61071428D01*
X219842438Y-61071428D02*
X219794819Y-60928571D01*
X219794819Y-60928571D02*
X219794819Y-60833333D01*
X219794819Y-60833333D02*
X219842438Y-60690476D01*
X219842438Y-60690476D02*
X219890057Y-60642857D01*
X219890057Y-60261904D02*
X219842438Y-60214285D01*
X219842438Y-60214285D02*
X219794819Y-60119047D01*
X219794819Y-60119047D02*
X219794819Y-59880952D01*
X219794819Y-59880952D02*
X219842438Y-59785714D01*
X219842438Y-59785714D02*
X219890057Y-59738095D01*
X219890057Y-59738095D02*
X219985295Y-59690476D01*
X219985295Y-59690476D02*
X220080533Y-59690476D01*
X220080533Y-59690476D02*
X220223390Y-59738095D01*
X220223390Y-59738095D02*
X220794819Y-60309523D01*
X220794819Y-60309523D02*
X220794819Y-59690476D01*
X219794819Y-59071428D02*
X219794819Y-58976190D01*
X219794819Y-58976190D02*
X219842438Y-58880952D01*
X219842438Y-58880952D02*
X219890057Y-58833333D01*
X219890057Y-58833333D02*
X219985295Y-58785714D01*
X219985295Y-58785714D02*
X220175771Y-58738095D01*
X220175771Y-58738095D02*
X220413866Y-58738095D01*
X220413866Y-58738095D02*
X220604342Y-58785714D01*
X220604342Y-58785714D02*
X220699580Y-58833333D01*
X220699580Y-58833333D02*
X220747200Y-58880952D01*
X220747200Y-58880952D02*
X220794819Y-58976190D01*
X220794819Y-58976190D02*
X220794819Y-59071428D01*
X220794819Y-59071428D02*
X220747200Y-59166666D01*
X220747200Y-59166666D02*
X220699580Y-59214285D01*
X220699580Y-59214285D02*
X220604342Y-59261904D01*
X220604342Y-59261904D02*
X220413866Y-59309523D01*
X220413866Y-59309523D02*
X220175771Y-59309523D01*
X220175771Y-59309523D02*
X219985295Y-59261904D01*
X219985295Y-59261904D02*
X219890057Y-59214285D01*
X219890057Y-59214285D02*
X219842438Y-59166666D01*
X219842438Y-59166666D02*
X219794819Y-59071428D01*
X228091514Y-56608456D02*
X227615324Y-56608456D01*
X227615324Y-56608456D02*
X227615324Y-55608456D01*
X228853419Y-55941789D02*
X228853419Y-56608456D01*
X228615324Y-55560837D02*
X228377229Y-56275122D01*
X228377229Y-56275122D02*
X228996276Y-56275122D01*
X234357142Y-50699580D02*
X234309523Y-50747200D01*
X234309523Y-50747200D02*
X234166666Y-50794819D01*
X234166666Y-50794819D02*
X234071428Y-50794819D01*
X234071428Y-50794819D02*
X233928571Y-50747200D01*
X233928571Y-50747200D02*
X233833333Y-50651961D01*
X233833333Y-50651961D02*
X233785714Y-50556723D01*
X233785714Y-50556723D02*
X233738095Y-50366247D01*
X233738095Y-50366247D02*
X233738095Y-50223390D01*
X233738095Y-50223390D02*
X233785714Y-50032914D01*
X233785714Y-50032914D02*
X233833333Y-49937676D01*
X233833333Y-49937676D02*
X233928571Y-49842438D01*
X233928571Y-49842438D02*
X234071428Y-49794819D01*
X234071428Y-49794819D02*
X234166666Y-49794819D01*
X234166666Y-49794819D02*
X234309523Y-49842438D01*
X234309523Y-49842438D02*
X234357142Y-49890057D01*
X235309523Y-50794819D02*
X234738095Y-50794819D01*
X235023809Y-50794819D02*
X235023809Y-49794819D01*
X235023809Y-49794819D02*
X234928571Y-49937676D01*
X234928571Y-49937676D02*
X234833333Y-50032914D01*
X234833333Y-50032914D02*
X234738095Y-50080533D01*
X236214285Y-49794819D02*
X235738095Y-49794819D01*
X235738095Y-49794819D02*
X235690476Y-50271009D01*
X235690476Y-50271009D02*
X235738095Y-50223390D01*
X235738095Y-50223390D02*
X235833333Y-50175771D01*
X235833333Y-50175771D02*
X236071428Y-50175771D01*
X236071428Y-50175771D02*
X236166666Y-50223390D01*
X236166666Y-50223390D02*
X236214285Y-50271009D01*
X236214285Y-50271009D02*
X236261904Y-50366247D01*
X236261904Y-50366247D02*
X236261904Y-50604342D01*
X236261904Y-50604342D02*
X236214285Y-50699580D01*
X236214285Y-50699580D02*
X236166666Y-50747200D01*
X236166666Y-50747200D02*
X236071428Y-50794819D01*
X236071428Y-50794819D02*
X235833333Y-50794819D01*
X235833333Y-50794819D02*
X235738095Y-50747200D01*
X235738095Y-50747200D02*
X235690476Y-50699580D01*
X217086455Y-56273525D02*
X216753122Y-55797334D01*
X216515027Y-56273525D02*
X216515027Y-55273525D01*
X216515027Y-55273525D02*
X216895979Y-55273525D01*
X216895979Y-55273525D02*
X216991217Y-55321144D01*
X216991217Y-55321144D02*
X217038836Y-55368763D01*
X217038836Y-55368763D02*
X217086455Y-55464001D01*
X217086455Y-55464001D02*
X217086455Y-55606858D01*
X217086455Y-55606858D02*
X217038836Y-55702096D01*
X217038836Y-55702096D02*
X216991217Y-55749715D01*
X216991217Y-55749715D02*
X216895979Y-55797334D01*
X216895979Y-55797334D02*
X216515027Y-55797334D01*
X217419789Y-55273525D02*
X218086455Y-55273525D01*
X218086455Y-55273525D02*
X217657884Y-56273525D01*
X216637886Y-49699580D02*
X216590267Y-49747200D01*
X216590267Y-49747200D02*
X216447410Y-49794819D01*
X216447410Y-49794819D02*
X216352172Y-49794819D01*
X216352172Y-49794819D02*
X216209315Y-49747200D01*
X216209315Y-49747200D02*
X216114077Y-49651961D01*
X216114077Y-49651961D02*
X216066458Y-49556723D01*
X216066458Y-49556723D02*
X216018839Y-49366247D01*
X216018839Y-49366247D02*
X216018839Y-49223390D01*
X216018839Y-49223390D02*
X216066458Y-49032914D01*
X216066458Y-49032914D02*
X216114077Y-48937676D01*
X216114077Y-48937676D02*
X216209315Y-48842438D01*
X216209315Y-48842438D02*
X216352172Y-48794819D01*
X216352172Y-48794819D02*
X216447410Y-48794819D01*
X216447410Y-48794819D02*
X216590267Y-48842438D01*
X216590267Y-48842438D02*
X216637886Y-48890057D01*
X217590267Y-49794819D02*
X217018839Y-49794819D01*
X217304553Y-49794819D02*
X217304553Y-48794819D01*
X217304553Y-48794819D02*
X217209315Y-48937676D01*
X217209315Y-48937676D02*
X217114077Y-49032914D01*
X217114077Y-49032914D02*
X217018839Y-49080533D01*
X218447410Y-49128152D02*
X218447410Y-49794819D01*
X218209315Y-48747200D02*
X217971220Y-49461485D01*
X217971220Y-49461485D02*
X218590267Y-49461485D01*
X225019580Y-60166666D02*
X225067200Y-60214285D01*
X225067200Y-60214285D02*
X225114819Y-60357142D01*
X225114819Y-60357142D02*
X225114819Y-60452380D01*
X225114819Y-60452380D02*
X225067200Y-60595237D01*
X225067200Y-60595237D02*
X224971961Y-60690475D01*
X224971961Y-60690475D02*
X224876723Y-60738094D01*
X224876723Y-60738094D02*
X224686247Y-60785713D01*
X224686247Y-60785713D02*
X224543390Y-60785713D01*
X224543390Y-60785713D02*
X224352914Y-60738094D01*
X224352914Y-60738094D02*
X224257676Y-60690475D01*
X224257676Y-60690475D02*
X224162438Y-60595237D01*
X224162438Y-60595237D02*
X224114819Y-60452380D01*
X224114819Y-60452380D02*
X224114819Y-60357142D01*
X224114819Y-60357142D02*
X224162438Y-60214285D01*
X224162438Y-60214285D02*
X224210057Y-60166666D01*
X224543390Y-59595237D02*
X224495771Y-59690475D01*
X224495771Y-59690475D02*
X224448152Y-59738094D01*
X224448152Y-59738094D02*
X224352914Y-59785713D01*
X224352914Y-59785713D02*
X224305295Y-59785713D01*
X224305295Y-59785713D02*
X224210057Y-59738094D01*
X224210057Y-59738094D02*
X224162438Y-59690475D01*
X224162438Y-59690475D02*
X224114819Y-59595237D01*
X224114819Y-59595237D02*
X224114819Y-59404761D01*
X224114819Y-59404761D02*
X224162438Y-59309523D01*
X224162438Y-59309523D02*
X224210057Y-59261904D01*
X224210057Y-59261904D02*
X224305295Y-59214285D01*
X224305295Y-59214285D02*
X224352914Y-59214285D01*
X224352914Y-59214285D02*
X224448152Y-59261904D01*
X224448152Y-59261904D02*
X224495771Y-59309523D01*
X224495771Y-59309523D02*
X224543390Y-59404761D01*
X224543390Y-59404761D02*
X224543390Y-59595237D01*
X224543390Y-59595237D02*
X224591009Y-59690475D01*
X224591009Y-59690475D02*
X224638628Y-59738094D01*
X224638628Y-59738094D02*
X224733866Y-59785713D01*
X224733866Y-59785713D02*
X224924342Y-59785713D01*
X224924342Y-59785713D02*
X225019580Y-59738094D01*
X225019580Y-59738094D02*
X225067200Y-59690475D01*
X225067200Y-59690475D02*
X225114819Y-59595237D01*
X225114819Y-59595237D02*
X225114819Y-59404761D01*
X225114819Y-59404761D02*
X225067200Y-59309523D01*
X225067200Y-59309523D02*
X225019580Y-59261904D01*
X225019580Y-59261904D02*
X224924342Y-59214285D01*
X224924342Y-59214285D02*
X224733866Y-59214285D01*
X224733866Y-59214285D02*
X224638628Y-59261904D01*
X224638628Y-59261904D02*
X224591009Y-59309523D01*
X224591009Y-59309523D02*
X224543390Y-59404761D01*
X210459305Y-59884819D02*
X210459305Y-58884819D01*
X210459305Y-58884819D02*
X210697400Y-58884819D01*
X210697400Y-58884819D02*
X210840257Y-58932438D01*
X210840257Y-58932438D02*
X210935495Y-59027676D01*
X210935495Y-59027676D02*
X210983114Y-59122914D01*
X210983114Y-59122914D02*
X211030733Y-59313390D01*
X211030733Y-59313390D02*
X211030733Y-59456247D01*
X211030733Y-59456247D02*
X210983114Y-59646723D01*
X210983114Y-59646723D02*
X210935495Y-59741961D01*
X210935495Y-59741961D02*
X210840257Y-59837200D01*
X210840257Y-59837200D02*
X210697400Y-59884819D01*
X210697400Y-59884819D02*
X210459305Y-59884819D01*
X211983114Y-59884819D02*
X211411686Y-59884819D01*
X211697400Y-59884819D02*
X211697400Y-58884819D01*
X211697400Y-58884819D02*
X211602162Y-59027676D01*
X211602162Y-59027676D02*
X211506924Y-59122914D01*
X211506924Y-59122914D02*
X211411686Y-59170533D01*
X210833333Y-55699580D02*
X210785714Y-55747200D01*
X210785714Y-55747200D02*
X210642857Y-55794819D01*
X210642857Y-55794819D02*
X210547619Y-55794819D01*
X210547619Y-55794819D02*
X210404762Y-55747200D01*
X210404762Y-55747200D02*
X210309524Y-55651961D01*
X210309524Y-55651961D02*
X210261905Y-55556723D01*
X210261905Y-55556723D02*
X210214286Y-55366247D01*
X210214286Y-55366247D02*
X210214286Y-55223390D01*
X210214286Y-55223390D02*
X210261905Y-55032914D01*
X210261905Y-55032914D02*
X210309524Y-54937676D01*
X210309524Y-54937676D02*
X210404762Y-54842438D01*
X210404762Y-54842438D02*
X210547619Y-54794819D01*
X210547619Y-54794819D02*
X210642857Y-54794819D01*
X210642857Y-54794819D02*
X210785714Y-54842438D01*
X210785714Y-54842438D02*
X210833333Y-54890057D01*
X211785714Y-55794819D02*
X211214286Y-55794819D01*
X211500000Y-55794819D02*
X211500000Y-54794819D01*
X211500000Y-54794819D02*
X211404762Y-54937676D01*
X211404762Y-54937676D02*
X211309524Y-55032914D01*
X211309524Y-55032914D02*
X211214286Y-55080533D01*
X205027931Y-55487982D02*
X204694598Y-55011791D01*
X204456503Y-55487982D02*
X204456503Y-54487982D01*
X204456503Y-54487982D02*
X204837455Y-54487982D01*
X204837455Y-54487982D02*
X204932693Y-54535601D01*
X204932693Y-54535601D02*
X204980312Y-54583220D01*
X204980312Y-54583220D02*
X205027931Y-54678458D01*
X205027931Y-54678458D02*
X205027931Y-54821315D01*
X205027931Y-54821315D02*
X204980312Y-54916553D01*
X204980312Y-54916553D02*
X204932693Y-54964172D01*
X204932693Y-54964172D02*
X204837455Y-55011791D01*
X204837455Y-55011791D02*
X204456503Y-55011791D01*
X205980312Y-55487982D02*
X205408884Y-55487982D01*
X205694598Y-55487982D02*
X205694598Y-54487982D01*
X205694598Y-54487982D02*
X205599360Y-54630839D01*
X205599360Y-54630839D02*
X205504122Y-54726077D01*
X205504122Y-54726077D02*
X205408884Y-54773696D01*
X223761061Y-49170456D02*
X223808681Y-49218075D01*
X223808681Y-49218075D02*
X223856300Y-49360932D01*
X223856300Y-49360932D02*
X223856300Y-49456170D01*
X223856300Y-49456170D02*
X223808681Y-49599027D01*
X223808681Y-49599027D02*
X223713442Y-49694265D01*
X223713442Y-49694265D02*
X223618204Y-49741884D01*
X223618204Y-49741884D02*
X223427728Y-49789503D01*
X223427728Y-49789503D02*
X223284871Y-49789503D01*
X223284871Y-49789503D02*
X223094395Y-49741884D01*
X223094395Y-49741884D02*
X222999157Y-49694265D01*
X222999157Y-49694265D02*
X222903919Y-49599027D01*
X222903919Y-49599027D02*
X222856300Y-49456170D01*
X222856300Y-49456170D02*
X222856300Y-49360932D01*
X222856300Y-49360932D02*
X222903919Y-49218075D01*
X222903919Y-49218075D02*
X222951538Y-49170456D01*
X222856300Y-48265694D02*
X222856300Y-48741884D01*
X222856300Y-48741884D02*
X223332490Y-48789503D01*
X223332490Y-48789503D02*
X223284871Y-48741884D01*
X223284871Y-48741884D02*
X223237252Y-48646646D01*
X223237252Y-48646646D02*
X223237252Y-48408551D01*
X223237252Y-48408551D02*
X223284871Y-48313313D01*
X223284871Y-48313313D02*
X223332490Y-48265694D01*
X223332490Y-48265694D02*
X223427728Y-48218075D01*
X223427728Y-48218075D02*
X223665823Y-48218075D01*
X223665823Y-48218075D02*
X223761061Y-48265694D01*
X223761061Y-48265694D02*
X223808681Y-48313313D01*
X223808681Y-48313313D02*
X223856300Y-48408551D01*
X223856300Y-48408551D02*
X223856300Y-48646646D01*
X223856300Y-48646646D02*
X223808681Y-48741884D01*
X223808681Y-48741884D02*
X223761061Y-48789503D01*
X227589415Y-50194273D02*
X227541796Y-50241893D01*
X227541796Y-50241893D02*
X227398939Y-50289512D01*
X227398939Y-50289512D02*
X227303701Y-50289512D01*
X227303701Y-50289512D02*
X227160844Y-50241893D01*
X227160844Y-50241893D02*
X227065606Y-50146654D01*
X227065606Y-50146654D02*
X227017987Y-50051416D01*
X227017987Y-50051416D02*
X226970368Y-49860940D01*
X226970368Y-49860940D02*
X226970368Y-49718083D01*
X226970368Y-49718083D02*
X227017987Y-49527607D01*
X227017987Y-49527607D02*
X227065606Y-49432369D01*
X227065606Y-49432369D02*
X227160844Y-49337131D01*
X227160844Y-49337131D02*
X227303701Y-49289512D01*
X227303701Y-49289512D02*
X227398939Y-49289512D01*
X227398939Y-49289512D02*
X227541796Y-49337131D01*
X227541796Y-49337131D02*
X227589415Y-49384750D01*
X228541796Y-50289512D02*
X227970368Y-50289512D01*
X228256082Y-50289512D02*
X228256082Y-49289512D01*
X228256082Y-49289512D02*
X228160844Y-49432369D01*
X228160844Y-49432369D02*
X228065606Y-49527607D01*
X228065606Y-49527607D02*
X227970368Y-49575226D01*
X229017987Y-50289512D02*
X229208463Y-50289512D01*
X229208463Y-50289512D02*
X229303701Y-50241893D01*
X229303701Y-50241893D02*
X229351320Y-50194273D01*
X229351320Y-50194273D02*
X229446558Y-50051416D01*
X229446558Y-50051416D02*
X229494177Y-49860940D01*
X229494177Y-49860940D02*
X229494177Y-49479988D01*
X229494177Y-49479988D02*
X229446558Y-49384750D01*
X229446558Y-49384750D02*
X229398939Y-49337131D01*
X229398939Y-49337131D02*
X229303701Y-49289512D01*
X229303701Y-49289512D02*
X229113225Y-49289512D01*
X229113225Y-49289512D02*
X229017987Y-49337131D01*
X229017987Y-49337131D02*
X228970368Y-49384750D01*
X228970368Y-49384750D02*
X228922749Y-49479988D01*
X228922749Y-49479988D02*
X228922749Y-49718083D01*
X228922749Y-49718083D02*
X228970368Y-49813321D01*
X228970368Y-49813321D02*
X229017987Y-49860940D01*
X229017987Y-49860940D02*
X229113225Y-49908559D01*
X229113225Y-49908559D02*
X229303701Y-49908559D01*
X229303701Y-49908559D02*
X229398939Y-49860940D01*
X229398939Y-49860940D02*
X229446558Y-49813321D01*
X229446558Y-49813321D02*
X229494177Y-49718083D01*
X216637886Y-51699580D02*
X216590267Y-51747200D01*
X216590267Y-51747200D02*
X216447410Y-51794819D01*
X216447410Y-51794819D02*
X216352172Y-51794819D01*
X216352172Y-51794819D02*
X216209315Y-51747200D01*
X216209315Y-51747200D02*
X216114077Y-51651961D01*
X216114077Y-51651961D02*
X216066458Y-51556723D01*
X216066458Y-51556723D02*
X216018839Y-51366247D01*
X216018839Y-51366247D02*
X216018839Y-51223390D01*
X216018839Y-51223390D02*
X216066458Y-51032914D01*
X216066458Y-51032914D02*
X216114077Y-50937676D01*
X216114077Y-50937676D02*
X216209315Y-50842438D01*
X216209315Y-50842438D02*
X216352172Y-50794819D01*
X216352172Y-50794819D02*
X216447410Y-50794819D01*
X216447410Y-50794819D02*
X216590267Y-50842438D01*
X216590267Y-50842438D02*
X216637886Y-50890057D01*
X217590267Y-51794819D02*
X217018839Y-51794819D01*
X217304553Y-51794819D02*
X217304553Y-50794819D01*
X217304553Y-50794819D02*
X217209315Y-50937676D01*
X217209315Y-50937676D02*
X217114077Y-51032914D01*
X217114077Y-51032914D02*
X217018839Y-51080533D01*
X217923601Y-50794819D02*
X218542648Y-50794819D01*
X218542648Y-50794819D02*
X218209315Y-51175771D01*
X218209315Y-51175771D02*
X218352172Y-51175771D01*
X218352172Y-51175771D02*
X218447410Y-51223390D01*
X218447410Y-51223390D02*
X218495029Y-51271009D01*
X218495029Y-51271009D02*
X218542648Y-51366247D01*
X218542648Y-51366247D02*
X218542648Y-51604342D01*
X218542648Y-51604342D02*
X218495029Y-51699580D01*
X218495029Y-51699580D02*
X218447410Y-51747200D01*
X218447410Y-51747200D02*
X218352172Y-51794819D01*
X218352172Y-51794819D02*
X218066458Y-51794819D01*
X218066458Y-51794819D02*
X217971220Y-51747200D01*
X217971220Y-51747200D02*
X217923601Y-51699580D01*
X211833333Y-48699580D02*
X211785714Y-48747200D01*
X211785714Y-48747200D02*
X211642857Y-48794819D01*
X211642857Y-48794819D02*
X211547619Y-48794819D01*
X211547619Y-48794819D02*
X211404762Y-48747200D01*
X211404762Y-48747200D02*
X211309524Y-48651961D01*
X211309524Y-48651961D02*
X211261905Y-48556723D01*
X211261905Y-48556723D02*
X211214286Y-48366247D01*
X211214286Y-48366247D02*
X211214286Y-48223390D01*
X211214286Y-48223390D02*
X211261905Y-48032914D01*
X211261905Y-48032914D02*
X211309524Y-47937676D01*
X211309524Y-47937676D02*
X211404762Y-47842438D01*
X211404762Y-47842438D02*
X211547619Y-47794819D01*
X211547619Y-47794819D02*
X211642857Y-47794819D01*
X211642857Y-47794819D02*
X211785714Y-47842438D01*
X211785714Y-47842438D02*
X211833333Y-47890057D01*
X212166667Y-47794819D02*
X212785714Y-47794819D01*
X212785714Y-47794819D02*
X212452381Y-48175771D01*
X212452381Y-48175771D02*
X212595238Y-48175771D01*
X212595238Y-48175771D02*
X212690476Y-48223390D01*
X212690476Y-48223390D02*
X212738095Y-48271009D01*
X212738095Y-48271009D02*
X212785714Y-48366247D01*
X212785714Y-48366247D02*
X212785714Y-48604342D01*
X212785714Y-48604342D02*
X212738095Y-48699580D01*
X212738095Y-48699580D02*
X212690476Y-48747200D01*
X212690476Y-48747200D02*
X212595238Y-48794819D01*
X212595238Y-48794819D02*
X212309524Y-48794819D01*
X212309524Y-48794819D02*
X212214286Y-48747200D01*
X212214286Y-48747200D02*
X212166667Y-48699580D01*
X226019580Y-60146666D02*
X226067200Y-60194285D01*
X226067200Y-60194285D02*
X226114819Y-60337142D01*
X226114819Y-60337142D02*
X226114819Y-60432380D01*
X226114819Y-60432380D02*
X226067200Y-60575237D01*
X226067200Y-60575237D02*
X225971961Y-60670475D01*
X225971961Y-60670475D02*
X225876723Y-60718094D01*
X225876723Y-60718094D02*
X225686247Y-60765713D01*
X225686247Y-60765713D02*
X225543390Y-60765713D01*
X225543390Y-60765713D02*
X225352914Y-60718094D01*
X225352914Y-60718094D02*
X225257676Y-60670475D01*
X225257676Y-60670475D02*
X225162438Y-60575237D01*
X225162438Y-60575237D02*
X225114819Y-60432380D01*
X225114819Y-60432380D02*
X225114819Y-60337142D01*
X225114819Y-60337142D02*
X225162438Y-60194285D01*
X225162438Y-60194285D02*
X225210057Y-60146666D01*
X225114819Y-59813332D02*
X225114819Y-59146666D01*
X225114819Y-59146666D02*
X226114819Y-59575237D01*
X227615323Y-53149066D02*
X227567704Y-53196686D01*
X227567704Y-53196686D02*
X227424847Y-53244305D01*
X227424847Y-53244305D02*
X227329609Y-53244305D01*
X227329609Y-53244305D02*
X227186752Y-53196686D01*
X227186752Y-53196686D02*
X227091514Y-53101447D01*
X227091514Y-53101447D02*
X227043895Y-53006209D01*
X227043895Y-53006209D02*
X226996276Y-52815733D01*
X226996276Y-52815733D02*
X226996276Y-52672876D01*
X226996276Y-52672876D02*
X227043895Y-52482400D01*
X227043895Y-52482400D02*
X227091514Y-52387162D01*
X227091514Y-52387162D02*
X227186752Y-52291924D01*
X227186752Y-52291924D02*
X227329609Y-52244305D01*
X227329609Y-52244305D02*
X227424847Y-52244305D01*
X227424847Y-52244305D02*
X227567704Y-52291924D01*
X227567704Y-52291924D02*
X227615323Y-52339543D01*
X228567704Y-53244305D02*
X227996276Y-53244305D01*
X228281990Y-53244305D02*
X228281990Y-52244305D01*
X228281990Y-52244305D02*
X228186752Y-52387162D01*
X228186752Y-52387162D02*
X228091514Y-52482400D01*
X228091514Y-52482400D02*
X227996276Y-52530019D01*
X229139133Y-52672876D02*
X229043895Y-52625257D01*
X229043895Y-52625257D02*
X228996276Y-52577638D01*
X228996276Y-52577638D02*
X228948657Y-52482400D01*
X228948657Y-52482400D02*
X228948657Y-52434781D01*
X228948657Y-52434781D02*
X228996276Y-52339543D01*
X228996276Y-52339543D02*
X229043895Y-52291924D01*
X229043895Y-52291924D02*
X229139133Y-52244305D01*
X229139133Y-52244305D02*
X229329609Y-52244305D01*
X229329609Y-52244305D02*
X229424847Y-52291924D01*
X229424847Y-52291924D02*
X229472466Y-52339543D01*
X229472466Y-52339543D02*
X229520085Y-52434781D01*
X229520085Y-52434781D02*
X229520085Y-52482400D01*
X229520085Y-52482400D02*
X229472466Y-52577638D01*
X229472466Y-52577638D02*
X229424847Y-52625257D01*
X229424847Y-52625257D02*
X229329609Y-52672876D01*
X229329609Y-52672876D02*
X229139133Y-52672876D01*
X229139133Y-52672876D02*
X229043895Y-52720495D01*
X229043895Y-52720495D02*
X228996276Y-52768114D01*
X228996276Y-52768114D02*
X228948657Y-52863352D01*
X228948657Y-52863352D02*
X228948657Y-53053828D01*
X228948657Y-53053828D02*
X228996276Y-53149066D01*
X228996276Y-53149066D02*
X229043895Y-53196686D01*
X229043895Y-53196686D02*
X229139133Y-53244305D01*
X229139133Y-53244305D02*
X229329609Y-53244305D01*
X229329609Y-53244305D02*
X229424847Y-53196686D01*
X229424847Y-53196686D02*
X229472466Y-53149066D01*
X229472466Y-53149066D02*
X229520085Y-53053828D01*
X229520085Y-53053828D02*
X229520085Y-52863352D01*
X229520085Y-52863352D02*
X229472466Y-52768114D01*
X229472466Y-52768114D02*
X229424847Y-52720495D01*
X229424847Y-52720495D02*
X229329609Y-52672876D01*
X221988095Y-49474547D02*
X221988095Y-50284070D01*
X221988095Y-50284070D02*
X222035714Y-50379308D01*
X222035714Y-50379308D02*
X222083333Y-50426928D01*
X222083333Y-50426928D02*
X222178571Y-50474547D01*
X222178571Y-50474547D02*
X222369047Y-50474547D01*
X222369047Y-50474547D02*
X222464285Y-50426928D01*
X222464285Y-50426928D02*
X222511904Y-50379308D01*
X222511904Y-50379308D02*
X222559523Y-50284070D01*
X222559523Y-50284070D02*
X222559523Y-49474547D01*
X222988095Y-49569785D02*
X223035714Y-49522166D01*
X223035714Y-49522166D02*
X223130952Y-49474547D01*
X223130952Y-49474547D02*
X223369047Y-49474547D01*
X223369047Y-49474547D02*
X223464285Y-49522166D01*
X223464285Y-49522166D02*
X223511904Y-49569785D01*
X223511904Y-49569785D02*
X223559523Y-49665023D01*
X223559523Y-49665023D02*
X223559523Y-49760261D01*
X223559523Y-49760261D02*
X223511904Y-49903118D01*
X223511904Y-49903118D02*
X222940476Y-50474547D01*
X222940476Y-50474547D02*
X223559523Y-50474547D01*
X232404761Y-54977423D02*
X232309523Y-54929804D01*
X232309523Y-54929804D02*
X232214285Y-54834566D01*
X232214285Y-54834566D02*
X232071428Y-54691708D01*
X232071428Y-54691708D02*
X231976190Y-54644089D01*
X231976190Y-54644089D02*
X231880952Y-54644089D01*
X231928571Y-54882185D02*
X231833333Y-54834566D01*
X231833333Y-54834566D02*
X231738095Y-54739327D01*
X231738095Y-54739327D02*
X231690476Y-54548851D01*
X231690476Y-54548851D02*
X231690476Y-54215518D01*
X231690476Y-54215518D02*
X231738095Y-54025042D01*
X231738095Y-54025042D02*
X231833333Y-53929804D01*
X231833333Y-53929804D02*
X231928571Y-53882185D01*
X231928571Y-53882185D02*
X232119047Y-53882185D01*
X232119047Y-53882185D02*
X232214285Y-53929804D01*
X232214285Y-53929804D02*
X232309523Y-54025042D01*
X232309523Y-54025042D02*
X232357142Y-54215518D01*
X232357142Y-54215518D02*
X232357142Y-54548851D01*
X232357142Y-54548851D02*
X232309523Y-54739327D01*
X232309523Y-54739327D02*
X232214285Y-54834566D01*
X232214285Y-54834566D02*
X232119047Y-54882185D01*
X232119047Y-54882185D02*
X231928571Y-54882185D01*
X233309523Y-54882185D02*
X232738095Y-54882185D01*
X233023809Y-54882185D02*
X233023809Y-53882185D01*
X233023809Y-53882185D02*
X232928571Y-54025042D01*
X232928571Y-54025042D02*
X232833333Y-54120280D01*
X232833333Y-54120280D02*
X232738095Y-54167899D01*
X222019580Y-60166666D02*
X222067200Y-60214285D01*
X222067200Y-60214285D02*
X222114819Y-60357142D01*
X222114819Y-60357142D02*
X222114819Y-60452380D01*
X222114819Y-60452380D02*
X222067200Y-60595237D01*
X222067200Y-60595237D02*
X221971961Y-60690475D01*
X221971961Y-60690475D02*
X221876723Y-60738094D01*
X221876723Y-60738094D02*
X221686247Y-60785713D01*
X221686247Y-60785713D02*
X221543390Y-60785713D01*
X221543390Y-60785713D02*
X221352914Y-60738094D01*
X221352914Y-60738094D02*
X221257676Y-60690475D01*
X221257676Y-60690475D02*
X221162438Y-60595237D01*
X221162438Y-60595237D02*
X221114819Y-60452380D01*
X221114819Y-60452380D02*
X221114819Y-60357142D01*
X221114819Y-60357142D02*
X221162438Y-60214285D01*
X221162438Y-60214285D02*
X221210057Y-60166666D01*
X221114819Y-59309523D02*
X221114819Y-59499999D01*
X221114819Y-59499999D02*
X221162438Y-59595237D01*
X221162438Y-59595237D02*
X221210057Y-59642856D01*
X221210057Y-59642856D02*
X221352914Y-59738094D01*
X221352914Y-59738094D02*
X221543390Y-59785713D01*
X221543390Y-59785713D02*
X221924342Y-59785713D01*
X221924342Y-59785713D02*
X222019580Y-59738094D01*
X222019580Y-59738094D02*
X222067200Y-59690475D01*
X222067200Y-59690475D02*
X222114819Y-59595237D01*
X222114819Y-59595237D02*
X222114819Y-59404761D01*
X222114819Y-59404761D02*
X222067200Y-59309523D01*
X222067200Y-59309523D02*
X222019580Y-59261904D01*
X222019580Y-59261904D02*
X221924342Y-59214285D01*
X221924342Y-59214285D02*
X221686247Y-59214285D01*
X221686247Y-59214285D02*
X221591009Y-59261904D01*
X221591009Y-59261904D02*
X221543390Y-59309523D01*
X221543390Y-59309523D02*
X221495771Y-59404761D01*
X221495771Y-59404761D02*
X221495771Y-59595237D01*
X221495771Y-59595237D02*
X221543390Y-59690475D01*
X221543390Y-59690475D02*
X221591009Y-59738094D01*
X221591009Y-59738094D02*
X221686247Y-59785713D01*
X235354819Y-54853061D02*
X236069104Y-54853061D01*
X236069104Y-54853061D02*
X236211961Y-54900680D01*
X236211961Y-54900680D02*
X236307200Y-54995918D01*
X236307200Y-54995918D02*
X236354819Y-55138775D01*
X236354819Y-55138775D02*
X236354819Y-55234013D01*
X235688152Y-53948299D02*
X236354819Y-53948299D01*
X235307200Y-54186394D02*
X236021485Y-54424489D01*
X236021485Y-54424489D02*
X236021485Y-53805442D01*
X211097995Y-51913525D02*
X211097995Y-52723048D01*
X211097995Y-52723048D02*
X211145614Y-52818286D01*
X211145614Y-52818286D02*
X211193233Y-52865906D01*
X211193233Y-52865906D02*
X211288471Y-52913525D01*
X211288471Y-52913525D02*
X211478947Y-52913525D01*
X211478947Y-52913525D02*
X211574185Y-52865906D01*
X211574185Y-52865906D02*
X211621804Y-52818286D01*
X211621804Y-52818286D02*
X211669423Y-52723048D01*
X211669423Y-52723048D02*
X211669423Y-51913525D01*
X212669423Y-52913525D02*
X212097995Y-52913525D01*
X212383709Y-52913525D02*
X212383709Y-51913525D01*
X212383709Y-51913525D02*
X212288471Y-52056382D01*
X212288471Y-52056382D02*
X212193233Y-52151620D01*
X212193233Y-52151620D02*
X212097995Y-52199239D01*
X228091514Y-55268456D02*
X227758181Y-54792265D01*
X227520086Y-55268456D02*
X227520086Y-54268456D01*
X227520086Y-54268456D02*
X227901038Y-54268456D01*
X227901038Y-54268456D02*
X227996276Y-54316075D01*
X227996276Y-54316075D02*
X228043895Y-54363694D01*
X228043895Y-54363694D02*
X228091514Y-54458932D01*
X228091514Y-54458932D02*
X228091514Y-54601789D01*
X228091514Y-54601789D02*
X228043895Y-54697027D01*
X228043895Y-54697027D02*
X227996276Y-54744646D01*
X227996276Y-54744646D02*
X227901038Y-54792265D01*
X227901038Y-54792265D02*
X227520086Y-54792265D01*
X228996276Y-54268456D02*
X228520086Y-54268456D01*
X228520086Y-54268456D02*
X228472467Y-54744646D01*
X228472467Y-54744646D02*
X228520086Y-54697027D01*
X228520086Y-54697027D02*
X228615324Y-54649408D01*
X228615324Y-54649408D02*
X228853419Y-54649408D01*
X228853419Y-54649408D02*
X228948657Y-54697027D01*
X228948657Y-54697027D02*
X228996276Y-54744646D01*
X228996276Y-54744646D02*
X229043895Y-54839884D01*
X229043895Y-54839884D02*
X229043895Y-55077979D01*
X229043895Y-55077979D02*
X228996276Y-55173217D01*
X228996276Y-55173217D02*
X228948657Y-55220837D01*
X228948657Y-55220837D02*
X228853419Y-55268456D01*
X228853419Y-55268456D02*
X228615324Y-55268456D01*
X228615324Y-55268456D02*
X228520086Y-55220837D01*
X228520086Y-55220837D02*
X228472467Y-55173217D01*
X227615323Y-53154938D02*
X227567704Y-53202558D01*
X227567704Y-53202558D02*
X227424847Y-53250177D01*
X227424847Y-53250177D02*
X227329609Y-53250177D01*
X227329609Y-53250177D02*
X227186752Y-53202558D01*
X227186752Y-53202558D02*
X227091514Y-53107319D01*
X227091514Y-53107319D02*
X227043895Y-53012081D01*
X227043895Y-53012081D02*
X226996276Y-52821605D01*
X226996276Y-52821605D02*
X226996276Y-52678748D01*
X226996276Y-52678748D02*
X227043895Y-52488272D01*
X227043895Y-52488272D02*
X227091514Y-52393034D01*
X227091514Y-52393034D02*
X227186752Y-52297796D01*
X227186752Y-52297796D02*
X227329609Y-52250177D01*
X227329609Y-52250177D02*
X227424847Y-52250177D01*
X227424847Y-52250177D02*
X227567704Y-52297796D01*
X227567704Y-52297796D02*
X227615323Y-52345415D01*
X228567704Y-53250177D02*
X227996276Y-53250177D01*
X228281990Y-53250177D02*
X228281990Y-52250177D01*
X228281990Y-52250177D02*
X228186752Y-52393034D01*
X228186752Y-52393034D02*
X228091514Y-52488272D01*
X228091514Y-52488272D02*
X227996276Y-52535891D01*
X228901038Y-52250177D02*
X229567704Y-52250177D01*
X229567704Y-52250177D02*
X229139133Y-53250177D01*
X228091514Y-51269904D02*
X227758181Y-50793713D01*
X227520086Y-51269904D02*
X227520086Y-50269904D01*
X227520086Y-50269904D02*
X227901038Y-50269904D01*
X227901038Y-50269904D02*
X227996276Y-50317523D01*
X227996276Y-50317523D02*
X228043895Y-50365142D01*
X228043895Y-50365142D02*
X228091514Y-50460380D01*
X228091514Y-50460380D02*
X228091514Y-50603237D01*
X228091514Y-50603237D02*
X228043895Y-50698475D01*
X228043895Y-50698475D02*
X227996276Y-50746094D01*
X227996276Y-50746094D02*
X227901038Y-50793713D01*
X227901038Y-50793713D02*
X227520086Y-50793713D01*
X228567705Y-51269904D02*
X228758181Y-51269904D01*
X228758181Y-51269904D02*
X228853419Y-51222285D01*
X228853419Y-51222285D02*
X228901038Y-51174665D01*
X228901038Y-51174665D02*
X228996276Y-51031808D01*
X228996276Y-51031808D02*
X229043895Y-50841332D01*
X229043895Y-50841332D02*
X229043895Y-50460380D01*
X229043895Y-50460380D02*
X228996276Y-50365142D01*
X228996276Y-50365142D02*
X228948657Y-50317523D01*
X228948657Y-50317523D02*
X228853419Y-50269904D01*
X228853419Y-50269904D02*
X228662943Y-50269904D01*
X228662943Y-50269904D02*
X228567705Y-50317523D01*
X228567705Y-50317523D02*
X228520086Y-50365142D01*
X228520086Y-50365142D02*
X228472467Y-50460380D01*
X228472467Y-50460380D02*
X228472467Y-50698475D01*
X228472467Y-50698475D02*
X228520086Y-50793713D01*
X228520086Y-50793713D02*
X228567705Y-50841332D01*
X228567705Y-50841332D02*
X228662943Y-50888951D01*
X228662943Y-50888951D02*
X228853419Y-50888951D01*
X228853419Y-50888951D02*
X228948657Y-50841332D01*
X228948657Y-50841332D02*
X228996276Y-50793713D01*
X228996276Y-50793713D02*
X229043895Y-50698475D01*
X199106561Y-59927819D02*
X199106561Y-60642104D01*
X199106561Y-60642104D02*
X199058942Y-60784961D01*
X199058942Y-60784961D02*
X198963704Y-60880200D01*
X198963704Y-60880200D02*
X198820847Y-60927819D01*
X198820847Y-60927819D02*
X198725609Y-60927819D01*
X199535133Y-60023057D02*
X199582752Y-59975438D01*
X199582752Y-59975438D02*
X199677990Y-59927819D01*
X199677990Y-59927819D02*
X199916085Y-59927819D01*
X199916085Y-59927819D02*
X200011323Y-59975438D01*
X200011323Y-59975438D02*
X200058942Y-60023057D01*
X200058942Y-60023057D02*
X200106561Y-60118295D01*
X200106561Y-60118295D02*
X200106561Y-60213533D01*
X200106561Y-60213533D02*
X200058942Y-60356390D01*
X200058942Y-60356390D02*
X199487514Y-60927819D01*
X199487514Y-60927819D02*
X200106561Y-60927819D01*
X213833333Y-57284819D02*
X213500000Y-56808628D01*
X213261905Y-57284819D02*
X213261905Y-56284819D01*
X213261905Y-56284819D02*
X213642857Y-56284819D01*
X213642857Y-56284819D02*
X213738095Y-56332438D01*
X213738095Y-56332438D02*
X213785714Y-56380057D01*
X213785714Y-56380057D02*
X213833333Y-56475295D01*
X213833333Y-56475295D02*
X213833333Y-56618152D01*
X213833333Y-56618152D02*
X213785714Y-56713390D01*
X213785714Y-56713390D02*
X213738095Y-56761009D01*
X213738095Y-56761009D02*
X213642857Y-56808628D01*
X213642857Y-56808628D02*
X213261905Y-56808628D01*
X214690476Y-56618152D02*
X214690476Y-57284819D01*
X214452381Y-56237200D02*
X214214286Y-56951485D01*
X214214286Y-56951485D02*
X214833333Y-56951485D01*
X201439894Y-59927819D02*
X201439894Y-60642104D01*
X201439894Y-60642104D02*
X201392275Y-60784961D01*
X201392275Y-60784961D02*
X201297037Y-60880200D01*
X201297037Y-60880200D02*
X201154180Y-60927819D01*
X201154180Y-60927819D02*
X201058942Y-60927819D01*
X202392275Y-59927819D02*
X201916085Y-59927819D01*
X201916085Y-59927819D02*
X201868466Y-60404009D01*
X201868466Y-60404009D02*
X201916085Y-60356390D01*
X201916085Y-60356390D02*
X202011323Y-60308771D01*
X202011323Y-60308771D02*
X202249418Y-60308771D01*
X202249418Y-60308771D02*
X202344656Y-60356390D01*
X202344656Y-60356390D02*
X202392275Y-60404009D01*
X202392275Y-60404009D02*
X202439894Y-60499247D01*
X202439894Y-60499247D02*
X202439894Y-60737342D01*
X202439894Y-60737342D02*
X202392275Y-60832580D01*
X202392275Y-60832580D02*
X202344656Y-60880200D01*
X202344656Y-60880200D02*
X202249418Y-60927819D01*
X202249418Y-60927819D02*
X202011323Y-60927819D01*
X202011323Y-60927819D02*
X201916085Y-60880200D01*
X201916085Y-60880200D02*
X201868466Y-60832580D01*
X227589415Y-51519580D02*
X227541796Y-51567200D01*
X227541796Y-51567200D02*
X227398939Y-51614819D01*
X227398939Y-51614819D02*
X227303701Y-51614819D01*
X227303701Y-51614819D02*
X227160844Y-51567200D01*
X227160844Y-51567200D02*
X227065606Y-51471961D01*
X227065606Y-51471961D02*
X227017987Y-51376723D01*
X227017987Y-51376723D02*
X226970368Y-51186247D01*
X226970368Y-51186247D02*
X226970368Y-51043390D01*
X226970368Y-51043390D02*
X227017987Y-50852914D01*
X227017987Y-50852914D02*
X227065606Y-50757676D01*
X227065606Y-50757676D02*
X227160844Y-50662438D01*
X227160844Y-50662438D02*
X227303701Y-50614819D01*
X227303701Y-50614819D02*
X227398939Y-50614819D01*
X227398939Y-50614819D02*
X227541796Y-50662438D01*
X227541796Y-50662438D02*
X227589415Y-50710057D01*
X228541796Y-51614819D02*
X227970368Y-51614819D01*
X228256082Y-51614819D02*
X228256082Y-50614819D01*
X228256082Y-50614819D02*
X228160844Y-50757676D01*
X228160844Y-50757676D02*
X228065606Y-50852914D01*
X228065606Y-50852914D02*
X227970368Y-50900533D01*
X229398939Y-50614819D02*
X229208463Y-50614819D01*
X229208463Y-50614819D02*
X229113225Y-50662438D01*
X229113225Y-50662438D02*
X229065606Y-50710057D01*
X229065606Y-50710057D02*
X228970368Y-50852914D01*
X228970368Y-50852914D02*
X228922749Y-51043390D01*
X228922749Y-51043390D02*
X228922749Y-51424342D01*
X228922749Y-51424342D02*
X228970368Y-51519580D01*
X228970368Y-51519580D02*
X229017987Y-51567200D01*
X229017987Y-51567200D02*
X229113225Y-51614819D01*
X229113225Y-51614819D02*
X229303701Y-51614819D01*
X229303701Y-51614819D02*
X229398939Y-51567200D01*
X229398939Y-51567200D02*
X229446558Y-51519580D01*
X229446558Y-51519580D02*
X229494177Y-51424342D01*
X229494177Y-51424342D02*
X229494177Y-51186247D01*
X229494177Y-51186247D02*
X229446558Y-51091009D01*
X229446558Y-51091009D02*
X229398939Y-51043390D01*
X229398939Y-51043390D02*
X229303701Y-50995771D01*
X229303701Y-50995771D02*
X229113225Y-50995771D01*
X229113225Y-50995771D02*
X229017987Y-51043390D01*
X229017987Y-51043390D02*
X228970368Y-51091009D01*
X228970368Y-51091009D02*
X228922749Y-51186247D01*
X221124819Y-60166666D02*
X221124819Y-60642856D01*
X221124819Y-60642856D02*
X220124819Y-60642856D01*
X220124819Y-59928570D02*
X220124819Y-59309523D01*
X220124819Y-59309523D02*
X220505771Y-59642856D01*
X220505771Y-59642856D02*
X220505771Y-59499999D01*
X220505771Y-59499999D02*
X220553390Y-59404761D01*
X220553390Y-59404761D02*
X220601009Y-59357142D01*
X220601009Y-59357142D02*
X220696247Y-59309523D01*
X220696247Y-59309523D02*
X220934342Y-59309523D01*
X220934342Y-59309523D02*
X221029580Y-59357142D01*
X221029580Y-59357142D02*
X221077200Y-59404761D01*
X221077200Y-59404761D02*
X221124819Y-59499999D01*
X221124819Y-59499999D02*
X221124819Y-59785713D01*
X221124819Y-59785713D02*
X221077200Y-59880951D01*
X221077200Y-59880951D02*
X221029580Y-59928570D01*
X214833333Y-55283525D02*
X214500000Y-54807334D01*
X214261905Y-55283525D02*
X214261905Y-54283525D01*
X214261905Y-54283525D02*
X214642857Y-54283525D01*
X214642857Y-54283525D02*
X214738095Y-54331144D01*
X214738095Y-54331144D02*
X214785714Y-54378763D01*
X214785714Y-54378763D02*
X214833333Y-54474001D01*
X214833333Y-54474001D02*
X214833333Y-54616858D01*
X214833333Y-54616858D02*
X214785714Y-54712096D01*
X214785714Y-54712096D02*
X214738095Y-54759715D01*
X214738095Y-54759715D02*
X214642857Y-54807334D01*
X214642857Y-54807334D02*
X214261905Y-54807334D01*
X215166667Y-54283525D02*
X215785714Y-54283525D01*
X215785714Y-54283525D02*
X215452381Y-54664477D01*
X215452381Y-54664477D02*
X215595238Y-54664477D01*
X215595238Y-54664477D02*
X215690476Y-54712096D01*
X215690476Y-54712096D02*
X215738095Y-54759715D01*
X215738095Y-54759715D02*
X215785714Y-54854953D01*
X215785714Y-54854953D02*
X215785714Y-55093048D01*
X215785714Y-55093048D02*
X215738095Y-55188286D01*
X215738095Y-55188286D02*
X215690476Y-55235906D01*
X215690476Y-55235906D02*
X215595238Y-55283525D01*
X215595238Y-55283525D02*
X215309524Y-55283525D01*
X215309524Y-55283525D02*
X215214286Y-55235906D01*
X215214286Y-55235906D02*
X215166667Y-55188286D01*
X217086455Y-55283525D02*
X216753122Y-54807334D01*
X216515027Y-55283525D02*
X216515027Y-54283525D01*
X216515027Y-54283525D02*
X216895979Y-54283525D01*
X216895979Y-54283525D02*
X216991217Y-54331144D01*
X216991217Y-54331144D02*
X217038836Y-54378763D01*
X217038836Y-54378763D02*
X217086455Y-54474001D01*
X217086455Y-54474001D02*
X217086455Y-54616858D01*
X217086455Y-54616858D02*
X217038836Y-54712096D01*
X217038836Y-54712096D02*
X216991217Y-54759715D01*
X216991217Y-54759715D02*
X216895979Y-54807334D01*
X216895979Y-54807334D02*
X216515027Y-54807334D01*
X217657884Y-54712096D02*
X217562646Y-54664477D01*
X217562646Y-54664477D02*
X217515027Y-54616858D01*
X217515027Y-54616858D02*
X217467408Y-54521620D01*
X217467408Y-54521620D02*
X217467408Y-54474001D01*
X217467408Y-54474001D02*
X217515027Y-54378763D01*
X217515027Y-54378763D02*
X217562646Y-54331144D01*
X217562646Y-54331144D02*
X217657884Y-54283525D01*
X217657884Y-54283525D02*
X217848360Y-54283525D01*
X217848360Y-54283525D02*
X217943598Y-54331144D01*
X217943598Y-54331144D02*
X217991217Y-54378763D01*
X217991217Y-54378763D02*
X218038836Y-54474001D01*
X218038836Y-54474001D02*
X218038836Y-54521620D01*
X218038836Y-54521620D02*
X217991217Y-54616858D01*
X217991217Y-54616858D02*
X217943598Y-54664477D01*
X217943598Y-54664477D02*
X217848360Y-54712096D01*
X217848360Y-54712096D02*
X217657884Y-54712096D01*
X217657884Y-54712096D02*
X217562646Y-54759715D01*
X217562646Y-54759715D02*
X217515027Y-54807334D01*
X217515027Y-54807334D02*
X217467408Y-54902572D01*
X217467408Y-54902572D02*
X217467408Y-55093048D01*
X217467408Y-55093048D02*
X217515027Y-55188286D01*
X217515027Y-55188286D02*
X217562646Y-55235906D01*
X217562646Y-55235906D02*
X217657884Y-55283525D01*
X217657884Y-55283525D02*
X217848360Y-55283525D01*
X217848360Y-55283525D02*
X217943598Y-55235906D01*
X217943598Y-55235906D02*
X217991217Y-55188286D01*
X217991217Y-55188286D02*
X218038836Y-55093048D01*
X218038836Y-55093048D02*
X218038836Y-54902572D01*
X218038836Y-54902572D02*
X217991217Y-54807334D01*
X217991217Y-54807334D02*
X217943598Y-54759715D01*
X217943598Y-54759715D02*
X217848360Y-54712096D01*
X206106561Y-59902819D02*
X206106561Y-60617104D01*
X206106561Y-60617104D02*
X206058942Y-60759961D01*
X206058942Y-60759961D02*
X205963704Y-60855200D01*
X205963704Y-60855200D02*
X205820847Y-60902819D01*
X205820847Y-60902819D02*
X205725609Y-60902819D01*
X206487514Y-59902819D02*
X207154180Y-59902819D01*
X207154180Y-59902819D02*
X206725609Y-60902819D01*
X228091514Y-58608456D02*
X227758181Y-58132265D01*
X227520086Y-58608456D02*
X227520086Y-57608456D01*
X227520086Y-57608456D02*
X227901038Y-57608456D01*
X227901038Y-57608456D02*
X227996276Y-57656075D01*
X227996276Y-57656075D02*
X228043895Y-57703694D01*
X228043895Y-57703694D02*
X228091514Y-57798932D01*
X228091514Y-57798932D02*
X228091514Y-57941789D01*
X228091514Y-57941789D02*
X228043895Y-58037027D01*
X228043895Y-58037027D02*
X227996276Y-58084646D01*
X227996276Y-58084646D02*
X227901038Y-58132265D01*
X227901038Y-58132265D02*
X227520086Y-58132265D01*
X228948657Y-57608456D02*
X228758181Y-57608456D01*
X228758181Y-57608456D02*
X228662943Y-57656075D01*
X228662943Y-57656075D02*
X228615324Y-57703694D01*
X228615324Y-57703694D02*
X228520086Y-57846551D01*
X228520086Y-57846551D02*
X228472467Y-58037027D01*
X228472467Y-58037027D02*
X228472467Y-58417979D01*
X228472467Y-58417979D02*
X228520086Y-58513217D01*
X228520086Y-58513217D02*
X228567705Y-58560837D01*
X228567705Y-58560837D02*
X228662943Y-58608456D01*
X228662943Y-58608456D02*
X228853419Y-58608456D01*
X228853419Y-58608456D02*
X228948657Y-58560837D01*
X228948657Y-58560837D02*
X228996276Y-58513217D01*
X228996276Y-58513217D02*
X229043895Y-58417979D01*
X229043895Y-58417979D02*
X229043895Y-58179884D01*
X229043895Y-58179884D02*
X228996276Y-58084646D01*
X228996276Y-58084646D02*
X228948657Y-58037027D01*
X228948657Y-58037027D02*
X228853419Y-57989408D01*
X228853419Y-57989408D02*
X228662943Y-57989408D01*
X228662943Y-57989408D02*
X228567705Y-58037027D01*
X228567705Y-58037027D02*
X228520086Y-58084646D01*
X228520086Y-58084646D02*
X228472467Y-58179884D01*
%TO.C,C10*%
D11*
X217388580Y-51140000D02*
X217172908Y-51140000D01*
X217388580Y-51860000D02*
X217172908Y-51860000D01*
%TO.C,Y1*%
X211325000Y-51125000D02*
X212675000Y-51125000D01*
X211325000Y-52875000D02*
X212675000Y-52875000D01*
%TO.C,J6*%
X204806562Y-59000000D02*
G75*
G02*
X203406562Y-59000000I-700000J0D01*
G01*
X203406562Y-59000000D02*
G75*
G02*
X204806562Y-59000000I700000J0D01*
G01*
%TO.C,C2*%
X217355855Y-55267971D02*
X217140183Y-55267971D01*
X217355855Y-55987971D02*
X217140183Y-55987971D01*
%TO.C,D2*%
X233829619Y-50150000D02*
X231169619Y-50150000D01*
X233829619Y-51850000D02*
X231169619Y-51850000D01*
X233829619Y-51850000D02*
X233829619Y-50150000D01*
%TO.C,C4*%
X226640000Y-60107836D02*
X226640000Y-59892164D01*
X227360000Y-60107836D02*
X227360000Y-59892164D01*
%TO.C,R2*%
X200868239Y-55823163D02*
X200560957Y-55823163D01*
X200868239Y-56583163D02*
X200560957Y-56583163D01*
%TO.C,J3*%
X198400000Y-51040000D02*
X198400000Y-49410000D01*
X207600000Y-51040000D02*
X207600000Y-49410000D01*
%TO.C,C9*%
X222140000Y-59872164D02*
X222140000Y-60087836D01*
X222860000Y-59872164D02*
X222860000Y-60087836D01*
%TO.C,C12*%
X223852009Y-49119775D02*
X223852009Y-48904103D01*
X224572009Y-49119775D02*
X224572009Y-48904103D01*
%TO.C,C11*%
X222859251Y-49111626D02*
X222859251Y-48895954D01*
X223579251Y-49111626D02*
X223579251Y-48895954D01*
%TO.C,C20*%
X221140000Y-60107836D02*
X221140000Y-59892164D01*
X221860000Y-60107836D02*
X221860000Y-59892164D01*
%TO.C,C15*%
X234892164Y-51140000D02*
X235107836Y-51140000D01*
X234892164Y-51860000D02*
X235107836Y-51860000D01*
%TO.C,R7*%
X217406763Y-54268706D02*
X217099481Y-54268706D01*
X217406763Y-55028706D02*
X217099481Y-55028706D01*
%TO.C,C14*%
X217172908Y-50140000D02*
X217388580Y-50140000D01*
X217172908Y-50860000D02*
X217388580Y-50860000D01*
%TO.C,C8*%
X223140000Y-59892164D02*
X223140000Y-60107836D01*
X223860000Y-59892164D02*
X223860000Y-60107836D01*
%TO.C,D1*%
X210397400Y-58735000D02*
X212682400Y-58735000D01*
X212682400Y-57265000D02*
X210397400Y-57265000D01*
X212682400Y-58735000D02*
X212682400Y-57265000D01*
%TO.C,C1*%
X210892164Y-56140000D02*
X211107836Y-56140000D01*
X210892164Y-56860000D02*
X211107836Y-56860000D01*
%TO.C,R1*%
X205040957Y-55823163D02*
X205348239Y-55823163D01*
X205040957Y-56583163D02*
X205348239Y-56583163D01*
%TO.C,C5*%
X221881481Y-48895954D02*
X221881481Y-49111626D01*
X222601481Y-48895954D02*
X222601481Y-49111626D01*
%TO.C,C19*%
X228124437Y-50634693D02*
X228340109Y-50634693D01*
X228124437Y-51354693D02*
X228340109Y-51354693D01*
%TO.C,C13*%
X217172908Y-52140000D02*
X217388580Y-52140000D01*
X217172908Y-52860000D02*
X217388580Y-52860000D01*
%TO.C,C3*%
X211892164Y-49140000D02*
X212107836Y-49140000D01*
X211892164Y-49860000D02*
X212107836Y-49860000D01*
%TO.C,C7*%
X224140000Y-59872164D02*
X224140000Y-60087836D01*
X224860000Y-59872164D02*
X224860000Y-60087836D01*
%TO.C,C18*%
X228150345Y-52604401D02*
X228366017Y-52604401D01*
X228150345Y-53324401D02*
X228366017Y-53324401D01*
%TO.C,U2*%
X219140000Y-52039728D02*
X219140000Y-58129728D01*
X219140000Y-58129728D02*
X226360000Y-58129728D01*
X226360000Y-50909728D02*
X220270000Y-50909728D01*
X226360000Y-58129728D02*
X226360000Y-50909728D01*
X219140000Y-50909728D02*
X218640000Y-50909728D01*
X219140000Y-50409728D01*
X219140000Y-50909728D01*
G36*
X219140000Y-50909728D02*
G01*
X218640000Y-50909728D01*
X219140000Y-50409728D01*
X219140000Y-50909728D01*
G37*
%TO.C,Q1*%
X231740000Y-55267366D02*
X233260000Y-55267366D01*
X231740000Y-55317366D02*
X231740000Y-55267366D01*
X231740000Y-57217366D02*
X231740000Y-56437366D01*
X231740000Y-58387366D02*
X231740000Y-58337366D01*
X233260000Y-55267366D02*
X233260000Y-56267366D01*
X233260000Y-57387366D02*
X233260000Y-58387366D01*
X233260000Y-58387366D02*
X231740000Y-58387366D01*
X231200000Y-56447366D02*
X231440000Y-56777366D01*
X230960000Y-56777366D01*
X231200000Y-56447366D01*
G36*
X231440000Y-56777366D02*
G01*
X230960000Y-56777366D01*
X231200000Y-56447366D01*
X231440000Y-56777366D01*
G37*
%TO.C,C6*%
X220140000Y-59892164D02*
X220140000Y-60107836D01*
X220860000Y-59892164D02*
X220860000Y-60107836D01*
%TO.C,J4*%
X238300000Y-51369728D02*
X239640000Y-51369728D01*
X238300000Y-52859728D02*
X238300000Y-51369728D01*
X238300000Y-56179728D02*
X237100000Y-56179728D01*
X238300000Y-56179728D02*
X238300000Y-57669728D01*
X238300000Y-57669728D02*
X239640000Y-57669728D01*
X242360000Y-57669728D02*
X244100000Y-57669728D01*
X244100000Y-51369728D02*
X242360000Y-51369728D01*
X244100000Y-57669728D02*
X244100000Y-51369728D01*
%TO.C,U1*%
X210674332Y-53273706D02*
X213469900Y-53273706D01*
X213469900Y-55543706D02*
X210249900Y-55543706D01*
X210379900Y-53268706D02*
X210239900Y-53078706D01*
X210519900Y-53078706D01*
X210379900Y-53268706D01*
G36*
X210379900Y-53268706D02*
G01*
X210239900Y-53078706D01*
X210519900Y-53078706D01*
X210379900Y-53268706D01*
G37*
%TO.C,R5*%
X228104540Y-55603637D02*
X228411822Y-55603637D01*
X228104540Y-56363637D02*
X228411822Y-56363637D01*
%TO.C,C17*%
X228150345Y-53595358D02*
X228366017Y-53595358D01*
X228150345Y-54315358D02*
X228366017Y-54315358D01*
%TO.C,R9*%
X228104540Y-51605085D02*
X228411822Y-51605085D01*
X228104540Y-52365085D02*
X228411822Y-52365085D01*
%TO.C,J2*%
X200139895Y-59025000D02*
G75*
G02*
X198739895Y-59025000I-700000J0D01*
G01*
X198739895Y-59025000D02*
G75*
G02*
X200139895Y-59025000I700000J0D01*
G01*
%TO.C,R4*%
X213846359Y-57620000D02*
X214153641Y-57620000D01*
X213846359Y-58380000D02*
X214153641Y-58380000D01*
%TO.C,J5*%
X202473228Y-59025000D02*
G75*
G02*
X201073228Y-59025000I-700000J0D01*
G01*
X201073228Y-59025000D02*
G75*
G02*
X202473228Y-59025000I700000J0D01*
G01*
%TO.C,C16*%
X228340109Y-49640000D02*
X228124437Y-49640000D01*
X228340109Y-50360000D02*
X228124437Y-50360000D01*
%TO.C,R3*%
X215153641Y-53278706D02*
X214846359Y-53278706D01*
X215153641Y-54038706D02*
X214846359Y-54038706D01*
%TO.C,R8*%
X217406763Y-53278706D02*
X217099481Y-53278706D01*
X217406763Y-54038706D02*
X217099481Y-54038706D01*
%TO.C,J7*%
X207139895Y-59000000D02*
G75*
G02*
X205739895Y-59000000I-700000J0D01*
G01*
X205739895Y-59000000D02*
G75*
G02*
X207139895Y-59000000I700000J0D01*
G01*
%TO.C,R6*%
X228411822Y-56603637D02*
X228104540Y-56603637D01*
X228411822Y-57363637D02*
X228104540Y-57363637D01*
%TD*%
M02*
