%TF.GenerationSoftware,KiCad,Pcbnew,10.0.3*%
%TF.CreationDate,2026-07-27T00:41:11+03:00*%
%TF.ProjectId,v1.0,76312e30-2e6b-4696-9361-645f70636258,rev?*%
%TF.SameCoordinates,Original*%
%TF.FileFunction,AssemblyDrawing,Bot*%
%FSLAX46Y46*%
G04 Gerber Fmt 4.6, Leading zero omitted, Abs format (unit mm)*
G04 Created by KiCad (PCBNEW 10.0.3) date 2026-07-27 00:41:11*
%MOMM*%
%LPD*%
G01*
G04 APERTURE LIST*
%ADD10C,0.150000*%
%ADD11C,0.100000*%
G04 APERTURE END LIST*
D10*
X222379580Y-49210203D02*
X222427200Y-49162584D01*
X222427200Y-49162584D02*
X222474819Y-49019727D01*
X222474819Y-49019727D02*
X222474819Y-48924489D01*
X222474819Y-48924489D02*
X222427200Y-48781632D01*
X222427200Y-48781632D02*
X222331961Y-48686394D01*
X222331961Y-48686394D02*
X222236723Y-48638775D01*
X222236723Y-48638775D02*
X222046247Y-48591156D01*
X222046247Y-48591156D02*
X221903390Y-48591156D01*
X221903390Y-48591156D02*
X221712914Y-48638775D01*
X221712914Y-48638775D02*
X221617676Y-48686394D01*
X221617676Y-48686394D02*
X221522438Y-48781632D01*
X221522438Y-48781632D02*
X221474819Y-48924489D01*
X221474819Y-48924489D02*
X221474819Y-49019727D01*
X221474819Y-49019727D02*
X221522438Y-49162584D01*
X221522438Y-49162584D02*
X221570057Y-49210203D01*
X222474819Y-49781632D02*
X222427200Y-49686394D01*
X222427200Y-49686394D02*
X222379580Y-49638775D01*
X222379580Y-49638775D02*
X222284342Y-49591156D01*
X222284342Y-49591156D02*
X221998628Y-49591156D01*
X221998628Y-49591156D02*
X221903390Y-49638775D01*
X221903390Y-49638775D02*
X221855771Y-49686394D01*
X221855771Y-49686394D02*
X221808152Y-49781632D01*
X221808152Y-49781632D02*
X221808152Y-49924489D01*
X221808152Y-49924489D02*
X221855771Y-50019727D01*
X221855771Y-50019727D02*
X221903390Y-50067346D01*
X221903390Y-50067346D02*
X221998628Y-50114965D01*
X221998628Y-50114965D02*
X222284342Y-50114965D01*
X222284342Y-50114965D02*
X222379580Y-50067346D01*
X222379580Y-50067346D02*
X222427200Y-50019727D01*
X222427200Y-50019727D02*
X222474819Y-49924489D01*
X222474819Y-49924489D02*
X222474819Y-49781632D01*
X221808152Y-50543537D02*
X222474819Y-50543537D01*
X221903390Y-50543537D02*
X221855771Y-50591156D01*
X221855771Y-50591156D02*
X221808152Y-50686394D01*
X221808152Y-50686394D02*
X221808152Y-50829251D01*
X221808152Y-50829251D02*
X221855771Y-50924489D01*
X221855771Y-50924489D02*
X221951009Y-50972108D01*
X221951009Y-50972108D02*
X222474819Y-50972108D01*
X221808152Y-51448299D02*
X222474819Y-51448299D01*
X221903390Y-51448299D02*
X221855771Y-51495918D01*
X221855771Y-51495918D02*
X221808152Y-51591156D01*
X221808152Y-51591156D02*
X221808152Y-51734013D01*
X221808152Y-51734013D02*
X221855771Y-51829251D01*
X221855771Y-51829251D02*
X221951009Y-51876870D01*
X221951009Y-51876870D02*
X222474819Y-51876870D01*
X222570057Y-52114966D02*
X222570057Y-52876870D01*
X221474819Y-53305442D02*
X221474819Y-53400680D01*
X221474819Y-53400680D02*
X221522438Y-53495918D01*
X221522438Y-53495918D02*
X221570057Y-53543537D01*
X221570057Y-53543537D02*
X221665295Y-53591156D01*
X221665295Y-53591156D02*
X221855771Y-53638775D01*
X221855771Y-53638775D02*
X222093866Y-53638775D01*
X222093866Y-53638775D02*
X222284342Y-53591156D01*
X222284342Y-53591156D02*
X222379580Y-53543537D01*
X222379580Y-53543537D02*
X222427200Y-53495918D01*
X222427200Y-53495918D02*
X222474819Y-53400680D01*
X222474819Y-53400680D02*
X222474819Y-53305442D01*
X222474819Y-53305442D02*
X222427200Y-53210204D01*
X222427200Y-53210204D02*
X222379580Y-53162585D01*
X222379580Y-53162585D02*
X222284342Y-53114966D01*
X222284342Y-53114966D02*
X222093866Y-53067347D01*
X222093866Y-53067347D02*
X221855771Y-53067347D01*
X221855771Y-53067347D02*
X221665295Y-53114966D01*
X221665295Y-53114966D02*
X221570057Y-53162585D01*
X221570057Y-53162585D02*
X221522438Y-53210204D01*
X221522438Y-53210204D02*
X221474819Y-53305442D01*
X222474819Y-54591156D02*
X222474819Y-54019728D01*
X222474819Y-54305442D02*
X221474819Y-54305442D01*
X221474819Y-54305442D02*
X221617676Y-54210204D01*
X221617676Y-54210204D02*
X221712914Y-54114966D01*
X221712914Y-54114966D02*
X221760533Y-54019728D01*
X222474819Y-54924490D02*
X221808152Y-55448299D01*
X221808152Y-54924490D02*
X222474819Y-55448299D01*
X221474819Y-56019728D02*
X221474819Y-56114966D01*
X221474819Y-56114966D02*
X221522438Y-56210204D01*
X221522438Y-56210204D02*
X221570057Y-56257823D01*
X221570057Y-56257823D02*
X221665295Y-56305442D01*
X221665295Y-56305442D02*
X221855771Y-56353061D01*
X221855771Y-56353061D02*
X222093866Y-56353061D01*
X222093866Y-56353061D02*
X222284342Y-56305442D01*
X222284342Y-56305442D02*
X222379580Y-56257823D01*
X222379580Y-56257823D02*
X222427200Y-56210204D01*
X222427200Y-56210204D02*
X222474819Y-56114966D01*
X222474819Y-56114966D02*
X222474819Y-56019728D01*
X222474819Y-56019728D02*
X222427200Y-55924490D01*
X222427200Y-55924490D02*
X222379580Y-55876871D01*
X222379580Y-55876871D02*
X222284342Y-55829252D01*
X222284342Y-55829252D02*
X222093866Y-55781633D01*
X222093866Y-55781633D02*
X221855771Y-55781633D01*
X221855771Y-55781633D02*
X221665295Y-55829252D01*
X221665295Y-55829252D02*
X221570057Y-55876871D01*
X221570057Y-55876871D02*
X221522438Y-55924490D01*
X221522438Y-55924490D02*
X221474819Y-56019728D01*
X221570057Y-56734014D02*
X221522438Y-56781633D01*
X221522438Y-56781633D02*
X221474819Y-56876871D01*
X221474819Y-56876871D02*
X221474819Y-57114966D01*
X221474819Y-57114966D02*
X221522438Y-57210204D01*
X221522438Y-57210204D02*
X221570057Y-57257823D01*
X221570057Y-57257823D02*
X221665295Y-57305442D01*
X221665295Y-57305442D02*
X221760533Y-57305442D01*
X221760533Y-57305442D02*
X221903390Y-57257823D01*
X221903390Y-57257823D02*
X222474819Y-56686395D01*
X222474819Y-56686395D02*
X222474819Y-57305442D01*
X222570057Y-57495919D02*
X222570057Y-58257823D01*
X222474819Y-58495919D02*
X221474819Y-58495919D01*
X221474819Y-58495919D02*
X221474819Y-58876871D01*
X221474819Y-58876871D02*
X221522438Y-58972109D01*
X221522438Y-58972109D02*
X221570057Y-59019728D01*
X221570057Y-59019728D02*
X221665295Y-59067347D01*
X221665295Y-59067347D02*
X221808152Y-59067347D01*
X221808152Y-59067347D02*
X221903390Y-59019728D01*
X221903390Y-59019728D02*
X221951009Y-58972109D01*
X221951009Y-58972109D02*
X221998628Y-58876871D01*
X221998628Y-58876871D02*
X221998628Y-58495919D01*
X222474819Y-59495919D02*
X221808152Y-59495919D01*
X221474819Y-59495919D02*
X221522438Y-59448300D01*
X221522438Y-59448300D02*
X221570057Y-59495919D01*
X221570057Y-59495919D02*
X221522438Y-59543538D01*
X221522438Y-59543538D02*
X221474819Y-59495919D01*
X221474819Y-59495919D02*
X221570057Y-59495919D01*
X221808152Y-59972109D02*
X222474819Y-59972109D01*
X221903390Y-59972109D02*
X221855771Y-60019728D01*
X221855771Y-60019728D02*
X221808152Y-60114966D01*
X221808152Y-60114966D02*
X221808152Y-60257823D01*
X221808152Y-60257823D02*
X221855771Y-60353061D01*
X221855771Y-60353061D02*
X221951009Y-60400680D01*
X221951009Y-60400680D02*
X222474819Y-60400680D01*
X225454819Y-54186394D02*
X226169104Y-54186394D01*
X226169104Y-54186394D02*
X226311961Y-54138775D01*
X226311961Y-54138775D02*
X226407200Y-54043537D01*
X226407200Y-54043537D02*
X226454819Y-53900680D01*
X226454819Y-53900680D02*
X226454819Y-53805442D01*
X226454819Y-55186394D02*
X226454819Y-54614966D01*
X226454819Y-54900680D02*
X225454819Y-54900680D01*
X225454819Y-54900680D02*
X225597676Y-54805442D01*
X225597676Y-54805442D02*
X225692914Y-54710204D01*
X225692914Y-54710204D02*
X225740533Y-54614966D01*
%TO.C,J1*%
D11*
X223425000Y-56519728D02*
X223425000Y-52519728D01*
X226967893Y-55019728D02*
X227675000Y-54519728D01*
X227675000Y-52519728D02*
X223425000Y-52519728D01*
X227675000Y-55519728D02*
X226967893Y-55019728D01*
X227675000Y-56519728D02*
X223425000Y-56519728D01*
X227675000Y-56519728D02*
X227675000Y-52519728D01*
%TD*%
M02*
