%TF.GenerationSoftware,KiCad,Pcbnew,10.0.3*%
%TF.CreationDate,2026-07-27T00:41:11+03:00*%
%TF.ProjectId,v1.0,76312e30-2e6b-4696-9361-645f70636258,rev?*%
%TF.SameCoordinates,Original*%
%TF.FileFunction,Copper,L4,Bot*%
%TF.FilePolarity,Positive*%
%FSLAX46Y46*%
G04 Gerber Fmt 4.6, Leading zero omitted, Abs format (unit mm)*
G04 Created by KiCad (PCBNEW 10.0.3) date 2026-07-27 00:41:11*
%MOMM*%
%LPD*%
G01*
G04 APERTURE LIST*
G04 Aperture macros list*
%AMRoundRect*
0 Rectangle with rounded corners*
0 $1 Rounding radius*
0 $2 $3 $4 $5 $6 $7 $8 $9 X,Y pos of 4 corners*
0 Add a 4 corners polygon primitive as box body*
4,1,4,$2,$3,$4,$5,$6,$7,$8,$9,$2,$3,0*
0 Add four circle primitives for the rounded corners*
1,1,$1+$1,$2,$3*
1,1,$1+$1,$4,$5*
1,1,$1+$1,$6,$7*
1,1,$1+$1,$8,$9*
0 Add four rect primitives between the rounded corners*
20,1,$1+$1,$2,$3,$4,$5,0*
20,1,$1+$1,$4,$5,$6,$7,0*
20,1,$1+$1,$6,$7,$8,$9,0*
20,1,$1+$1,$8,$9,$2,$3,0*%
G04 Aperture macros list end*
%TA.AperFunction,ComponentPad*%
%ADD10RoundRect,0.250000X0.550000X0.550000X-0.550000X0.550000X-0.550000X-0.550000X0.550000X-0.550000X0*%
%TD*%
%TA.AperFunction,ComponentPad*%
%ADD11C,1.600000*%
%TD*%
%TA.AperFunction,SMDPad,CuDef*%
%ADD12RoundRect,0.150000X0.625000X-0.150000X0.625000X0.150000X-0.625000X0.150000X-0.625000X-0.150000X0*%
%TD*%
%TA.AperFunction,SMDPad,CuDef*%
%ADD13RoundRect,0.250000X0.650000X-0.350000X0.650000X0.350000X-0.650000X0.350000X-0.650000X-0.350000X0*%
%TD*%
%TA.AperFunction,ViaPad*%
%ADD14C,0.600000*%
%TD*%
%TA.AperFunction,Conductor*%
%ADD15C,0.300000*%
%TD*%
%TA.AperFunction,Conductor*%
%ADD16C,0.075000*%
%TD*%
%TA.AperFunction,Conductor*%
%ADD17C,0.250000*%
%TD*%
G04 APERTURE END LIST*
D10*
%TO.P,M1,1,+_1*%
%TO.N,+BATT*%
X234800000Y-53500000D03*
D11*
%TO.P,M1,2,-_2*%
%TO.N,Net-(D2-A)*%
X231200000Y-53500000D03*
%TD*%
D12*
%TO.P,J1,1,Pin_1_1*%
%TO.N,+BATT*%
X228000000Y-55019728D03*
%TO.P,J1,2,Pin_2_2*%
%TO.N,GND*%
X228000000Y-54019728D03*
D13*
%TO.P,J1,MP*%
%TO.N,N/C*%
X224125000Y-56319728D03*
X224125000Y-52719728D03*
%TD*%
D14*
%TO.N,GND*%
X201500000Y-60500000D03*
X216000000Y-51500000D03*
X222750000Y-54500000D03*
X225500000Y-60000000D03*
X208505793Y-55000000D03*
X234000000Y-59500000D03*
X208000000Y-58000000D03*
%TO.N,Net-(U2-XL1{slash}P0.00)*%
X210750000Y-52000000D03*
X218506511Y-53057164D03*
X217760744Y-50500000D03*
%TO.N,Net-(J6-Pin_1)*%
X203752172Y-57694100D03*
X226717803Y-56973419D03*
%TO.N,+BATT*%
X213000000Y-56500000D03*
X217985259Y-56514741D03*
X214500000Y-49500000D03*
%TO.N,V_DD*%
X218855150Y-56224423D03*
X225034734Y-50665701D03*
X217500000Y-48500000D03*
X206000000Y-57500000D03*
X228500000Y-59500000D03*
X229500000Y-51000000D03*
X228000000Y-58000000D03*
X215500000Y-55000000D03*
%TO.N,V_BUS*%
X221096962Y-58342258D03*
X210454950Y-57954950D03*
%TO.N,Net-(U2-DCC)*%
X220000000Y-51000000D03*
X219000000Y-49000000D03*
%TO.N,Net-(U2-DEC5)*%
X209500000Y-59500000D03*
X222500000Y-59500000D03*
X215803909Y-56280030D03*
X226734622Y-54721599D03*
%TO.N,Net-(U2-DEC1)*%
X219079594Y-51006375D03*
X225500000Y-49000000D03*
%TO.N,Net-(U2-DEC2)*%
X222000000Y-50500000D03*
X224167149Y-50801012D03*
%TO.N,Net-(U2-ANT)*%
X226500000Y-52000000D03*
X227000000Y-49000000D03*
%TO.N,Net-(U2-DEC6)*%
X229500000Y-52500000D03*
X226556610Y-52769728D03*
%TO.N,Net-(U2-DECUSB)*%
X224500000Y-59480000D03*
X222259766Y-58380607D03*
%TO.N,ANT*%
X226582500Y-51192681D03*
X195500000Y-48037500D03*
%TO.N,Net-(J5-Pin_1)*%
X201531472Y-57765736D03*
X226634228Y-56125732D03*
%TO.N,Net-(U2-DCCH)*%
X218500000Y-59237500D03*
X219000000Y-57500000D03*
%TO.N,INT*%
X236625903Y-53522430D03*
X226092228Y-50329132D03*
%TO.N,XSHUT*%
X218500000Y-54500000D03*
X236000000Y-55500000D03*
%TD*%
%TO.N,GND*%
D15*
X222750000Y-54750000D02*
X223411830Y-54088170D01*
X226517673Y-54019728D02*
X228000000Y-54019728D01*
X223411830Y-54088170D02*
X226449232Y-54088170D01*
X226449232Y-54088170D02*
X226517673Y-54019728D01*
%TO.N,Net-(U2-XL1{slash}P0.00)*%
D16*
X217760744Y-50760744D02*
X217760744Y-50500000D01*
X218000000Y-52000000D02*
X218000000Y-51879463D01*
X218198244Y-51681219D02*
X218198244Y-51318781D01*
X217500000Y-52000000D02*
X210750000Y-52000000D01*
X218000000Y-51000000D02*
X217760744Y-50760744D01*
X218506511Y-53057164D02*
X218506511Y-52506511D01*
X218000000Y-52500000D02*
X217500000Y-52000000D01*
X218506511Y-53057164D02*
X218000000Y-52550653D01*
X218000000Y-51879463D02*
X218198244Y-51681219D01*
X218000000Y-51120537D02*
X218000000Y-51000000D01*
X218000000Y-52550653D02*
X218000000Y-52500000D01*
X218198244Y-51318781D02*
X218000000Y-51120537D01*
X218506511Y-52506511D02*
X218000000Y-52000000D01*
%TO.N,Net-(J6-Pin_1)*%
X226000000Y-60500000D02*
X206558072Y-60500000D01*
X206558072Y-60500000D02*
X206500000Y-60441928D01*
X206500000Y-60441928D02*
X203752172Y-57694100D01*
X226500000Y-60000000D02*
X226000000Y-60500000D01*
X226717803Y-59282197D02*
X226500000Y-59500000D01*
X226717803Y-56973419D02*
X226717803Y-59282197D01*
X206520572Y-60462500D02*
X206500000Y-60441928D01*
X226500000Y-59500000D02*
X226500000Y-60000000D01*
%TO.N,+BATT*%
D15*
X215791830Y-53708170D02*
X226291830Y-53708170D01*
D16*
X210312500Y-51818781D02*
X210312500Y-52181219D01*
X214500000Y-49500000D02*
X212631281Y-49500000D01*
X210312500Y-52181219D02*
X211839451Y-53708170D01*
D15*
X234219619Y-53500000D02*
X232699891Y-55019728D01*
X226510272Y-53489728D02*
X228786558Y-53489728D01*
D16*
X211839451Y-53708170D02*
X215791830Y-53708170D01*
X217985259Y-56514741D02*
X217592500Y-56907500D01*
D15*
X229005000Y-54331286D02*
X228316558Y-55019728D01*
X226291830Y-53708170D02*
X226510272Y-53489728D01*
X228316558Y-55019728D02*
X228000000Y-55019728D01*
D16*
X213407500Y-56907500D02*
X213000000Y-56500000D01*
D15*
X213000000Y-56500000D02*
X215791830Y-53708170D01*
D16*
X217592500Y-56907500D02*
X213407500Y-56907500D01*
D15*
X228786558Y-53489728D02*
X229005000Y-53708170D01*
D16*
X212631281Y-49500000D02*
X210312500Y-51818781D01*
D15*
X229005000Y-53708170D02*
X229005000Y-54331286D01*
X232699891Y-55019728D02*
X228000000Y-55019728D01*
%TO.N,V_DD*%
D16*
X228500000Y-58500000D02*
X228500000Y-59500000D01*
X218855150Y-56224423D02*
X218313660Y-56224423D01*
X228000000Y-58000000D02*
X228500000Y-58500000D01*
X217089237Y-55000000D02*
X215500000Y-55000000D01*
X218313660Y-56224423D02*
X217089237Y-55000000D01*
%TO.N,V_BUS*%
D15*
X210454950Y-57954950D02*
X212267500Y-59767500D01*
X212267500Y-59767500D02*
X219671720Y-59767500D01*
X219671720Y-59767500D02*
X221096962Y-58342258D01*
%TO.N,Net-(U2-DCC)*%
D16*
X220000000Y-51000000D02*
X219000000Y-50000000D01*
X219000000Y-50000000D02*
X219000000Y-49000000D01*
%TO.N,Net-(U2-DEC5)*%
X226268721Y-55187500D02*
X226734622Y-54721599D01*
X215780030Y-56280030D02*
X215803909Y-56280030D01*
X215818781Y-54062500D02*
X215062500Y-54818781D01*
X210035000Y-60035000D02*
X221965000Y-60035000D01*
X215062500Y-54818781D02*
X215062500Y-55562500D01*
X219806219Y-55187500D02*
X226268721Y-55187500D01*
X218681219Y-54062500D02*
X219806219Y-55187500D01*
X221965000Y-60035000D02*
X222500000Y-59500000D01*
X215062500Y-55562500D02*
X215780030Y-56280030D01*
X218681219Y-54062500D02*
X215818781Y-54062500D01*
X209500000Y-59500000D02*
X210035000Y-60035000D01*
%TO.N,Net-(U2-DEC1)*%
X225500000Y-48537500D02*
X225000000Y-48037500D01*
X218562500Y-50489281D02*
X218562500Y-48818781D01*
X219079594Y-51006375D02*
X218562500Y-50489281D01*
X225500000Y-49000000D02*
X225500000Y-48537500D01*
X218562500Y-48818781D02*
X219343781Y-48037500D01*
X219343781Y-48037500D02*
X225000000Y-48037500D01*
%TO.N,Net-(U2-DEC2)*%
X224167149Y-50801012D02*
X222301012Y-50801012D01*
X222301012Y-50801012D02*
X222000000Y-50500000D01*
%TO.N,Net-(U2-ANT)*%
X225654728Y-50510351D02*
X225654728Y-50147913D01*
X226802641Y-49000000D02*
X227000000Y-49000000D01*
X225654728Y-50147913D02*
X226802641Y-49000000D01*
X225911009Y-51411009D02*
X225911009Y-50766632D01*
X226500000Y-52000000D02*
X225911009Y-51411009D01*
X225911009Y-50766632D02*
X225654728Y-50510351D01*
%TO.N,Net-(U2-DEC6)*%
X226826338Y-52500000D02*
X226556610Y-52769728D01*
X229500000Y-52500000D02*
X226826338Y-52500000D01*
%TO.N,Net-(U2-DECUSB)*%
X224500000Y-59480000D02*
X224020000Y-59000000D01*
X222879159Y-59000000D02*
X222259766Y-58380607D01*
X224020000Y-59000000D02*
X222879159Y-59000000D01*
%TO.N,ANT*%
X226582500Y-51192681D02*
X226692681Y-51192681D01*
X224612038Y-51443875D02*
X218898375Y-51443875D01*
X227000000Y-51500000D02*
X231000000Y-51500000D01*
X218407500Y-50528037D02*
X215916963Y-48037500D01*
X226375391Y-53207228D02*
X224612038Y-51443875D01*
X229411491Y-53207228D02*
X226375391Y-53207228D01*
X231000000Y-51500000D02*
X231000000Y-51618719D01*
X226692681Y-51192681D02*
X227000000Y-51500000D01*
D17*
X215916963Y-48037500D02*
X195500000Y-48037500D01*
D16*
X218898375Y-51443875D02*
X218407500Y-50953000D01*
X218407500Y-50953000D02*
X218407500Y-50528037D01*
X231000000Y-51618719D02*
X229411491Y-53207228D01*
%TO.N,Net-(J5-Pin_1)*%
X202234708Y-57062500D02*
X201531472Y-57765736D01*
X226634228Y-56125732D02*
X225697460Y-57062500D01*
X225697460Y-57062500D02*
X202234708Y-57062500D01*
%TO.N,Net-(U2-DCCH)*%
X218500000Y-59237500D02*
X218500000Y-59000000D01*
X219000000Y-58500000D02*
X219000000Y-57500000D01*
X218500000Y-59000000D02*
X219000000Y-58500000D01*
%TO.N,INT*%
X233432605Y-50329132D02*
X236625903Y-53522430D01*
X226092228Y-50329132D02*
X233432605Y-50329132D01*
%TO.N,XSHUT*%
X219500000Y-55500000D02*
X218500000Y-54500000D01*
X236000000Y-55500000D02*
X219500000Y-55500000D01*
%TD*%
%TA.AperFunction,Conductor*%
%TO.N,GND*%
G36*
X242362539Y-47100185D02*
G01*
X242408294Y-47152989D01*
X242419500Y-47204500D01*
X242419500Y-61795500D01*
X242399815Y-61862539D01*
X242347011Y-61908294D01*
X242295500Y-61919500D01*
X196124000Y-61919500D01*
X196056961Y-61899815D01*
X196011206Y-61847011D01*
X196000000Y-61795500D01*
X196000000Y-48787000D01*
X196019685Y-48719961D01*
X196072489Y-48674206D01*
X196124000Y-48663000D01*
X213905559Y-48663000D01*
X213926804Y-48669238D01*
X213948891Y-48670818D01*
X213959674Y-48678890D01*
X213972598Y-48682685D01*
X213987098Y-48699419D01*
X214004825Y-48712689D01*
X214009532Y-48725309D01*
X214018353Y-48735489D01*
X214021504Y-48757405D01*
X214029243Y-48778153D01*
X214026380Y-48791314D01*
X214028297Y-48804647D01*
X214019098Y-48824788D01*
X214014392Y-48846426D01*
X214001121Y-48864152D01*
X213999272Y-48868203D01*
X213993241Y-48874680D01*
X213942242Y-48925680D01*
X213880919Y-48959166D01*
X213854560Y-48962000D01*
X212560452Y-48962000D01*
X212478353Y-48983998D01*
X212423619Y-48998664D01*
X212423618Y-48998665D01*
X212300944Y-49069490D01*
X212300939Y-49069494D01*
X212200772Y-49169662D01*
X209964719Y-51405714D01*
X209964718Y-51405714D01*
X209964719Y-51405715D01*
X209881990Y-51488444D01*
X209811165Y-51611118D01*
X209811164Y-51611119D01*
X209792832Y-51679536D01*
X209774500Y-51747952D01*
X209774500Y-52110390D01*
X209774500Y-52252048D01*
X209792633Y-52319719D01*
X209811164Y-52388880D01*
X209811165Y-52388881D01*
X209881990Y-52511555D01*
X209881992Y-52511558D01*
X209881993Y-52511559D01*
X211408944Y-54038510D01*
X211509111Y-54138677D01*
X211509112Y-54138678D01*
X211509114Y-54138679D01*
X211518710Y-54144219D01*
X211631791Y-54209506D01*
X211768622Y-54246170D01*
X214034522Y-54246170D01*
X214101561Y-54265855D01*
X214147316Y-54318659D01*
X214157260Y-54387817D01*
X214128235Y-54451373D01*
X214122203Y-54457851D01*
X212897068Y-55682984D01*
X212835745Y-55716469D01*
X212833579Y-55716920D01*
X212766508Y-55730261D01*
X212766498Y-55730264D01*
X212620827Y-55790602D01*
X212620814Y-55790609D01*
X212489711Y-55878210D01*
X212489707Y-55878213D01*
X212378213Y-55989707D01*
X212378210Y-55989711D01*
X212290609Y-56120814D01*
X212290602Y-56120827D01*
X212230264Y-56266498D01*
X212230261Y-56266510D01*
X212198797Y-56424691D01*
X212166412Y-56486602D01*
X212105697Y-56521176D01*
X212077180Y-56524500D01*
X202305537Y-56524500D01*
X202163879Y-56524500D01*
X202081780Y-56546498D01*
X202027046Y-56561164D01*
X202027045Y-56561165D01*
X201904371Y-56631990D01*
X201904366Y-56631994D01*
X201607444Y-56928917D01*
X201546121Y-56962402D01*
X201519763Y-56965236D01*
X201452627Y-56965236D01*
X201297982Y-56995997D01*
X201297970Y-56996000D01*
X201152299Y-57056338D01*
X201152286Y-57056345D01*
X201021183Y-57143946D01*
X201021179Y-57143949D01*
X200909685Y-57255443D01*
X200909682Y-57255447D01*
X200822081Y-57386550D01*
X200822074Y-57386563D01*
X200761736Y-57532234D01*
X200761733Y-57532246D01*
X200730972Y-57686889D01*
X200730972Y-57844582D01*
X200761733Y-57999225D01*
X200761736Y-57999237D01*
X200822074Y-58144908D01*
X200822081Y-58144921D01*
X200909682Y-58276024D01*
X200909685Y-58276028D01*
X201021179Y-58387522D01*
X201021183Y-58387525D01*
X201152286Y-58475126D01*
X201152299Y-58475133D01*
X201297970Y-58535471D01*
X201297975Y-58535473D01*
X201443933Y-58564506D01*
X201452625Y-58566235D01*
X201452628Y-58566236D01*
X201452630Y-58566236D01*
X201610316Y-58566236D01*
X201610317Y-58566235D01*
X201764969Y-58535473D01*
X201910651Y-58475130D01*
X202041761Y-58387525D01*
X202153261Y-58276025D01*
X202240866Y-58144915D01*
X202301209Y-57999233D01*
X202331972Y-57844578D01*
X202331972Y-57777445D01*
X202340616Y-57748004D01*
X202347140Y-57718018D01*
X202350894Y-57713002D01*
X202351657Y-57710406D01*
X202368291Y-57689764D01*
X202421236Y-57636819D01*
X202482559Y-57603334D01*
X202508917Y-57600500D01*
X202827672Y-57600500D01*
X202894711Y-57620185D01*
X202940466Y-57672989D01*
X202951672Y-57724500D01*
X202951672Y-57772946D01*
X202982433Y-57927589D01*
X202982436Y-57927601D01*
X203042774Y-58073272D01*
X203042781Y-58073285D01*
X203130382Y-58204388D01*
X203130385Y-58204392D01*
X203241879Y-58315886D01*
X203241883Y-58315889D01*
X203372986Y-58403490D01*
X203372999Y-58403497D01*
X203477705Y-58446867D01*
X203518675Y-58463837D01*
X203673325Y-58494599D01*
X203673328Y-58494600D01*
X203673330Y-58494600D01*
X203740463Y-58494600D01*
X203807502Y-58514285D01*
X203828144Y-58530919D01*
X206069493Y-60772268D01*
X206227732Y-60930507D01*
X206350412Y-61001336D01*
X206487243Y-61038000D01*
X206487246Y-61038000D01*
X226070826Y-61038000D01*
X226070829Y-61038000D01*
X226207660Y-61001336D01*
X226330340Y-60930507D01*
X226930507Y-60330340D01*
X227001336Y-60207660D01*
X227038000Y-60070829D01*
X227038000Y-59929171D01*
X227038000Y-59774209D01*
X227057685Y-59707170D01*
X227074319Y-59686528D01*
X227148310Y-59612537D01*
X227219139Y-59489857D01*
X227255803Y-59353026D01*
X227255803Y-59211368D01*
X227255803Y-58687244D01*
X227275488Y-58620205D01*
X227328292Y-58574450D01*
X227397450Y-58564506D01*
X227461006Y-58593531D01*
X227467484Y-58599563D01*
X227489707Y-58621786D01*
X227489711Y-58621789D01*
X227620814Y-58709390D01*
X227620827Y-58709397D01*
X227717827Y-58749575D01*
X227766503Y-58769737D01*
X227793423Y-58775091D01*
X227815624Y-58779508D01*
X227877535Y-58811892D01*
X227912109Y-58872608D01*
X227908370Y-58942377D01*
X227881706Y-58984697D01*
X227882076Y-58985001D01*
X227879661Y-58987942D01*
X227879123Y-58988798D01*
X227878212Y-58989708D01*
X227878210Y-58989711D01*
X227790609Y-59120814D01*
X227790602Y-59120827D01*
X227730264Y-59266498D01*
X227730261Y-59266510D01*
X227699500Y-59421153D01*
X227699500Y-59578846D01*
X227730261Y-59733489D01*
X227730264Y-59733501D01*
X227790602Y-59879172D01*
X227790609Y-59879185D01*
X227878210Y-60010288D01*
X227878213Y-60010292D01*
X227989707Y-60121786D01*
X227989711Y-60121789D01*
X228120814Y-60209390D01*
X228120827Y-60209397D01*
X228266498Y-60269735D01*
X228266503Y-60269737D01*
X228421153Y-60300499D01*
X228421156Y-60300500D01*
X228421158Y-60300500D01*
X228578844Y-60300500D01*
X228578845Y-60300499D01*
X228733497Y-60269737D01*
X228879179Y-60209394D01*
X229010289Y-60121789D01*
X229121789Y-60010289D01*
X229209394Y-59879179D01*
X229269737Y-59733497D01*
X229300500Y-59578842D01*
X229300500Y-59421158D01*
X229300500Y-59421155D01*
X229300499Y-59421153D01*
X229295733Y-59397191D01*
X229269737Y-59266503D01*
X229229623Y-59169658D01*
X229209397Y-59120827D01*
X229209390Y-59120814D01*
X229121789Y-58989711D01*
X229121786Y-58989707D01*
X229074319Y-58942240D01*
X229040834Y-58880917D01*
X229038000Y-58854559D01*
X229038000Y-58429173D01*
X229038000Y-58429171D01*
X229001336Y-58292340D01*
X228953445Y-58209390D01*
X228930509Y-58169663D01*
X228930505Y-58169658D01*
X228836819Y-58075972D01*
X228803334Y-58014649D01*
X228800500Y-57988291D01*
X228800500Y-57921155D01*
X228800499Y-57921153D01*
X228785268Y-57844582D01*
X228769737Y-57766503D01*
X228762075Y-57748004D01*
X228709397Y-57620827D01*
X228709390Y-57620814D01*
X228621789Y-57489711D01*
X228621786Y-57489707D01*
X228510292Y-57378213D01*
X228510288Y-57378210D01*
X228379185Y-57290609D01*
X228379172Y-57290602D01*
X228233501Y-57230264D01*
X228233489Y-57230261D01*
X228078845Y-57199500D01*
X228078842Y-57199500D01*
X227921158Y-57199500D01*
X227921155Y-57199500D01*
X227766510Y-57230261D01*
X227766498Y-57230264D01*
X227671759Y-57269506D01*
X227602289Y-57276975D01*
X227539810Y-57245699D01*
X227504159Y-57185610D01*
X227502690Y-57130753D01*
X227518303Y-57052263D01*
X227518303Y-56894574D01*
X227518302Y-56894572D01*
X227487541Y-56739929D01*
X227487540Y-56739922D01*
X227442835Y-56631993D01*
X227427200Y-56594246D01*
X227427198Y-56594242D01*
X227427197Y-56594240D01*
X227389586Y-56537951D01*
X227368708Y-56471274D01*
X227378127Y-56421607D01*
X227378313Y-56421158D01*
X227403965Y-56359229D01*
X227434728Y-56204574D01*
X227434728Y-56161999D01*
X227454413Y-56094961D01*
X227507217Y-56049206D01*
X227558728Y-56038000D01*
X235354560Y-56038000D01*
X235421599Y-56057685D01*
X235442242Y-56074320D01*
X235489707Y-56121786D01*
X235489711Y-56121789D01*
X235620814Y-56209390D01*
X235620827Y-56209397D01*
X235758683Y-56266498D01*
X235766503Y-56269737D01*
X235903618Y-56297011D01*
X235921153Y-56300499D01*
X235921156Y-56300500D01*
X235921158Y-56300500D01*
X236078844Y-56300500D01*
X236078845Y-56300499D01*
X236233497Y-56269737D01*
X236379179Y-56209394D01*
X236510289Y-56121789D01*
X236621789Y-56010289D01*
X236709394Y-55879179D01*
X236769737Y-55733497D01*
X236800500Y-55578842D01*
X236800500Y-55421158D01*
X236800500Y-55421155D01*
X236800499Y-55421153D01*
X236769738Y-55266510D01*
X236769737Y-55266503D01*
X236709795Y-55121789D01*
X236709397Y-55120827D01*
X236709390Y-55120814D01*
X236621789Y-54989711D01*
X236621786Y-54989707D01*
X236510292Y-54878213D01*
X236510288Y-54878210D01*
X236379185Y-54790609D01*
X236379172Y-54790602D01*
X236233501Y-54730264D01*
X236233489Y-54730261D01*
X236078845Y-54699500D01*
X236078842Y-54699500D01*
X236053341Y-54699500D01*
X235986302Y-54679815D01*
X235940547Y-54627011D01*
X235930603Y-54557853D01*
X235947802Y-54510404D01*
X235996680Y-54431159D01*
X236034814Y-54369334D01*
X236059319Y-54295380D01*
X236099090Y-54237938D01*
X236163605Y-54211114D01*
X236232381Y-54223428D01*
X236245916Y-54231285D01*
X236246716Y-54231819D01*
X236246718Y-54231820D01*
X236246724Y-54231824D01*
X236246726Y-54231825D01*
X236246730Y-54231827D01*
X236392401Y-54292165D01*
X236392406Y-54292167D01*
X236547056Y-54322929D01*
X236547059Y-54322930D01*
X236547061Y-54322930D01*
X236704747Y-54322930D01*
X236704748Y-54322929D01*
X236859400Y-54292167D01*
X236990003Y-54238070D01*
X237005075Y-54231827D01*
X237005075Y-54231826D01*
X237005082Y-54231824D01*
X237136192Y-54144219D01*
X237247692Y-54032719D01*
X237335297Y-53901609D01*
X237395640Y-53755927D01*
X237426403Y-53601272D01*
X237426403Y-53443588D01*
X237426403Y-53443585D01*
X237426402Y-53443583D01*
X237400994Y-53315849D01*
X237395640Y-53288933D01*
X237356925Y-53195465D01*
X237335300Y-53143257D01*
X237335293Y-53143244D01*
X237247692Y-53012141D01*
X237247689Y-53012137D01*
X237136195Y-52900643D01*
X237136191Y-52900640D01*
X237005088Y-52813039D01*
X237005075Y-52813032D01*
X236859404Y-52752694D01*
X236859392Y-52752691D01*
X236704748Y-52721930D01*
X236704745Y-52721930D01*
X236637612Y-52721930D01*
X236570573Y-52702245D01*
X236549931Y-52685611D01*
X233762946Y-49898626D01*
X233762941Y-49898622D01*
X233640267Y-49827797D01*
X233640266Y-49827796D01*
X233586807Y-49813472D01*
X233503434Y-49791132D01*
X233503431Y-49791132D01*
X227640309Y-49791132D01*
X227573270Y-49771447D01*
X227527515Y-49718643D01*
X227517571Y-49649485D01*
X227546596Y-49585929D01*
X227552628Y-49579451D01*
X227621786Y-49510292D01*
X227621789Y-49510289D01*
X227709394Y-49379179D01*
X227769737Y-49233497D01*
X227800500Y-49078842D01*
X227800500Y-48921158D01*
X227800500Y-48921155D01*
X227800499Y-48921153D01*
X227791255Y-48874680D01*
X227769737Y-48766503D01*
X227731507Y-48674206D01*
X227709397Y-48620827D01*
X227709390Y-48620814D01*
X227621789Y-48489711D01*
X227621786Y-48489707D01*
X227510292Y-48378213D01*
X227510288Y-48378210D01*
X227379185Y-48290609D01*
X227379172Y-48290602D01*
X227233501Y-48230264D01*
X227233489Y-48230261D01*
X227078845Y-48199500D01*
X227078842Y-48199500D01*
X226921158Y-48199500D01*
X226921155Y-48199500D01*
X226766510Y-48230261D01*
X226766498Y-48230264D01*
X226620827Y-48290602D01*
X226620814Y-48290609D01*
X226489711Y-48378210D01*
X226489707Y-48378213D01*
X226378213Y-48489707D01*
X226353102Y-48527289D01*
X226334152Y-48543125D01*
X226318185Y-48561968D01*
X226307810Y-48565138D01*
X226299489Y-48572093D01*
X226274985Y-48575170D01*
X226251366Y-48582389D01*
X226240926Y-48579448D01*
X226230164Y-48580800D01*
X226207886Y-48570141D01*
X226184114Y-48563445D01*
X226174627Y-48554228D01*
X226167137Y-48550645D01*
X226157187Y-48540627D01*
X226151585Y-48534304D01*
X226121789Y-48489711D01*
X226036604Y-48404526D01*
X226034126Y-48401729D01*
X226025431Y-48383232D01*
X226007164Y-48351592D01*
X226001336Y-48329840D01*
X225943846Y-48230264D01*
X225930509Y-48207163D01*
X225930505Y-48207158D01*
X225330341Y-47606994D01*
X225330336Y-47606990D01*
X225207662Y-47536165D01*
X225207661Y-47536164D01*
X225173452Y-47526998D01*
X225070829Y-47499500D01*
X219414610Y-47499500D01*
X219272952Y-47499500D01*
X219190853Y-47521498D01*
X219136119Y-47536164D01*
X219136118Y-47536165D01*
X219013444Y-47606990D01*
X219013439Y-47606994D01*
X218425621Y-48194812D01*
X218364298Y-48228297D01*
X218294606Y-48223313D01*
X218238673Y-48181441D01*
X218223379Y-48154583D01*
X218209397Y-48120827D01*
X218209390Y-48120814D01*
X218121789Y-47989711D01*
X218121786Y-47989707D01*
X218010292Y-47878213D01*
X218010288Y-47878210D01*
X217879185Y-47790609D01*
X217879172Y-47790602D01*
X217733501Y-47730264D01*
X217733489Y-47730261D01*
X217578845Y-47699500D01*
X217578842Y-47699500D01*
X217421158Y-47699500D01*
X217421155Y-47699500D01*
X217266510Y-47730261D01*
X217266498Y-47730264D01*
X217120827Y-47790602D01*
X217120814Y-47790609D01*
X216989711Y-47878210D01*
X216989707Y-47878213D01*
X216878213Y-47989707D01*
X216878207Y-47989715D01*
X216862739Y-48012863D01*
X216846574Y-48026370D01*
X216833950Y-48043235D01*
X216820302Y-48048325D01*
X216809125Y-48057666D01*
X216788222Y-48060290D01*
X216768486Y-48067652D01*
X216754254Y-48064556D01*
X216739800Y-48066371D01*
X216720796Y-48057277D01*
X216700213Y-48052800D01*
X216680326Y-48037912D01*
X216676774Y-48036213D01*
X216671959Y-48031649D01*
X216550433Y-47910123D01*
X216520788Y-47860662D01*
X216520757Y-47860676D01*
X216520668Y-47860461D01*
X216519453Y-47858434D01*
X216518426Y-47855049D01*
X216471277Y-47741220D01*
X216471270Y-47741207D01*
X216402821Y-47638767D01*
X216402818Y-47638763D01*
X216315699Y-47551644D01*
X216315695Y-47551641D01*
X216213255Y-47483192D01*
X216213246Y-47483187D01*
X216099417Y-47436038D01*
X216099418Y-47436038D01*
X216099415Y-47436037D01*
X216099411Y-47436036D01*
X216099407Y-47436035D01*
X215978573Y-47412000D01*
X215978569Y-47412000D01*
X196124000Y-47412000D01*
X196115314Y-47409449D01*
X196106353Y-47410738D01*
X196082312Y-47399759D01*
X196056961Y-47392315D01*
X196051033Y-47385474D01*
X196042797Y-47381713D01*
X196028507Y-47359478D01*
X196011206Y-47339511D01*
X196008918Y-47328996D01*
X196005023Y-47322935D01*
X196000000Y-47288000D01*
X196000000Y-47204500D01*
X196019685Y-47137461D01*
X196072489Y-47091706D01*
X196124000Y-47080500D01*
X242295500Y-47080500D01*
X242362539Y-47100185D01*
G37*
%TD.AperFunction*%
%TA.AperFunction,Conductor*%
G36*
X205169083Y-57620185D02*
G01*
X205214838Y-57672989D01*
X205223661Y-57700309D01*
X205230261Y-57733489D01*
X205230264Y-57733501D01*
X205290602Y-57879172D01*
X205290609Y-57879185D01*
X205378210Y-58010288D01*
X205378213Y-58010292D01*
X205489707Y-58121786D01*
X205489711Y-58121789D01*
X205620814Y-58209390D01*
X205620827Y-58209397D01*
X205766498Y-58269735D01*
X205766503Y-58269737D01*
X205882594Y-58292829D01*
X205921153Y-58300499D01*
X205921156Y-58300500D01*
X205921158Y-58300500D01*
X206078844Y-58300500D01*
X206078845Y-58300499D01*
X206233497Y-58269737D01*
X206379179Y-58209394D01*
X206510289Y-58121789D01*
X206621789Y-58010289D01*
X206709394Y-57879179D01*
X206769737Y-57733497D01*
X206776339Y-57700309D01*
X206808724Y-57638398D01*
X206869439Y-57603824D01*
X206897956Y-57600500D01*
X209558177Y-57600500D01*
X209625216Y-57620185D01*
X209670971Y-57672989D01*
X209680915Y-57742147D01*
X209679794Y-57748691D01*
X209654450Y-57876103D01*
X209654450Y-58033796D01*
X209685211Y-58188439D01*
X209685214Y-58188451D01*
X209745552Y-58334122D01*
X209745559Y-58334135D01*
X209833160Y-58465238D01*
X209833163Y-58465242D01*
X209915253Y-58547332D01*
X209948738Y-58608655D01*
X209943754Y-58678347D01*
X209901882Y-58734280D01*
X209836418Y-58758697D01*
X209780121Y-58749575D01*
X209733497Y-58730263D01*
X209733492Y-58730262D01*
X209733489Y-58730261D01*
X209578845Y-58699500D01*
X209578842Y-58699500D01*
X209421158Y-58699500D01*
X209421155Y-58699500D01*
X209266510Y-58730261D01*
X209266498Y-58730264D01*
X209120827Y-58790602D01*
X209120814Y-58790609D01*
X208989711Y-58878210D01*
X208989707Y-58878213D01*
X208878213Y-58989707D01*
X208878210Y-58989711D01*
X208790609Y-59120814D01*
X208790602Y-59120827D01*
X208730264Y-59266498D01*
X208730261Y-59266510D01*
X208699500Y-59421153D01*
X208699500Y-59578846D01*
X208728730Y-59725791D01*
X208730263Y-59733497D01*
X208751686Y-59785218D01*
X208753894Y-59790547D01*
X208761363Y-59860017D01*
X208730088Y-59922496D01*
X208669999Y-59958148D01*
X208639333Y-59962000D01*
X206832281Y-59962000D01*
X206765242Y-59942315D01*
X206744600Y-59925681D01*
X204631100Y-57812181D01*
X204597615Y-57750858D01*
X204602599Y-57681166D01*
X204644471Y-57625233D01*
X204709935Y-57600816D01*
X204718781Y-57600500D01*
X205102044Y-57600500D01*
X205169083Y-57620185D01*
G37*
%TD.AperFunction*%
%TA.AperFunction,Conductor*%
G36*
X226127730Y-57519015D02*
G01*
X226170921Y-57573936D01*
X226179803Y-57620022D01*
X226179803Y-59007988D01*
X226160118Y-59075027D01*
X226143484Y-59095669D01*
X226069494Y-59169658D01*
X226069490Y-59169663D01*
X225998665Y-59292337D01*
X225998664Y-59292338D01*
X225992974Y-59313574D01*
X225962000Y-59429171D01*
X225962000Y-59429173D01*
X225962000Y-59725791D01*
X225953355Y-59755231D01*
X225946832Y-59785218D01*
X225943077Y-59790233D01*
X225942315Y-59792830D01*
X225925681Y-59813472D01*
X225813472Y-59925681D01*
X225752149Y-59959166D01*
X225725791Y-59962000D01*
X225352383Y-59962000D01*
X225285344Y-59942315D01*
X225239589Y-59889511D01*
X225229645Y-59820353D01*
X225237822Y-59790548D01*
X225261456Y-59733489D01*
X225269737Y-59713497D01*
X225300500Y-59558842D01*
X225300500Y-59401158D01*
X225300500Y-59401155D01*
X225300499Y-59401153D01*
X225289656Y-59346642D01*
X225269737Y-59246503D01*
X225237907Y-59169658D01*
X225209397Y-59100827D01*
X225209390Y-59100814D01*
X225121789Y-58969711D01*
X225121786Y-58969707D01*
X225010292Y-58858213D01*
X225010288Y-58858210D01*
X224879185Y-58770609D01*
X224879172Y-58770602D01*
X224733501Y-58710264D01*
X224733489Y-58710261D01*
X224578845Y-58679500D01*
X224578842Y-58679500D01*
X224511709Y-58679500D01*
X224444670Y-58659815D01*
X224424028Y-58643181D01*
X224350341Y-58569494D01*
X224350336Y-58569490D01*
X224227662Y-58498665D01*
X224227661Y-58498664D01*
X224193452Y-58489498D01*
X224090829Y-58462000D01*
X224090826Y-58462000D01*
X223184266Y-58462000D01*
X223117227Y-58442315D01*
X223071472Y-58389511D01*
X223060266Y-58338000D01*
X223060266Y-58301762D01*
X223060265Y-58301760D01*
X223058951Y-58295156D01*
X223029503Y-58147110D01*
X223013621Y-58108766D01*
X222969163Y-58001434D01*
X222969156Y-58001421D01*
X222881555Y-57870318D01*
X222881552Y-57870314D01*
X222823419Y-57812181D01*
X222789934Y-57750858D01*
X222794918Y-57681166D01*
X222836790Y-57625233D01*
X222902254Y-57600816D01*
X222911100Y-57600500D01*
X225768286Y-57600500D01*
X225768289Y-57600500D01*
X225905120Y-57563836D01*
X225993803Y-57512634D01*
X226061703Y-57496162D01*
X226127730Y-57519015D01*
G37*
%TD.AperFunction*%
%TA.AperFunction,Conductor*%
G36*
X225906575Y-54378355D02*
G01*
X225952330Y-54431159D01*
X225962274Y-54500317D01*
X225961155Y-54506851D01*
X225952633Y-54549692D01*
X225920250Y-54611601D01*
X225859535Y-54646176D01*
X225831017Y-54649500D01*
X220080428Y-54649500D01*
X220050987Y-54640855D01*
X220021001Y-54634332D01*
X220015985Y-54630577D01*
X220013389Y-54629815D01*
X219992747Y-54613181D01*
X219949917Y-54570351D01*
X219916432Y-54509028D01*
X219921416Y-54439336D01*
X219963288Y-54383403D01*
X220028752Y-54358986D01*
X220037598Y-54358670D01*
X225839536Y-54358670D01*
X225906575Y-54378355D01*
G37*
%TD.AperFunction*%
%TA.AperFunction,Conductor*%
G36*
X215797293Y-48682685D02*
G01*
X215817935Y-48699319D01*
X217054728Y-49936112D01*
X217088213Y-49997435D01*
X217083229Y-50067127D01*
X217070151Y-50092680D01*
X217051351Y-50120817D01*
X217051348Y-50120822D01*
X216991008Y-50266498D01*
X216991005Y-50266510D01*
X216960244Y-50421153D01*
X216960244Y-50578846D01*
X216991005Y-50733489D01*
X216991008Y-50733501D01*
X217051346Y-50879172D01*
X217051353Y-50879185D01*
X217138954Y-51010288D01*
X217138957Y-51010292D01*
X217250451Y-51121786D01*
X217250455Y-51121789D01*
X217381558Y-51209390D01*
X217381571Y-51209397D01*
X217415472Y-51223439D01*
X217469876Y-51267279D01*
X217491941Y-51333573D01*
X217474662Y-51401273D01*
X217423525Y-51448884D01*
X217368020Y-51462000D01*
X211729490Y-51462000D01*
X211662451Y-51442315D01*
X211616696Y-51389511D01*
X211606752Y-51320353D01*
X211635777Y-51256797D01*
X211641809Y-51250319D01*
X212817808Y-50074319D01*
X212879131Y-50040834D01*
X212905489Y-50038000D01*
X213854560Y-50038000D01*
X213921599Y-50057685D01*
X213942242Y-50074320D01*
X213989707Y-50121786D01*
X213989711Y-50121789D01*
X214120814Y-50209390D01*
X214120827Y-50209397D01*
X214243425Y-50260178D01*
X214266503Y-50269737D01*
X214421153Y-50300499D01*
X214421156Y-50300500D01*
X214421158Y-50300500D01*
X214578844Y-50300500D01*
X214578845Y-50300499D01*
X214733497Y-50269737D01*
X214879179Y-50209394D01*
X215010289Y-50121789D01*
X215121789Y-50010289D01*
X215209394Y-49879179D01*
X215269737Y-49733497D01*
X215300500Y-49578842D01*
X215300500Y-49421158D01*
X215300500Y-49421155D01*
X215300499Y-49421153D01*
X215269737Y-49266503D01*
X215256062Y-49233489D01*
X215209397Y-49120827D01*
X215209390Y-49120814D01*
X215121789Y-48989711D01*
X215121786Y-48989707D01*
X215006760Y-48874681D01*
X214973275Y-48813358D01*
X214978259Y-48743666D01*
X215020131Y-48687733D01*
X215085595Y-48663316D01*
X215094441Y-48663000D01*
X215730254Y-48663000D01*
X215797293Y-48682685D01*
G37*
%TD.AperFunction*%
%TD*%
M02*
